<?xml version="1.0" standalone="no"?>
 <!DOCTYPE svg PUBLIC "-//W3C//DTD SVG 1.1//EN" 
 "http://www.w3.org/Graphics/SVG/1.1/DTD/svg11.dtd"> 
<svg
  xmlns:svg="http://www.w3.org/2000/svg"
  xmlns="http://www.w3.org/2000/svg"
  xmlns:xlink="http://www.w3.org/1999/xlink"
  version="1.1"
  width="7.482840cm" height="4.064000cm" viewBox="0 0 74828400 40640000">
<title>SVG Picture created as DNS-DriveBy-F_Adhesive.svg date 2022/12/17 17:41:32 </title>
  <desc>Picture generated by PCBNEW </desc>
<g style="fill:#000000; fill-opacity:1.000000;stroke:#000000; stroke-opacity:1.000000;
stroke-linecap:round; stroke-linejoin:round;"
 transform="translate(0 0) scale(1 1)">
</g>
<g style="fill:#000000; fill-opacity:0.0; 
stroke:#000000; stroke-width:0.000000; stroke-opacity:1; 
stroke-linecap:round; stroke-linejoin:round;">
<g >
</g>
<g >
</g>
<g >
</g>
<g >
</g>
<g >
</g>
<g >
</g>
<g >
</g>
<g >
</g>
<g >
</g>
<g >
</g>
<g >
</g>
<g >
</g>
<g >
</g>
<g >
</g>
<g >
</g>
<g >
</g>
</g>
<g style="fill:#000000; fill-opacity:0.0; 
stroke:#000000; stroke-width:0.000000; stroke-opacity:1; 
stroke-linecap:round; stroke-linejoin:round;">
</g>
<g style="fill:#D0D2CD; fill-opacity:0.0; 
stroke:#D0D2CD; stroke-width:0.000000; stroke-opacity:1; 
stroke-linecap:round; stroke-linejoin:round;">
</g>
<g style="fill:#D0D2CD; fill-opacity:0.0; 
stroke:#D0D2CD; stroke-width:349999.000000; stroke-opacity:1; 
stroke-linecap:round; stroke-linejoin:round;">
<path d="M544524 38672243
L497102 38549366
" />
<path d="M2772139 40325789
L2640292 40309411
" />
<path d="M1129811 39548184
L1037486 39451167
" />
<path d="M70549370 497104
L70672247 544526
" />
<path d="M352212 2772138
L368589 2640291
" />
<path d="M71245339 868806
L71350149 950455
" />
</g>
<g style="fill:#D0D2CD; fill-opacity:1.0; 
stroke:#D0D2CD; stroke-width:1.000000; stroke-opacity:1; 
stroke-linecap:round; stroke-linejoin:round;">
<circle cx="71548192.000000" cy="39548188.000000" r="174999.500000" /> 
</g>
<g style="fill:#D0D2CD; fill-opacity:1.0; 
stroke:#D0D2CD; stroke-width:349999.000000; stroke-opacity:1; 
stroke-linecap:round; stroke-linejoin:round;">
</g>
<g style="fill:#D0D2CD; fill-opacity:0.0; 
stroke:#D0D2CD; stroke-width:349999.000000; stroke-opacity:1; 
stroke-linecap:round; stroke-linejoin:round;">
<path d="M71727549 39350146
L71640516 39451170
" />
<path d="M72080122 1885336
L72133477 2005755
" />
<path d="M70910407 657078
L71025246 722026
" />
<path d="M2128630 497103
L2253744 455707
" />
<path d="M597879 1885335
L657077 1767595
" />
<path d="M1767595 40020920
L1652755 39955971
" />
<path d="M70672247 544526
L70792667 597881
" />
<path d="M69772889 342318
L69905865 352211
" />
</g>
<g style="fill:#D0D2CD; fill-opacity:1.0; 
stroke:#D0D2CD; stroke-width:1.000000; stroke-opacity:1; 
stroke-linecap:round; stroke-linejoin:round;">
<circle cx="3039002.000000" cy="40339001.000000" r="174999.500000" /> 
</g>
<g style="fill:#D0D2CD; fill-opacity:1.0; 
stroke:#D0D2CD; stroke-width:349999.000000; stroke-opacity:1; 
stroke-linecap:round; stroke-linejoin:round;">
</g>
<g style="fill:#D0D2CD; fill-opacity:0.0; 
stroke:#D0D2CD; stroke-width:349999.000000; stroke-opacity:1; 
stroke-linecap:round; stroke-linejoin:round;">
<path d="M69905865 352211
L70037711 368589
" />
<path d="M71136964 792633
L71245339 868806
" />
<path d="M70297128 420429
L70424257 455708
" />
<path d="M70297128 40257572
L70168206 40286642
" />
<path d="M339001 37638997
L339001 3039000
" />
<path d="M71548192 39548188
L71451174 39640513
" />
<path d="M72339001 37638997
L72335683 37772882
" />
<path d="M72080122 38792664
L72020925 38910404
" />
<path d="M72286642 2509796
L72309412 2640291
" />
<path d="M950453 39350142
L868804 39245332
" />
<path d="M70037711 368589
L70168206 391359
" />
<path d="M71350149 39727545
L71245339 39809194
" />
<path d="M72286642 38168202
L72257572 38297125
" />
<path d="M2380874 40257571
L2253745 40222291
" />
<path d="M72257572 38297125
L72222294 38424254
" />
<path d="M597879 38792662
L544524 38672243
" />
<path d="M497102 38549366
L455706 38424253
" />
<path d="M72257572 2380874
L72286642 2509796
" />
<path d="M420427 38297124
L391357 38168201
" />
</g>
<g style="fill:#D0D2CD; fill-opacity:1.0; 
stroke:#D0D2CD; stroke-width:1.000000; stroke-opacity:1; 
stroke-linecap:round; stroke-linejoin:round;">
<circle cx="1129811.000000" cy="1129811.000000" r="174999.500000" /> 
</g>
<g style="fill:#D0D2CD; fill-opacity:1.0; 
stroke:#D0D2CD; stroke-width:349999.000000; stroke-opacity:1; 
stroke-linecap:round; stroke-linejoin:round;">
</g>
<g style="fill:#D0D2CD; fill-opacity:0.0; 
stroke:#D0D2CD; stroke-width:349999.000000; stroke-opacity:1; 
stroke-linecap:round; stroke-linejoin:round;">
<path d="M71350149 950455
L71451174 1037488
" />
</g>
<g style="fill:#D0D2CD; fill-opacity:1.0; 
stroke:#D0D2CD; stroke-width:1.000000; stroke-opacity:1; 
stroke-linecap:round; stroke-linejoin:round;">
<circle cx="69639004.000000" cy="40339001.000000" r="174999.500000" /> 
</g>
<g style="fill:#D0D2CD; fill-opacity:1.0; 
stroke:#D0D2CD; stroke-width:349999.000000; stroke-opacity:1; 
stroke-linecap:round; stroke-linejoin:round;">
</g>
<g style="fill:#D0D2CD; fill-opacity:0.0; 
stroke:#D0D2CD; stroke-width:349999.000000; stroke-opacity:1; 
stroke-linecap:round; stroke-linejoin:round;">
<path d="M71025246 39955974
L70910407 40020922
" />
<path d="M71809198 39245336
L71727549 39350146
" />
<path d="M2905116 40335683
L2772139 40325789
" />
<path d="M71809198 1432665
L71885371 1541039
" />
<path d="M71025246 722026
L71136964 792633
" />
</g>
<g style="fill:#D0D2CD; fill-opacity:1.0; 
stroke:#D0D2CD; stroke-width:1.000000; stroke-opacity:1; 
stroke-linecap:round; stroke-linejoin:round;">
<circle cx="72339001.000000" cy="3039000.000000" r="174999.500000" /> 
</g>
<g style="fill:#D0D2CD; fill-opacity:1.0; 
stroke:#D0D2CD; stroke-width:349999.000000; stroke-opacity:1; 
stroke-linecap:round; stroke-linejoin:round;">
</g>
<g style="fill:#D0D2CD; fill-opacity:0.0; 
stroke:#D0D2CD; stroke-width:349999.000000; stroke-opacity:1; 
stroke-linecap:round; stroke-linejoin:round;">
<path d="M72020925 38910404
L71955977 39025243
" />
<path d="M455706 38424253
L420427 38297124
" />
<path d="M2905113 342318
L3038998 338999
" />
<path d="M71451174 39640513
L71350149 39727545
" />
<path d="M72133477 38672245
L72080122 38792664
" />
<path d="M70168206 391359
L70297128 420429
" />
<path d="M1885335 40080117
L1767595 40020920
" />
<path d="M72325789 37905859
L72309412 38037706
" />
<path d="M70792667 40080120
L70672247 40133475
" />
<path d="M950453 1327853
L1037486 1226828
" />
<path d="M69772889 40335683
L69639004 40339001
" />
<path d="M2253744 455707
L2380873 420429
" />
<path d="M792631 1541038
L868804 1432663
" />
<path d="M69639004 40339001
L3039002 40339001
" />
<path d="M544524 2005754
L597879 1885335
" />
<path d="M71885371 1541039
L71955977 1652757
" />
<path d="M71955977 1652757
L72020925 1767596
" />
<path d="M72335683 2905115
L72339001 3039000
" />
<path d="M70424257 455708
L70549370 497104
" />
</g>
<g style="fill:#D0D2CD; fill-opacity:1.0; 
stroke:#D0D2CD; stroke-width:1.000000; stroke-opacity:1; 
stroke-linecap:round; stroke-linejoin:round;">
<circle cx="69639004.000000" cy="338999.000000" r="174999.500000" /> 
</g>
<g style="fill:#D0D2CD; fill-opacity:1.0; 
stroke:#D0D2CD; stroke-width:349999.000000; stroke-opacity:1; 
stroke-linecap:round; stroke-linejoin:round;">
</g>
<g style="fill:#D0D2CD; fill-opacity:0.0; 
stroke:#D0D2CD; stroke-width:349999.000000; stroke-opacity:1; 
stroke-linecap:round; stroke-linejoin:round;">
<path d="M72020925 1767596
L72080122 1885336
" />
<path d="M72339001 3039000
L72339001 37638997
" />
<path d="M71548192 1129813
L71640516 1226830
" />
<path d="M1037486 39451167
L950453 39350142
" />
<path d="M72222294 2253745
L72257572 2380874
" />
<path d="M70910407 40020922
L70792667 40080120
" />
<path d="M70549370 40180896
L70424257 40222293
" />
<path d="M1652755 39955971
L1541038 39885365
" />
<path d="M3038998 338999
L69639004 338999
" />
<path d="M657077 1767595
L722024 1652755
" />
<path d="M72325789 2772138
L72335683 2905115
" />
<path d="M368587 38037706
L352210 37905859
" />
<path d="M1327853 39727542
L1226828 39640509
" />
<path d="M71640516 39451170
L71548192 39548188
" />
<path d="M71136964 39885368
L71025246 39955974
" />
<path d="M2509797 40286641
L2380874 40257571
" />
<path d="M2509795 391358
L2640290 368589
" />
<path d="M391358 2509796
L420428 2380873
" />
<path d="M352210 37905859
L342316 37772882
" />
<path d="M72133477 2005755
L72180898 2128632
" />
<path d="M391357 38168201
L368587 38037706
" />
<path d="M368589 2640291
L391358 2509796
" />
<path d="M2128631 40180895
L2005754 40133473
" />
<path d="M3039002 40339001
L2905116 40335683
" />
<path d="M2380873 420429
L2509795 391358
" />
</g>
<g style="fill:#D0D2CD; fill-opacity:1.0; 
stroke:#D0D2CD; stroke-width:1.000000; stroke-opacity:1; 
stroke-linecap:round; stroke-linejoin:round;">
<circle cx="71548192.000000" cy="1129813.000000" r="174999.500000" /> 
</g>
<g style="fill:#D0D2CD; fill-opacity:1.0; 
stroke:#D0D2CD; stroke-width:349999.000000; stroke-opacity:1; 
stroke-linecap:round; stroke-linejoin:round;">
</g>
<g style="fill:#D0D2CD; fill-opacity:0.0; 
stroke:#D0D2CD; stroke-width:349999.000000; stroke-opacity:1; 
stroke-linecap:round; stroke-linejoin:round;">
<path d="M1885335 597880
L2005754 544525
" />
<path d="M868804 39245332
L792631 39136958
" />
<path d="M792631 39136958
L722024 39025240
" />
<path d="M69639004 338999
L69772889 342318
" />
<path d="M71451174 1037488
L71548192 1129813
" />
<path d="M1226828 39640509
L1129811 39548184
" />
<path d="M69905865 40325789
L69772889 40335683
" />
<path d="M1652755 722025
L1767595 657077
" />
<path d="M1037486 1226828
L1129811 1129811
" />
<path d="M2772137 352211
L2905113 342318
" />
<path d="M72222294 38424254
L72180898 38549368
" />
<path d="M722024 39025240
L657076 38910401
" />
<path d="M455707 2253744
L497103 2128631
" />
<path d="M342319 2905115
L352212 2772138
" />
<path d="M72309412 2640291
L72325789 2772138
" />
<path d="M1129811 1129811
L1226828 1037486
" />
<path d="M2640292 40309411
L2509797 40286641
" />
<path d="M2005754 40133473
L1885335 40080117
" />
<path d="M72180898 2128632
L72222294 2253745
" />
</g>
<g style="fill:#D0D2CD; fill-opacity:1.0; 
stroke:#D0D2CD; stroke-width:1.000000; stroke-opacity:1; 
stroke-linecap:round; stroke-linejoin:round;">
<circle cx="339001.000000" cy="3039000.000000" r="174999.500000" /> 
</g>
<g style="fill:#D0D2CD; fill-opacity:1.0; 
stroke:#D0D2CD; stroke-width:349999.000000; stroke-opacity:1; 
stroke-linecap:round; stroke-linejoin:round;">
</g>
<g style="fill:#D0D2CD; fill-opacity:0.0; 
stroke:#D0D2CD; stroke-width:349999.000000; stroke-opacity:1; 
stroke-linecap:round; stroke-linejoin:round;">
<path d="M72180898 38549368
L72133477 38672245
" />
<path d="M2005754 544525
L2128630 497103
" />
<path d="M70037711 40309412
L69905865 40325789
" />
<path d="M71955977 39025243
L71885371 39136961
" />
<path d="M72309412 38037706
L72286642 38168202
" />
<path d="M70168206 40286642
L70037711 40309412
" />
<path d="M70672247 40133475
L70549370 40180896
" />
<path d="M1432663 868805
L1541038 792631
" />
<path d="M1432663 39809191
L1327853 39727542
" />
<path d="M420428 2380873
L455707 2253744
" />
<path d="M70424257 40222293
L70297128 40257572
" />
<path d="M1767595 657077
L1885335 597880
" />
<path d="M342316 37772882
L338997 37638997
" />
<path d="M868804 1432663
L950453 1327853
" />
<path d="M2640290 368589
L2772137 352211
" />
</g>
<g style="fill:#D0D2CD; fill-opacity:1.0; 
stroke:#D0D2CD; stroke-width:1.000000; stroke-opacity:1; 
stroke-linecap:round; stroke-linejoin:round;">
<circle cx="72339001.000000" cy="37638997.000000" r="174999.500000" /> 
</g>
<g style="fill:#D0D2CD; fill-opacity:1.0; 
stroke:#D0D2CD; stroke-width:349999.000000; stroke-opacity:1; 
stroke-linecap:round; stroke-linejoin:round;">
</g>
<g style="fill:#D0D2CD; fill-opacity:0.0; 
stroke:#D0D2CD; stroke-width:349999.000000; stroke-opacity:1; 
stroke-linecap:round; stroke-linejoin:round;">
<path d="M1226828 1037486
L1327853 950454
" />
<path d="M72335683 37772882
L72325789 37905859
" />
<path d="M1541038 39885365
L1432663 39809191
" />
<path d="M339001 3039000
L342319 2905115
" />
<path d="M1541038 792631
L1652755 722025
" />
</g>
<g style="fill:#D0D2CD; fill-opacity:1.0; 
stroke:#D0D2CD; stroke-width:1.000000; stroke-opacity:1; 
stroke-linecap:round; stroke-linejoin:round;">
<circle cx="1129811.000000" cy="39548184.000000" r="174999.500000" /> 
</g>
<g style="fill:#D0D2CD; fill-opacity:1.0; 
stroke:#D0D2CD; stroke-width:349999.000000; stroke-opacity:1; 
stroke-linecap:round; stroke-linejoin:round;">
</g>
<g style="fill:#D0D2CD; fill-opacity:0.0; 
stroke:#D0D2CD; stroke-width:349999.000000; stroke-opacity:1; 
stroke-linecap:round; stroke-linejoin:round;">
<path d="M1327853 950454
L1432663 868805
" />
<path d="M71245339 39809194
L71136964 39885368
" />
<path d="M71640516 1226830
L71727549 1327855
" />
<path d="M2253745 40222291
L2128631 40180895
" />
<path d="M71727549 1327855
L71809198 1432665
" />
<path d="M70792667 597881
L70910407 657078
" />
<path d="M657076 38910401
L597879 38792662
" />
<path d="M722024 1652755
L792631 1541038
" />
<path d="M71885371 39136961
L71809198 39245336
" />
</g>
<g style="fill:#D0D2CD; fill-opacity:1.0; 
stroke:#D0D2CD; stroke-width:1.000000; stroke-opacity:1; 
stroke-linecap:round; stroke-linejoin:round;">
<circle cx="3038998.000000" cy="338999.000000" r="174999.500000" /> 
</g>
<g style="fill:#D0D2CD; fill-opacity:1.0; 
stroke:#D0D2CD; stroke-width:349999.000000; stroke-opacity:1; 
stroke-linecap:round; stroke-linejoin:round;">
</g>
<g style="fill:#D0D2CD; fill-opacity:0.0; 
stroke:#D0D2CD; stroke-width:349999.000000; stroke-opacity:1; 
stroke-linecap:round; stroke-linejoin:round;">
<path d="M497103 2128631
L544524 2005754
" />
<g >
</g>
<g >
</g>
<g >
</g>
<g >
</g>
<g >
</g>
<g >
</g>
<g >
</g>
<g >
</g>
<g >
</g>
<g >
</g>
<g >
</g>
<g >
</g>
<g >
</g>
<g >
</g>
<g >
</g>
<g >
</g>
</g> 
</svg>
