<?xml version="1.0" standalone="no"?>
 <!DOCTYPE svg PUBLIC "-//W3C//DTD SVG 1.1//EN" 
 "http://www.w3.org/Graphics/SVG/1.1/DTD/svg11.dtd"> 
<svg
  xmlns:svg="http://www.w3.org/2000/svg"
  xmlns="http://www.w3.org/2000/svg"
  xmlns:xlink="http://www.w3.org/1999/xlink"
  version="1.1"
  width="7.874000cm" height="4.038600cm" viewBox="0 0 78740000 40386000">
<title>SVG Picture created as DNS-DriveBy-B_Silkscreen.svg date 2023/06/14 18:15:44 </title>
  <desc>Picture generated by PCBNEW </desc>
<g style="fill:#000000; fill-opacity:1.000000;stroke:#000000; stroke-opacity:1.000000;
stroke-linecap:round; stroke-linejoin:round;"
 transform="translate(0 0) scale(1 1)">
</g>
<g style="fill:#000000; fill-opacity:0.0; 
stroke:#000000; stroke-width:0.000000; stroke-opacity:1; 
stroke-linecap:round; stroke-linejoin:round;">
</g>
<g style="fill:#E8B2A7; fill-opacity:0.0; 
stroke:#E8B2A7; stroke-width:0.000000; stroke-opacity:1; 
stroke-linecap:round; stroke-linejoin:round;">
</g>
<g style="fill:#E8B2A7; fill-opacity:0.0; 
stroke:#E8B2A7; stroke-width:150000.000000; stroke-opacity:1; 
stroke-linecap:round; stroke-linejoin:round;">
<path d="M54578500 37179400
L54116000 36691900
" />
<path d="M54116000 33016900
L54378500 32779400
" />
<path d="M54116000 36691900
L54116000 33016900
" />
<path d="M53578500 33029400
L53303500 32804400
" />
<path d="M53578500 36704400
L53578500 33029400
" />
<path d="M53103500 37179400
L53578500 36704400
" />
<path d="M68703500 21979400
L68703500 20179400
" />
<path d="M68703500 15804400
L68703500 17304400
" />
<path d="M45203500 38804600
L45203500 36804600
" />
<path d="M54398300 32041200
L56398300 32041200
" />
<path d="M51248300 32041200
L53248300 32041200
" />
<text x="57748300.000000" y="34741200.000000"
transform="scale(-1 1) translate(-115496600.000000 0)"
textLength="1757381.000000" font-size="1333333.000000" lengthAdjust="spacingAndGlyphs"
text-anchor="middle" opacity="0">D3</text>
<g class="stroked-text"><desc>D3</desc>
<path d="M58486395 34693580
L58486395 33693580
L58248300 33693580
L58105442 33741200
L58010204 33836438
L57962585 33931676
L57914966 34122152
L57914966 34265009
L57962585 34455485
L58010204 34550723
L58105442 34645961
L58248300 34693580
L58486395 34693580
" />
<path d="M57581633 33693580
L56962585 33693580
L57295919 34074533
L57153061 34074533
L57057823 34122152
L57010204 34169771
L56962585 34265009
L56962585 34503104
L57010204 34598342
L57057823 34645961
L57153061 34693580
L57438776 34693580
L57534014 34645961
L57581633 34598342
" />
</g><text x="49848300.000000" y="31691200.000000"
transform="scale(-1 1) translate(-99696600.000000 0)"
textLength="1757381.000000" font-size="1333333.000000" lengthAdjust="spacingAndGlyphs"
text-anchor="middle" opacity="0">RX</text>
<g class="stroked-text"><desc>RX</desc>
<path d="M50014966 31643580
L50348300 31167390
" />
<path d="M50586395 31643580
L50586395 30643580
L50205442 30643580
L50110204 30691200
L50062585 30738819
L50014966 30834057
L50014966 30976914
L50062585 31072152
L50110204 31119771
L50205442 31167390
L50586395 31167390
" />
<path d="M49681633 30643580
L49014966 31643580
" />
<path d="M49014966 30643580
L49681633 31643580
" />
</g><text x="49848300.000000" y="34591200.000000"
transform="scale(-1 1) translate(-99696600.000000 0)"
textLength="1757381.000000" font-size="1333333.000000" lengthAdjust="spacingAndGlyphs"
text-anchor="middle" opacity="0">D4</text>
<g class="stroked-text"><desc>D4</desc>
<path d="M50586395 34543580
L50586395 33543580
L50348300 33543580
L50205442 33591200
L50110204 33686438
L50062585 33781676
L50014966 33972152
L50014966 34115009
L50062585 34305485
L50110204 34400723
L50205442 34495961
L50348300 34543580
L50586395 34543580
" />
<path d="M49157823 33876914
L49157823 34543580
" />
<path d="M49395919 33495961
L49634014 34210247
L49014966 34210247
" />
</g><text x="34298300.000000" y="6086200.000000"
transform="scale(-1 1) translate(-68596600.000000 0)"
textLength="6519286.000000" font-size="1333333.000000" lengthAdjust="spacingAndGlyphs"
text-anchor="middle" opacity="0">SSD1306</text>
<g class="stroked-text"><desc>SSD1306</desc>
<path d="M37464966 5990961
L37322109 6038580
L37084014 6038580
L36988776 5990961
L36941157 5943342
L36893538 5848104
L36893538 5752866
L36941157 5657628
L36988776 5610009
L37084014 5562390
L37274490 5514771
L37369728 5467152
L37417347 5419533
L37464966 5324295
L37464966 5229057
L37417347 5133819
L37369728 5086200
L37274490 5038580
L37036395 5038580
L36893538 5086200
" />
<path d="M36512585 5990961
L36369728 6038580
L36131633 6038580
L36036395 5990961
L35988776 5943342
L35941157 5848104
L35941157 5752866
L35988776 5657628
L36036395 5610009
L36131633 5562390
L36322109 5514771
L36417347 5467152
L36464966 5419533
L36512585 5324295
L36512585 5229057
L36464966 5133819
L36417347 5086200
L36322109 5038580
L36084014 5038580
L35941157 5086200
" />
<path d="M35512585 6038580
L35512585 5038580
L35274490 5038580
L35131633 5086200
L35036395 5181438
L34988776 5276676
L34941157 5467152
L34941157 5610009
L34988776 5800485
L35036395 5895723
L35131633 5990961
L35274490 6038580
L35512585 6038580
" />
<path d="M33988776 6038580
L34560204 6038580
" />
<path d="M34274490 6038580
L34274490 5038580
L34369728 5181438
L34464966 5276676
L34560204 5324295
" />
<path d="M33655442 5038580
L33036395 5038580
L33369728 5419533
L33226871 5419533
L33131633 5467152
L33084014 5514771
L33036395 5610009
L33036395 5848104
L33084014 5943342
L33131633 5990961
L33226871 6038580
L33512585 6038580
L33607823 5990961
L33655442 5943342
" />
<path d="M32417347 5038580
L32322109 5038580
L32226871 5086200
L32179252 5133819
L32131633 5229057
L32084014 5419533
L32084014 5657628
L32131633 5848104
L32179252 5943342
L32226871 5990961
L32322109 6038580
L32417347 6038580
L32512585 5990961
L32560204 5943342
L32607823 5848104
L32655442 5657628
L32655442 5419533
L32607823 5229057
L32560204 5133819
L32512585 5086200
L32417347 5038580
" />
<path d="M31226871 5038580
L31417347 5038580
L31512585 5086200
L31560204 5133819
L31655442 5276676
L31703061 5467152
L31703061 5848104
L31655442 5943342
L31607823 5990961
L31512585 6038580
L31322109 6038580
L31226871 5990961
L31179252 5943342
L31131633 5848104
L31131633 5610009
L31179252 5514771
L31226871 5467152
L31322109 5419533
L31512585 5419533
L31607823 5467152
L31655442 5514771
L31703061 5610009
" />
</g><text x="34298300.000000" y="7696200.000000"
transform="scale(-1 1) translate(-68596600.000000 0)"
textLength="5614524.000000" font-size="1333333.000000" lengthAdjust="spacingAndGlyphs"
text-anchor="middle" opacity="0">SH1106</text>
<g class="stroked-text"><desc>SH1106</desc>
<path d="M37012585 7600961
L36869728 7648580
L36631633 7648580
L36536395 7600961
L36488776 7553342
L36441157 7458104
L36441157 7362866
L36488776 7267628
L36536395 7220009
L36631633 7172390
L36822109 7124771
L36917347 7077152
L36964966 7029533
L37012585 6934295
L37012585 6839057
L36964966 6743819
L36917347 6696200
L36822109 6648580
L36584014 6648580
L36441157 6696200
" />
<path d="M36012585 7648580
L36012585 6648580
" />
<path d="M36012585 7124771
L35441157 7124771
" />
<path d="M35441157 7648580
L35441157 6648580
" />
<path d="M34441157 7648580
L35012585 7648580
" />
<path d="M34726871 7648580
L34726871 6648580
L34822109 6791438
L34917347 6886676
L35012585 6934295
" />
<path d="M33488776 7648580
L34060204 7648580
" />
<path d="M33774490 7648580
L33774490 6648580
L33869728 6791438
L33964966 6886676
L34060204 6934295
" />
<path d="M32869728 6648580
L32774490 6648580
L32679252 6696200
L32631633 6743819
L32584014 6839057
L32536395 7029533
L32536395 7267628
L32584014 7458104
L32631633 7553342
L32679252 7600961
L32774490 7648580
L32869728 7648580
L32964966 7600961
L33012585 7553342
L33060204 7458104
L33107823 7267628
L33107823 7029533
L33060204 6839057
L33012585 6743819
L32964966 6696200
L32869728 6648580
" />
<path d="M31679252 6648580
L31869728 6648580
L31964966 6696200
L32012585 6743819
L32107823 6886676
L32155442 7077152
L32155442 7458104
L32107823 7553342
L32060204 7600961
L31964966 7648580
L31774490 7648580
L31679252 7600961
L31631633 7553342
L31584014 7458104
L31584014 7220009
L31631633 7124771
L31679252 7077152
L31774490 7029533
L31964966 7029533
L32060204 7077152
L32107823 7124771
L32155442 7220009
" />
</g><text x="57798300.000000" y="31691200.000000"
transform="scale(-1 1) translate(-115596600.000000 0)"
textLength="1519286.000000" font-size="1333333.000000" lengthAdjust="spacingAndGlyphs"
text-anchor="middle" opacity="0">TX</text>
<g class="stroked-text"><desc>TX</desc>
<path d="M58560204 30643580
L57988776 30643580
" />
<path d="M58274490 31643580
L58274490 30643580
" />
<path d="M57750680 30643580
L57084014 31643580
" />
<path d="M57084014 30643580
L57750680 31643580
" />
</g><text x="53798300.000000" y="29491200.000000"
transform="scale(-1 1) translate(-107596600.000000 0)"
textLength="6709762.000000" font-size="1333333.000000" lengthAdjust="spacingAndGlyphs"
text-anchor="middle" opacity="0">GPS Pins</text>
<g class="stroked-text"><desc>GPS Pins</desc>
<path d="M56488776 28491200
L56584014 28443580
L56726871 28443580
L56869728 28491200
L56964966 28586438
L57012585 28681676
L57060204 28872152
L57060204 29015009
L57012585 29205485
L56964966 29300723
L56869728 29395961
L56726871 29443580
L56631633 29443580
L56488776 29395961
L56441157 29348342
L56441157 29015009
L56631633 29015009
" />
<path d="M56012585 29443580
L56012585 28443580
L55631633 28443580
L55536395 28491200
L55488776 28538819
L55441157 28634057
L55441157 28776914
L55488776 28872152
L55536395 28919771
L55631633 28967390
L56012585 28967390
" />
<path d="M55060204 29395961
L54917347 29443580
L54679252 29443580
L54584014 29395961
L54536395 29348342
L54488776 29253104
L54488776 29157866
L54536395 29062628
L54584014 29015009
L54679252 28967390
L54869728 28919771
L54964966 28872152
L55012585 28824533
L55060204 28729295
L55060204 28634057
L55012585 28538819
L54964966 28491200
L54869728 28443580
L54631633 28443580
L54488776 28491200
" />
<path d="M53298300 29443580
L53298300 28443580
L52917347 28443580
L52822109 28491200
L52774490 28538819
L52726871 28634057
L52726871 28776914
L52774490 28872152
L52822109 28919771
L52917347 28967390
L53298300 28967390
" />
<path d="M52298299 29443580
L52298299 28776914
" />
<path d="M52298299 28443580
L52345919 28491200
L52298299 28538819
L52250680 28491200
L52298299 28443580
L52298299 28538819
" />
<path d="M51822109 28776914
L51822109 29443580
" />
<path d="M51822109 28872152
L51774490 28824533
L51679252 28776914
L51536395 28776914
L51441157 28824533
L51393538 28919771
L51393538 29443580
" />
<path d="M50964966 29395961
L50869728 29443580
L50679252 29443580
L50584014 29395961
L50536395 29300723
L50536395 29253104
L50584014 29157866
L50679252 29110247
L50822109 29110247
L50917347 29062628
L50964966 28967390
L50964966 28919771
L50917347 28824533
L50822109 28776914
L50679252 28776914
L50584014 28824533
" />
</g><g transform="rotate(-270.000000 4398300.000000 27541200.000000)">
<text x="4398300.000000" y="28041200.000000"
transform="scale(-1 1) translate(-8796600.000000 0)"
textLength="11281190.000000" font-size="1333333.000000" lengthAdjust="spacingAndGlyphs"
text-anchor="middle" opacity="0">dnsdriveby.com</text>
</g>
<g class="stroked-text"><desc>dnsdriveby.com</desc>
<path d="M3945919 32612628
L4945919 32612628
" />
<path d="M3993538 32612628
L3945919 32707866
L3945919 32898342
L3993538 32993580
L4041157 33041200
L4136395 33088819
L4422109 33088819
L4517347 33041200
L4564966 32993580
L4612585 32898342
L4612585 32707866
L4564966 32612628
" />
<path d="M4612585 32136438
L3945919 32136438
" />
<path d="M4517347 32136438
L4564966 32088819
L4612585 31993580
L4612585 31850723
L4564966 31755485
L4469728 31707866
L3945919 31707866
" />
<path d="M3993538 31279295
L3945919 31184057
L3945919 30993580
L3993538 30898342
L4088776 30850723
L4136395 30850723
L4231633 30898342
L4279252 30993580
L4279252 31136438
L4326871 31231676
L4422109 31279295
L4469728 31279295
L4564966 31231676
L4612585 31136438
L4612585 30993580
L4564966 30898342
" />
<path d="M3945919 29993580
L4945919 29993580
" />
<path d="M3993538 29993580
L3945919 30088819
L3945919 30279295
L3993538 30374533
L4041157 30422152
L4136395 30469771
L4422109 30469771
L4517347 30422152
L4564966 30374533
L4612585 30279295
L4612585 30088819
L4564966 29993580
" />
<path d="M3945919 29517390
L4612585 29517390
" />
<path d="M4422109 29517390
L4517347 29469771
L4564966 29422152
L4612585 29326914
L4612585 29231676
" />
<path d="M3945919 28898342
L4612585 28898342
" />
<path d="M4945919 28898342
L4898300 28945961
L4850680 28898342
L4898300 28850723
L4945919 28898342
L4850680 28898342
" />
<path d="M4612585 28517390
L3945919 28279295
L4612585 28041200
" />
<path d="M3993538 27279295
L3945919 27374533
L3945919 27565009
L3993538 27660247
L4088776 27707866
L4469728 27707866
L4564966 27660247
L4612585 27565009
L4612585 27374533
L4564966 27279295
L4469728 27231676
L4374490 27231676
L4279252 27707866
" />
<path d="M3945919 26803104
L4945919 26803104
" />
<path d="M4564966 26803104
L4612585 26707866
L4612585 26517390
L4564966 26422152
L4517347 26374533
L4422109 26326914
L4136395 26326914
L4041157 26374533
L3993538 26422152
L3945919 26517390
L3945919 26707866
L3993538 26803104
" />
<path d="M4612585 25993580
L3945919 25755485
" />
<path d="M4612585 25517390
L3945919 25755485
L3707823 25850723
L3660204 25898342
L3612585 25993580
" />
<path d="M4041157 25136438
L3993538 25088819
L3945919 25136438
L3993538 25184057
L4041157 25136438
L3945919 25136438
" />
<path d="M3993538 24231676
L3945919 24326914
L3945919 24517390
L3993538 24612628
L4041157 24660247
L4136395 24707866
L4422109 24707866
L4517347 24660247
L4564966 24612628
L4612585 24517390
L4612585 24326914
L4564966 24231676
" />
<path d="M3945919 23660247
L3993538 23755485
L4041157 23803104
L4136395 23850723
L4422109 23850723
L4517347 23803104
L4564966 23755485
L4612585 23660247
L4612585 23517390
L4564966 23422152
L4517347 23374533
L4422109 23326914
L4136395 23326914
L4041157 23374533
L3993538 23422152
L3945919 23517390
L3945919 23660247
" />
<path d="M3945919 22898342
L4612585 22898342
" />
<path d="M4517347 22898342
L4564966 22850723
L4612585 22755485
L4612585 22612628
L4564966 22517390
L4469728 22469771
L3945919 22469771
" />
<path d="M4469728 22469771
L4564966 22422152
L4612585 22326914
L4612585 22184057
L4564966 22088819
L4469728 22041200
L3945919 22041200
" />
</g><text x="39453500.000000" y="38354400.000000"
transform="scale(-1 1) translate(-78907000.000000 0)"
textLength="6566905.000000" font-size="1333333.000000" lengthAdjust="spacingAndGlyphs"
text-anchor="middle" opacity="0">GPS GND</text>
<g class="stroked-text"><desc>GPS GND</desc>
<path d="M42072547 37354400
L42167785 37306780
L42310642 37306780
L42453500 37354400
L42548738 37449638
L42596357 37544876
L42643976 37735352
L42643976 37878209
L42596357 38068685
L42548738 38163923
L42453500 38259161
L42310642 38306780
L42215404 38306780
L42072547 38259161
L42024928 38211542
L42024928 37878209
L42215404 37878209
" />
<path d="M41596357 38306780
L41596357 37306780
L41215404 37306780
L41120166 37354400
L41072547 37402019
L41024928 37497257
L41024928 37640114
L41072547 37735352
L41120166 37782971
L41215404 37830590
L41596357 37830590
" />
<path d="M40643976 38259161
L40501119 38306780
L40263023 38306780
L40167785 38259161
L40120166 38211542
L40072547 38116304
L40072547 38021066
L40120166 37925828
L40167785 37878209
L40263023 37830590
L40453500 37782971
L40548738 37735352
L40596357 37687733
L40643976 37592495
L40643976 37497257
L40596357 37402019
L40548738 37354400
L40453500 37306780
L40215404 37306780
L40072547 37354400
" />
<path d="M38358261 37354400
L38453500 37306780
L38596357 37306780
L38739214 37354400
L38834452 37449638
L38882071 37544876
L38929690 37735352
L38929690 37878209
L38882071 38068685
L38834452 38163923
L38739214 38259161
L38596357 38306780
L38501119 38306780
L38358261 38259161
L38310642 38211542
L38310642 37878209
L38501119 37878209
" />
<path d="M37882071 38306780
L37882071 37306780
L37310642 38306780
L37310642 37306780
" />
<path d="M36834452 38306780
L36834452 37306780
L36596357 37306780
L36453500 37354400
L36358261 37449638
L36310642 37544876
L36263023 37735352
L36263023 37878209
L36310642 38068685
L36358261 38163923
L36453500 38259161
L36596357 38306780
L36834452 38306780
" />
</g></g>
<g style="fill:#E8B2A7; fill-opacity:0.0; 
stroke:#E8B2A7; stroke-width:120000.000000; stroke-opacity:1; 
stroke-linecap:round; stroke-linejoin:round;">
<path d="M51255800 34741200
L53255800 34741200
" />
<path d="M53255800 34741200
L53255800 30641200
" />
<path d="M53255800 30641200
L51255800 30641200
" />
<path d="M51255800 30641200
L51255800 34741200
" />
<path d="M56405800 34741200
L56405800 30641200
" />
<path d="M56405800 30641200
L54405800 30641200
" />
<path d="M54405800 34741200
L56405800 34741200
" />
<path d="M54405800 30641200
L54405800 34741200
" />
<path d="M47928500 36804400
L43828500 36804400
" />
<path d="M47928500 38804400
L47928500 36804400
" />
<path d="M43828500 38804400
L47928500 38804400
" />
<path d="M43828500 36804400
L43828500 38804400
" />
<path d="M44557700 38820400
L44557700 39277600
" />
<path d="M44557700 39277600
L45065700 39277600
" />
<path d="M45065700 39277600
L44100500 39277600
" />
<path d="M44964100 39531600
L44252900 39531600
" />
<path d="M44862500 39785600
L44405300 39785600
" />
<path d="M69703500 17354400
L67703500 17354400
" />
<path d="M69703500 20154400
L69703500 17354400
" />
<path d="M67703500 20154400
L69703500 20154400
" />
<path d="M67703500 17354400
L67703500 20154400
" />
<g >
</g>
<g >
</g>
<g >
</g>
<g >
</g>
<g >
</g>
<g >
</g>
<g >
</g>
<g >
</g>
<g >
</g>
<g >
</g>
<g >
</g>
<g >
</g>
<g >
</g>
<g >
</g>
<g >
</g>
<g >
</g>
<g >
</g>
<g >
</g>
<g >
</g>
<g >
</g>
<g >
</g>
<g >
</g>
<g >
</g>
<g >
</g>
<g >
</g>
<g >
</g>
<g >
</g>
</g>
<g style="fill:#000000; fill-opacity:0.0; 
stroke:#000000; stroke-width:120000.000000; stroke-opacity:1; 
stroke-linecap:round; stroke-linejoin:round;">
</g>
<g style="fill:#D0D2CD; fill-opacity:0.0; 
stroke:#D0D2CD; stroke-width:120000.000000; stroke-opacity:1; 
stroke-linecap:round; stroke-linejoin:round;">
</g>
<g style="fill:#D0D2CD; fill-opacity:0.0; 
stroke:#D0D2CD; stroke-width:349999.000000; stroke-opacity:1; 
stroke-linecap:round; stroke-linejoin:round;">
<path d="M3843898 705235
L3968029 626784
" />
</g>
<g style="fill:#D0D2CD; fill-opacity:1.0; 
stroke:#D0D2CD; stroke-width:1.000000; stroke-opacity:1; 
stroke-linecap:round; stroke-linejoin:round;">
<circle cx="75508287.000000" cy="40201202.000000" r="174999.500000" /> 
</g>
<g style="fill:#D0D2CD; fill-opacity:1.0; 
stroke:#D0D2CD; stroke-width:349999.000000; stroke-opacity:1; 
stroke-linecap:round; stroke-linejoin:round;">
</g>
<g style="fill:#D0D2CD; fill-opacity:0.0; 
stroke:#D0D2CD; stroke-width:349999.000000; stroke-opacity:1; 
stroke-linecap:round; stroke-linejoin:round;">
<path d="M76239541 291677
L76380796 330876
" />
<path d="M77919616 38986018
L77828895 39102474
" />
<path d="M4777047 40110725
L4635793 40071527
" />
<path d="M2511985 3052439
L2522978 2904687
" />
<path d="M78154868 1788528
L78220642 1919350
" />
<path d="M78450110 37789205
L78417810 37932452
" />
</g>
<g style="fill:#D0D2CD; fill-opacity:1.0; 
stroke:#D0D2CD; stroke-width:1.000000; stroke-opacity:1; 
stroke-linecap:round; stroke-linejoin:round;">
<circle cx="5508298.000000" cy="201200.000000" r="174999.500000" /> 
</g>
<g style="fill:#D0D2CD; fill-opacity:1.0; 
stroke:#D0D2CD; stroke-width:349999.000000; stroke-opacity:1; 
stroke-linecap:round; stroke-linejoin:round;">
</g>
<g style="fill:#D0D2CD; fill-opacity:0.0; 
stroke:#D0D2CD; stroke-width:349999.000000; stroke-opacity:1; 
stroke-linecap:round; stroke-linejoin:round;">
<path d="M3096972 38986018
L3012334 38865601
" />
<path d="M77172692 705235
L77293108 789873
" />
<path d="M2541175 37644210
L2522978 37497714
" />
<path d="M76519811 40025531
L76380796 40071527
" />
<path d="M75657049 40197515
L75508287 40201202
" />
<path d="M4360249 39972841
L4226450 39913557
" />
<path d="M78004253 1536798
L78082704 1660929
" />
<path d="M3187693 39102474
L3096972 38986018
" />
<path d="M75951298 234077
L76096294 259377
" />
</g>
<g style="fill:#D0D2CD; fill-opacity:1.0; 
stroke:#D0D2CD; stroke-width:1.000000; stroke-opacity:1; 
stroke-linecap:round; stroke-linejoin:round;">
<circle cx="77629610.000000" cy="1079880.000000" r="174999.500000" /> 
</g>
<g style="fill:#D0D2CD; fill-opacity:1.0; 
stroke:#D0D2CD; stroke-width:349999.000000; stroke-opacity:1; 
stroke-linecap:round; stroke-linejoin:round;">
</g>
<g style="fill:#D0D2CD; fill-opacity:0.0; 
stroke:#D0D2CD; stroke-width:349999.000000; stroke-opacity:1; 
stroke-linecap:round; stroke-linejoin:round;">
<path d="M76656341 429562
L76790140 488845
" />
<path d="M77732192 1187677
L77828895 1299926
" />
<path d="M3386979 39322521
L3284396 39214723
" />
<path d="M2508298 3201200
L2511985 3052439
" />
<path d="M77409563 39521808
L77293108 39612529
" />
</g>
<g style="fill:#D0D2CD; fill-opacity:1.0; 
stroke:#D0D2CD; stroke-width:1.000000; stroke-opacity:1; 
stroke-linecap:round; stroke-linejoin:round;">
<circle cx="77629610.000000" cy="39322521.000000" r="174999.500000" /> 
</g>
<g style="fill:#D0D2CD; fill-opacity:1.0; 
stroke:#D0D2CD; stroke-width:349999.000000; stroke-opacity:1; 
stroke-linecap:round; stroke-linejoin:round;">
</g>
<g style="fill:#D0D2CD; fill-opacity:0.0; 
stroke:#D0D2CD; stroke-width:349999.000000; stroke-opacity:1; 
stroke-linecap:round; stroke-linejoin:round;">
<path d="M78475410 37644210
L78450110 37789205
" />
<path d="M75508287 201200
L75657049 204887
" />
<path d="M5065289 234077
L5211785 215880
" />
<path d="M2541175 2758190
L2566475 2613196
" />
<path d="M2508298 37201202
L2508298 3201200
" />
<path d="M4920294 40143025
L4777047 40110725
" />
<path d="M75804802 40186522
L75657049 40197515
" />
</g>
<g style="fill:#D0D2CD; fill-opacity:1.0; 
stroke:#D0D2CD; stroke-width:1.000000; stroke-opacity:1; 
stroke-linecap:round; stroke-linejoin:round;">
<circle cx="3386979.000000" cy="39322521.000000" r="174999.500000" /> 
</g>
<g style="fill:#D0D2CD; fill-opacity:1.0; 
stroke:#D0D2CD; stroke-width:349999.000000; stroke-opacity:1; 
stroke-linecap:round; stroke-linejoin:round;">
</g>
<g style="fill:#D0D2CD; fill-opacity:0.0; 
stroke:#D0D2CD; stroke-width:349999.000000; stroke-opacity:1; 
stroke-linecap:round; stroke-linejoin:round;">
<path d="M2683969 2189679
L2736660 2053149
" />
<path d="M78378611 38073705
L78332616 38212720
" />
<path d="M78493607 37497714
L78475410 37644210
" />
<path d="M78332616 2189679
L78378611 2328694
" />
<path d="M77048561 626784
L77172692 705235
" />
<path d="M76380796 40071527
L76239541 40110725
" />
<path d="M2861718 38613871
L2795943 38483049
" />
<path d="M2522978 2904687
L2541175 2758190
" />
<path d="M3386979 1079880
L3494777 977296
" />
<path d="M78332616 38212720
L78279926 38349250
" />
<path d="M78450110 2613196
L78475410 2758190
" />
<path d="M77521813 39425104
L77409563 39521808
" />
<path d="M77828895 1299926
L77919616 1416382
" />
<path d="M78279926 38349250
L78220642 38483049
" />
<path d="M77521813 977296
L77629610 1079880
" />
<path d="M3723482 789873
L3843898 705235
" />
<path d="M4226450 488845
L4360249 429562
" />
<path d="M2933882 38741470
L2861718 38613871
" />
<path d="M3012334 1536798
L3096972 1416382
" />
<path d="M78508287 37201202
L78504600 37349963
" />
<path d="M78082704 38741470
L78004253 38865601
" />
<path d="M77293108 39612529
L77172692 39697166
" />
<path d="M2637974 38073705
L2598775 37932452
" />
<path d="M76519811 376871
L76656341 429562
" />
<path d="M76920962 39847782
L76790140 39913557
" />
<path d="M4360249 429562
L4496778 376871
" />
<path d="M78417810 2469948
L78450110 2613196
" />
</g>
<g style="fill:#D0D2CD; fill-opacity:1.0; 
stroke:#D0D2CD; stroke-width:1.000000; stroke-opacity:1; 
stroke-linecap:round; stroke-linejoin:round;">
<circle cx="5508298.000000" cy="40201202.000000" r="174999.500000" /> 
</g>
<g style="fill:#D0D2CD; fill-opacity:1.0; 
stroke:#D0D2CD; stroke-width:349999.000000; stroke-opacity:1; 
stroke-linecap:round; stroke-linejoin:round;">
</g>
<g style="fill:#D0D2CD; fill-opacity:0.0; 
stroke:#D0D2CD; stroke-width:349999.000000; stroke-opacity:1; 
stroke-linecap:round; stroke-linejoin:round;">
<path d="M2637974 2328694
L2683969 2189679
" />
<path d="M5359537 204887
L5508298 201200
" />
<path d="M2598775 37932452
L2566475 37789205
" />
<path d="M3843898 39697166
L3723482 39612529
" />
<path d="M77409563 880594
L77521813 977296
" />
<path d="M76656341 39972841
L76519811 40025531
" />
<path d="M75951298 40168325
L75804802 40186522
" />
<path d="M76096294 40143025
L75951298 40168325
" />
<path d="M3968029 39775618
L3843898 39697166
" />
<path d="M78004253 38865601
L77919616 38986018
" />
<path d="M78378611 2328694
L78417810 2469948
" />
<path d="M2566475 2613196
L2598775 2469948
" />
<path d="M4226450 39913557
L4095628 39847782
" />
<path d="M4635793 40071527
L4496778 40025531
" />
<path d="M2795943 38483049
L2736660 38349250
" />
<path d="M4095628 554620
L4226450 488845
" />
<path d="M3187693 1299926
L3284396 1187677
" />
</g>
<g style="fill:#D0D2CD; fill-opacity:1.0; 
stroke:#D0D2CD; stroke-width:1.000000; stroke-opacity:1; 
stroke-linecap:round; stroke-linejoin:round;">
<circle cx="78508287.000000" cy="3201200.000000" r="174999.500000" /> 
</g>
<g style="fill:#D0D2CD; fill-opacity:1.0; 
stroke:#D0D2CD; stroke-width:349999.000000; stroke-opacity:1; 
stroke-linecap:round; stroke-linejoin:round;">
</g>
<g style="fill:#D0D2CD; fill-opacity:0.0; 
stroke:#D0D2CD; stroke-width:349999.000000; stroke-opacity:1; 
stroke-linecap:round; stroke-linejoin:round;">
<path d="M77828895 39102474
L77732192 39214723
" />
<path d="M4635793 330876
L4777047 291677
" />
<path d="M2933882 1660929
L3012334 1536798
" />
<path d="M3607026 880594
L3723482 789873
" />
<path d="M4920294 259377
L5065289 234077
" />
<path d="M76239541 40110725
L76096294 40143025
" />
<path d="M2683969 38212720
L2637974 38073705
" />
<path d="M2861718 1788528
L2933882 1660929
" />
<path d="M2795943 1919350
L2861718 1788528
" />
<path d="M75508287 40201202
L5508298 40201202
" />
<path d="M75657049 204887
L75804802 215880
" />
<path d="M4496778 40025531
L4360249 39972841
" />
<path d="M78154868 38613871
L78082704 38741470
" />
<path d="M2736660 2053149
L2795943 1919350
" />
<path d="M3607026 39521808
L3494777 39425104
" />
<path d="M78417810 37932452
L78378611 38073705
" />
</g>
<g style="fill:#D0D2CD; fill-opacity:1.0; 
stroke:#D0D2CD; stroke-width:1.000000; stroke-opacity:1; 
stroke-linecap:round; stroke-linejoin:round;">
<circle cx="75508287.000000" cy="201200.000000" r="174999.500000" /> 
</g>
<g style="fill:#D0D2CD; fill-opacity:1.0; 
stroke:#D0D2CD; stroke-width:349999.000000; stroke-opacity:1; 
stroke-linecap:round; stroke-linejoin:round;">
</g>
<g style="fill:#D0D2CD; fill-opacity:0.0; 
stroke:#D0D2CD; stroke-width:349999.000000; stroke-opacity:1; 
stroke-linecap:round; stroke-linejoin:round;">
<path d="M4496778 376871
L4635793 330876
" />
<path d="M77172692 39697166
L77048561 39775618
" />
<path d="M76380796 330876
L76519811 376871
" />
<path d="M3968029 626784
L4095628 554620
" />
<path d="M2736660 38349250
L2683969 38212720
" />
<path d="M4095628 39847782
L3968029 39775618
" />
</g>
<g style="fill:#D0D2CD; fill-opacity:1.0; 
stroke:#D0D2CD; stroke-width:1.000000; stroke-opacity:1; 
stroke-linecap:round; stroke-linejoin:round;">
<circle cx="78508287.000000" cy="37201202.000000" r="174999.500000" /> 
</g>
<g style="fill:#D0D2CD; fill-opacity:1.0; 
stroke:#D0D2CD; stroke-width:349999.000000; stroke-opacity:1; 
stroke-linecap:round; stroke-linejoin:round;">
</g>
<g style="fill:#D0D2CD; fill-opacity:0.0; 
stroke:#D0D2CD; stroke-width:349999.000000; stroke-opacity:1; 
stroke-linecap:round; stroke-linejoin:round;">
<path d="M3284396 1187677
L3386979 1079880
" />
<path d="M5065289 40168325
L4920294 40143025
" />
<path d="M5211785 215880
L5359537 204887
" />
<path d="M78493607 2904687
L78504600 3052439
" />
<path d="M77732192 39214723
L77629610 39322521
" />
<path d="M77919616 1416382
L78004253 1536798
" />
<path d="M78082704 1660929
L78154868 1788528
" />
<path d="M2522978 37497714
L2511985 37349963
" />
<path d="M5359537 40197515
L5211785 40186522
" />
<path d="M3494777 977296
L3607026 880594
" />
<path d="M3096972 1416382
L3187693 1299926
" />
<path d="M2511985 37349963
L2508298 37201202
" />
<path d="M3494777 39425104
L3386979 39322521
" />
</g>
<g style="fill:#D0D2CD; fill-opacity:1.0; 
stroke:#D0D2CD; stroke-width:1.000000; stroke-opacity:1; 
stroke-linecap:round; stroke-linejoin:round;">
<circle cx="3386979.000000" cy="1079880.000000" r="174999.500000" /> 
</g>
<g style="fill:#D0D2CD; fill-opacity:1.0; 
stroke:#D0D2CD; stroke-width:349999.000000; stroke-opacity:1; 
stroke-linecap:round; stroke-linejoin:round;">
</g>
<g style="fill:#D0D2CD; fill-opacity:0.0; 
stroke:#D0D2CD; stroke-width:349999.000000; stroke-opacity:1; 
stroke-linecap:round; stroke-linejoin:round;">
<path d="M75804802 215880
L75951298 234077
" />
<path d="M3012334 38865601
L2933882 38741470
" />
<path d="M78279926 2053149
L78332616 2189679
" />
</g>
<g style="fill:#D0D2CD; fill-opacity:1.0; 
stroke:#D0D2CD; stroke-width:1.000000; stroke-opacity:1; 
stroke-linecap:round; stroke-linejoin:round;">
<circle cx="2508298.000000" cy="3201200.000000" r="174999.500000" /> 
</g>
<g style="fill:#D0D2CD; fill-opacity:1.0; 
stroke:#D0D2CD; stroke-width:349999.000000; stroke-opacity:1; 
stroke-linecap:round; stroke-linejoin:round;">
</g>
<g style="fill:#D0D2CD; fill-opacity:0.0; 
stroke:#D0D2CD; stroke-width:349999.000000; stroke-opacity:1; 
stroke-linecap:round; stroke-linejoin:round;">
<path d="M5508298 40201202
L5359537 40197515
" />
<path d="M2598775 2469948
L2637974 2328694
" />
<path d="M3284396 39214723
L3187693 39102474
" />
<path d="M78220642 1919350
L78279926 2053149
" />
<path d="M77629610 39322521
L77521813 39425104
" />
<path d="M77629610 1079880
L77732192 1187677
" />
<path d="M3723482 39612529
L3607026 39521808
" />
<path d="M78504600 3052439
L78508287 3201200
" />
<path d="M76790140 488845
L76920962 554620
" />
<path d="M76920962 554620
L77048561 626784
" />
<path d="M76096294 259377
L76239541 291677
" />
<path d="M78508287 3201200
L78508287 37201202
" />
<path d="M78220642 38483049
L78154868 38613871
" />
<path d="M78475410 2758190
L78493607 2904687
" />
<path d="M4777047 291677
L4920294 259377
" />
<path d="M77048561 39775618
L76920962 39847782
" />
<path d="M77293108 789873
L77409563 880594
" />
<path d="M78504600 37349963
L78493607 37497714
" />
<path d="M2566475 37789205
L2541175 37644210
" />
<path d="M76790140 39913557
L76656341 39972841
" />
<path d="M5508298 201200
L75508287 201200
" />
<path d="M5211785 40186522
L5065289 40168325
" />
<g >
</g>
<g >
</g>
<g >
</g>
<g >
</g>
<g >
</g>
<g >
</g>
<g >
</g>
<g >
</g>
<g >
</g>
<g >
</g>
<g >
</g>
<g >
</g>
<g >
</g>
<g >
</g>
<g >
</g>
<g >
</g>
<g >
</g>
<g >
</g>
<g >
</g>
<g >
</g>
<g >
</g>
<g >
</g>
<g >
</g>
<g >
</g>
<g >
</g>
<g >
</g>
<g >
</g>
</g> 
</svg>
