<?xml version="1.0" standalone="no"?>
 <!DOCTYPE svg PUBLIC "-//W3C//DTD SVG 1.1//EN" 
 "http://www.w3.org/Graphics/SVG/1.1/DTD/svg11.dtd"> 
<svg
  xmlns:svg="http://www.w3.org/2000/svg"
  xmlns="http://www.w3.org/2000/svg"
  xmlns:xlink="http://www.w3.org/1999/xlink"
  version="1.1"
  width="7.874000cm" height="4.038600cm" viewBox="0 0 78740000 40386000">
<title>SVG Picture created as DNS-DriveBy-B_Paste.svg date 2023/06/14 18:15:44 </title>
  <desc>Picture generated by PCBNEW </desc>
<g style="fill:#000000; fill-opacity:1.000000;stroke:#000000; stroke-opacity:1.000000;
stroke-linecap:round; stroke-linejoin:round;"
 transform="translate(0 0) scale(1 1)">
</g>
<g style="fill:#000000; fill-opacity:0.0; 
stroke:#000000; stroke-width:0.000000; stroke-opacity:1; 
stroke-linecap:round; stroke-linejoin:round;">
<g >
</g>
<g >
</g>
<g >
</g>
<g >
</g>
<g >
</g>
<g >
</g>
<g >
</g>
<g >
</g>
<g >
</g>
<g >
</g>
<g >
</g>
<g >
</g>
<g >
</g>
<g >
</g>
<g >
</g>
<g >
</g>
<g >
</g>
<g >
</g>
<g >
</g>
<g >
</g>
<g >
</g>
<g >
</g>
<g >
</g>
<g >
</g>
<g >
</g>
<g >
</g>
<g >
</g>
</g>
<g style="fill:#000000; fill-opacity:0.0; 
stroke:#000000; stroke-width:0.000000; stroke-opacity:1; 
stroke-linecap:round; stroke-linejoin:round;">
</g>
<g style="fill:#D0D2CD; fill-opacity:0.0; 
stroke:#D0D2CD; stroke-width:0.000000; stroke-opacity:1; 
stroke-linecap:round; stroke-linejoin:round;">
</g>
<g style="fill:#D0D2CD; fill-opacity:0.0; 
stroke:#D0D2CD; stroke-width:349999.000000; stroke-opacity:1; 
stroke-linecap:round; stroke-linejoin:round;">
<path d="M3843898 705235
L3968029 626784
" />
</g>
<g style="fill:#D0D2CD; fill-opacity:1.0; 
stroke:#D0D2CD; stroke-width:1.000000; stroke-opacity:1; 
stroke-linecap:round; stroke-linejoin:round;">
<circle cx="75508287.000000" cy="40201202.000000" r="174999.500000" /> 
</g>
<g style="fill:#D0D2CD; fill-opacity:1.0; 
stroke:#D0D2CD; stroke-width:349999.000000; stroke-opacity:1; 
stroke-linecap:round; stroke-linejoin:round;">
</g>
<g style="fill:#D0D2CD; fill-opacity:0.0; 
stroke:#D0D2CD; stroke-width:349999.000000; stroke-opacity:1; 
stroke-linecap:round; stroke-linejoin:round;">
<path d="M76239541 291677
L76380796 330876
" />
<path d="M77919616 38986018
L77828895 39102474
" />
<path d="M4777047 40110725
L4635793 40071527
" />
<path d="M2511985 3052439
L2522978 2904687
" />
<path d="M78154868 1788528
L78220642 1919350
" />
<path d="M78450110 37789205
L78417810 37932452
" />
</g>
<g style="fill:#D0D2CD; fill-opacity:1.0; 
stroke:#D0D2CD; stroke-width:1.000000; stroke-opacity:1; 
stroke-linecap:round; stroke-linejoin:round;">
<circle cx="5508298.000000" cy="201200.000000" r="174999.500000" /> 
</g>
<g style="fill:#D0D2CD; fill-opacity:1.0; 
stroke:#D0D2CD; stroke-width:349999.000000; stroke-opacity:1; 
stroke-linecap:round; stroke-linejoin:round;">
</g>
<g style="fill:#D0D2CD; fill-opacity:0.0; 
stroke:#D0D2CD; stroke-width:349999.000000; stroke-opacity:1; 
stroke-linecap:round; stroke-linejoin:round;">
<path d="M3096972 38986018
L3012334 38865601
" />
<path d="M77172692 705235
L77293108 789873
" />
<path d="M2541175 37644210
L2522978 37497714
" />
<path d="M76519811 40025531
L76380796 40071527
" />
<path d="M75657049 40197515
L75508287 40201202
" />
<path d="M4360249 39972841
L4226450 39913557
" />
<path d="M78004253 1536798
L78082704 1660929
" />
<path d="M3187693 39102474
L3096972 38986018
" />
<path d="M75951298 234077
L76096294 259377
" />
</g>
<g style="fill:#D0D2CD; fill-opacity:1.0; 
stroke:#D0D2CD; stroke-width:1.000000; stroke-opacity:1; 
stroke-linecap:round; stroke-linejoin:round;">
<circle cx="77629610.000000" cy="1079880.000000" r="174999.500000" /> 
</g>
<g style="fill:#D0D2CD; fill-opacity:1.0; 
stroke:#D0D2CD; stroke-width:349999.000000; stroke-opacity:1; 
stroke-linecap:round; stroke-linejoin:round;">
</g>
<g style="fill:#D0D2CD; fill-opacity:0.0; 
stroke:#D0D2CD; stroke-width:349999.000000; stroke-opacity:1; 
stroke-linecap:round; stroke-linejoin:round;">
<path d="M76656341 429562
L76790140 488845
" />
<path d="M77732192 1187677
L77828895 1299926
" />
<path d="M3386979 39322521
L3284396 39214723
" />
<path d="M2508298 3201200
L2511985 3052439
" />
<path d="M77409563 39521808
L77293108 39612529
" />
</g>
<g style="fill:#D0D2CD; fill-opacity:1.0; 
stroke:#D0D2CD; stroke-width:1.000000; stroke-opacity:1; 
stroke-linecap:round; stroke-linejoin:round;">
<circle cx="77629610.000000" cy="39322521.000000" r="174999.500000" /> 
</g>
<g style="fill:#D0D2CD; fill-opacity:1.0; 
stroke:#D0D2CD; stroke-width:349999.000000; stroke-opacity:1; 
stroke-linecap:round; stroke-linejoin:round;">
</g>
<g style="fill:#D0D2CD; fill-opacity:0.0; 
stroke:#D0D2CD; stroke-width:349999.000000; stroke-opacity:1; 
stroke-linecap:round; stroke-linejoin:round;">
<path d="M78475410 37644210
L78450110 37789205
" />
<path d="M75508287 201200
L75657049 204887
" />
<path d="M5065289 234077
L5211785 215880
" />
<path d="M2541175 2758190
L2566475 2613196
" />
<path d="M2508298 37201202
L2508298 3201200
" />
<path d="M4920294 40143025
L4777047 40110725
" />
<path d="M75804802 40186522
L75657049 40197515
" />
</g>
<g style="fill:#D0D2CD; fill-opacity:1.0; 
stroke:#D0D2CD; stroke-width:1.000000; stroke-opacity:1; 
stroke-linecap:round; stroke-linejoin:round;">
<circle cx="3386979.000000" cy="39322521.000000" r="174999.500000" /> 
</g>
<g style="fill:#D0D2CD; fill-opacity:1.0; 
stroke:#D0D2CD; stroke-width:349999.000000; stroke-opacity:1; 
stroke-linecap:round; stroke-linejoin:round;">
</g>
<g style="fill:#D0D2CD; fill-opacity:0.0; 
stroke:#D0D2CD; stroke-width:349999.000000; stroke-opacity:1; 
stroke-linecap:round; stroke-linejoin:round;">
<path d="M2683969 2189679
L2736660 2053149
" />
<path d="M78378611 38073705
L78332616 38212720
" />
<path d="M78493607 37497714
L78475410 37644210
" />
<path d="M78332616 2189679
L78378611 2328694
" />
<path d="M77048561 626784
L77172692 705235
" />
<path d="M76380796 40071527
L76239541 40110725
" />
<path d="M2861718 38613871
L2795943 38483049
" />
<path d="M2522978 2904687
L2541175 2758190
" />
<path d="M3386979 1079880
L3494777 977296
" />
<path d="M78332616 38212720
L78279926 38349250
" />
<path d="M78450110 2613196
L78475410 2758190
" />
<path d="M77521813 39425104
L77409563 39521808
" />
<path d="M77828895 1299926
L77919616 1416382
" />
<path d="M78279926 38349250
L78220642 38483049
" />
<path d="M77521813 977296
L77629610 1079880
" />
<path d="M3723482 789873
L3843898 705235
" />
<path d="M4226450 488845
L4360249 429562
" />
<path d="M2933882 38741470
L2861718 38613871
" />
<path d="M3012334 1536798
L3096972 1416382
" />
<path d="M78508287 37201202
L78504600 37349963
" />
<path d="M78082704 38741470
L78004253 38865601
" />
<path d="M77293108 39612529
L77172692 39697166
" />
<path d="M2637974 38073705
L2598775 37932452
" />
<path d="M76519811 376871
L76656341 429562
" />
<path d="M76920962 39847782
L76790140 39913557
" />
<path d="M4360249 429562
L4496778 376871
" />
<path d="M78417810 2469948
L78450110 2613196
" />
</g>
<g style="fill:#D0D2CD; fill-opacity:1.0; 
stroke:#D0D2CD; stroke-width:1.000000; stroke-opacity:1; 
stroke-linecap:round; stroke-linejoin:round;">
<circle cx="5508298.000000" cy="40201202.000000" r="174999.500000" /> 
</g>
<g style="fill:#D0D2CD; fill-opacity:1.0; 
stroke:#D0D2CD; stroke-width:349999.000000; stroke-opacity:1; 
stroke-linecap:round; stroke-linejoin:round;">
</g>
<g style="fill:#D0D2CD; fill-opacity:0.0; 
stroke:#D0D2CD; stroke-width:349999.000000; stroke-opacity:1; 
stroke-linecap:round; stroke-linejoin:round;">
<path d="M2637974 2328694
L2683969 2189679
" />
<path d="M5359537 204887
L5508298 201200
" />
<path d="M2598775 37932452
L2566475 37789205
" />
<path d="M3843898 39697166
L3723482 39612529
" />
<path d="M77409563 880594
L77521813 977296
" />
<path d="M76656341 39972841
L76519811 40025531
" />
<path d="M75951298 40168325
L75804802 40186522
" />
<path d="M76096294 40143025
L75951298 40168325
" />
<path d="M3968029 39775618
L3843898 39697166
" />
<path d="M78004253 38865601
L77919616 38986018
" />
<path d="M78378611 2328694
L78417810 2469948
" />
<path d="M2566475 2613196
L2598775 2469948
" />
<path d="M4226450 39913557
L4095628 39847782
" />
<path d="M4635793 40071527
L4496778 40025531
" />
<path d="M2795943 38483049
L2736660 38349250
" />
<path d="M4095628 554620
L4226450 488845
" />
<path d="M3187693 1299926
L3284396 1187677
" />
</g>
<g style="fill:#D0D2CD; fill-opacity:1.0; 
stroke:#D0D2CD; stroke-width:1.000000; stroke-opacity:1; 
stroke-linecap:round; stroke-linejoin:round;">
<circle cx="78508287.000000" cy="3201200.000000" r="174999.500000" /> 
</g>
<g style="fill:#D0D2CD; fill-opacity:1.0; 
stroke:#D0D2CD; stroke-width:349999.000000; stroke-opacity:1; 
stroke-linecap:round; stroke-linejoin:round;">
</g>
<g style="fill:#D0D2CD; fill-opacity:0.0; 
stroke:#D0D2CD; stroke-width:349999.000000; stroke-opacity:1; 
stroke-linecap:round; stroke-linejoin:round;">
<path d="M77828895 39102474
L77732192 39214723
" />
<path d="M4635793 330876
L4777047 291677
" />
<path d="M2933882 1660929
L3012334 1536798
" />
<path d="M3607026 880594
L3723482 789873
" />
<path d="M4920294 259377
L5065289 234077
" />
<path d="M76239541 40110725
L76096294 40143025
" />
<path d="M2683969 38212720
L2637974 38073705
" />
<path d="M2861718 1788528
L2933882 1660929
" />
<path d="M2795943 1919350
L2861718 1788528
" />
<path d="M75508287 40201202
L5508298 40201202
" />
<path d="M75657049 204887
L75804802 215880
" />
<path d="M4496778 40025531
L4360249 39972841
" />
<path d="M78154868 38613871
L78082704 38741470
" />
<path d="M2736660 2053149
L2795943 1919350
" />
<path d="M3607026 39521808
L3494777 39425104
" />
<path d="M78417810 37932452
L78378611 38073705
" />
</g>
<g style="fill:#D0D2CD; fill-opacity:1.0; 
stroke:#D0D2CD; stroke-width:1.000000; stroke-opacity:1; 
stroke-linecap:round; stroke-linejoin:round;">
<circle cx="75508287.000000" cy="201200.000000" r="174999.500000" /> 
</g>
<g style="fill:#D0D2CD; fill-opacity:1.0; 
stroke:#D0D2CD; stroke-width:349999.000000; stroke-opacity:1; 
stroke-linecap:round; stroke-linejoin:round;">
</g>
<g style="fill:#D0D2CD; fill-opacity:0.0; 
stroke:#D0D2CD; stroke-width:349999.000000; stroke-opacity:1; 
stroke-linecap:round; stroke-linejoin:round;">
<path d="M4496778 376871
L4635793 330876
" />
<path d="M77172692 39697166
L77048561 39775618
" />
<path d="M76380796 330876
L76519811 376871
" />
<path d="M3968029 626784
L4095628 554620
" />
<path d="M2736660 38349250
L2683969 38212720
" />
<path d="M4095628 39847782
L3968029 39775618
" />
</g>
<g style="fill:#D0D2CD; fill-opacity:1.0; 
stroke:#D0D2CD; stroke-width:1.000000; stroke-opacity:1; 
stroke-linecap:round; stroke-linejoin:round;">
<circle cx="78508287.000000" cy="37201202.000000" r="174999.500000" /> 
</g>
<g style="fill:#D0D2CD; fill-opacity:1.0; 
stroke:#D0D2CD; stroke-width:349999.000000; stroke-opacity:1; 
stroke-linecap:round; stroke-linejoin:round;">
</g>
<g style="fill:#D0D2CD; fill-opacity:0.0; 
stroke:#D0D2CD; stroke-width:349999.000000; stroke-opacity:1; 
stroke-linecap:round; stroke-linejoin:round;">
<path d="M3284396 1187677
L3386979 1079880
" />
<path d="M5065289 40168325
L4920294 40143025
" />
<path d="M5211785 215880
L5359537 204887
" />
<path d="M78493607 2904687
L78504600 3052439
" />
<path d="M77732192 39214723
L77629610 39322521
" />
<path d="M77919616 1416382
L78004253 1536798
" />
<path d="M78082704 1660929
L78154868 1788528
" />
<path d="M2522978 37497714
L2511985 37349963
" />
<path d="M5359537 40197515
L5211785 40186522
" />
<path d="M3494777 977296
L3607026 880594
" />
<path d="M3096972 1416382
L3187693 1299926
" />
<path d="M2511985 37349963
L2508298 37201202
" />
<path d="M3494777 39425104
L3386979 39322521
" />
</g>
<g style="fill:#D0D2CD; fill-opacity:1.0; 
stroke:#D0D2CD; stroke-width:1.000000; stroke-opacity:1; 
stroke-linecap:round; stroke-linejoin:round;">
<circle cx="3386979.000000" cy="1079880.000000" r="174999.500000" /> 
</g>
<g style="fill:#D0D2CD; fill-opacity:1.0; 
stroke:#D0D2CD; stroke-width:349999.000000; stroke-opacity:1; 
stroke-linecap:round; stroke-linejoin:round;">
</g>
<g style="fill:#D0D2CD; fill-opacity:0.0; 
stroke:#D0D2CD; stroke-width:349999.000000; stroke-opacity:1; 
stroke-linecap:round; stroke-linejoin:round;">
<path d="M75804802 215880
L75951298 234077
" />
<path d="M3012334 38865601
L2933882 38741470
" />
<path d="M78279926 2053149
L78332616 2189679
" />
</g>
<g style="fill:#D0D2CD; fill-opacity:1.0; 
stroke:#D0D2CD; stroke-width:1.000000; stroke-opacity:1; 
stroke-linecap:round; stroke-linejoin:round;">
<circle cx="2508298.000000" cy="3201200.000000" r="174999.500000" /> 
</g>
<g style="fill:#D0D2CD; fill-opacity:1.0; 
stroke:#D0D2CD; stroke-width:349999.000000; stroke-opacity:1; 
stroke-linecap:round; stroke-linejoin:round;">
</g>
<g style="fill:#D0D2CD; fill-opacity:0.0; 
stroke:#D0D2CD; stroke-width:349999.000000; stroke-opacity:1; 
stroke-linecap:round; stroke-linejoin:round;">
<path d="M5508298 40201202
L5359537 40197515
" />
<path d="M2598775 2469948
L2637974 2328694
" />
<path d="M3284396 39214723
L3187693 39102474
" />
<path d="M78220642 1919350
L78279926 2053149
" />
<path d="M77629610 39322521
L77521813 39425104
" />
<path d="M77629610 1079880
L77732192 1187677
" />
<path d="M3723482 39612529
L3607026 39521808
" />
<path d="M78504600 3052439
L78508287 3201200
" />
<path d="M76790140 488845
L76920962 554620
" />
<path d="M76920962 554620
L77048561 626784
" />
<path d="M76096294 259377
L76239541 291677
" />
<path d="M78508287 3201200
L78508287 37201202
" />
<path d="M78220642 38483049
L78154868 38613871
" />
<path d="M78475410 2758190
L78493607 2904687
" />
<path d="M4777047 291677
L4920294 259377
" />
<path d="M77048561 39775618
L76920962 39847782
" />
<path d="M77293108 789873
L77409563 880594
" />
<path d="M78504600 37349963
L78493607 37497714
" />
<path d="M2566475 37789205
L2541175 37644210
" />
<path d="M76790140 39913557
L76656341 39972841
" />
<path d="M5508298 201200
L75508287 201200
" />
<path d="M5211785 40186522
L5065289 40168325
" />
<g >
</g>
<g >
</g>
<g >
</g>
<g >
</g>
<g >
</g>
<g >
</g>
<g >
</g>
<g >
</g>
<g >
</g>
<g >
</g>
<g >
</g>
<g >
</g>
<g >
</g>
<g >
</g>
<g >
</g>
<g >
</g>
<g >
</g>
<g >
</g>
<g >
</g>
<g >
</g>
<g >
</g>
<g >
</g>
<g >
</g>
<g >
</g>
<g >
</g>
<g >
</g>
<g >
</g>
</g> 
</svg>
