<?xml version="1.0" standalone="no"?>
 <!DOCTYPE svg PUBLIC "-//W3C//DTD SVG 1.1//EN" 
 "http://www.w3.org/Graphics/SVG/1.1/DTD/svg11.dtd"> 
<svg
  xmlns:svg="http://www.w3.org/2000/svg"
  xmlns="http://www.w3.org/2000/svg"
  xmlns:xlink="http://www.w3.org/1999/xlink"
  version="1.1"
  width="7.482840cm" height="4.064000cm" viewBox="0 0 74828400 40640000">
<title>SVG Picture created as DNS-DriveBy-F_Silkscreen.svg date 2022/12/16 16:12:59 </title>
  <desc>Picture generated by PCBNEW </desc>
<g style="fill:#000000; fill-opacity:1.000000;stroke:#000000; stroke-opacity:1.000000;
stroke-linecap:round; stroke-linejoin:round;"
 transform="translate(0 0) scale(1 1)">
</g>
<g style="fill:#000000; fill-opacity:0.0; 
stroke:#000000; stroke-width:0.000000; stroke-opacity:1; 
stroke-linecap:round; stroke-linejoin:round;">
</g>
<g style="fill:#F2EDA1; fill-opacity:0.0; 
stroke:#F2EDA1; stroke-width:0.000000; stroke-opacity:1; 
stroke-linecap:round; stroke-linejoin:round;">
</g>
<g style="fill:#F2EDA1; fill-opacity:0.0; 
stroke:#F2EDA1; stroke-width:150000.000000; stroke-opacity:1; 
stroke-linecap:round; stroke-linejoin:round;">
<text x="68961000.000000" y="28143000.000000"
textLength="2671190.000000" font-size="1333333.000000" lengthAdjust="spacingAndGlyphs"
text-anchor="middle" opacity="0">JST</text>
<g class="stroked-text"><desc>JST</desc>
<path d="M68246714 27095380
L68246714 27809666
L68199095 27952523
L68103857 28047761
L67961000 28095380
L67865761 28095380
" />
<path d="M68675285 28047761
L68818142 28095380
L69056238 28095380
L69151476 28047761
L69199095 28000142
L69246714 27904904
L69246714 27809666
L69199095 27714428
L69151476 27666809
L69056238 27619190
L68865761 27571571
L68770523 27523952
L68722904 27476333
L68675285 27381095
L68675285 27285857
L68722904 27190619
L68770523 27143000
L68865761 27095380
L69103857 27095380
L69246714 27143000
" />
<path d="M69532428 27095380
L70103857 27095380
" />
<path d="M69818142 28095380
L69818142 27095380
" />
</g><text x="68961000.000000" y="29753000.000000"
textLength="2575952.000000" font-size="1333333.000000" lengthAdjust="spacingAndGlyphs"
text-anchor="middle" opacity="0">2.0</text>
<g class="stroked-text"><desc>2.0</desc>
<path d="M67961000 28800619
L68008619 28753000
L68103857 28705380
L68341952 28705380
L68437190 28753000
L68484809 28800619
L68532428 28895857
L68532428 28991095
L68484809 29133952
L67913380 29705380
L68532428 29705380
" />
<path d="M68961000 29610142
L69008619 29657761
L68961000 29705380
L68913380 29657761
L68961000 29610142
L68961000 29705380
" />
<path d="M69627666 28705380
L69722904 28705380
L69818142 28753000
L69865761 28800619
L69913380 28895857
L69961000 29086333
L69961000 29324428
L69913380 29514904
L69865761 29610142
L69818142 29657761
L69722904 29705380
L69627666 29705380
L69532428 29657761
L69484809 29610142
L69437190 29514904
L69389571 29324428
L69389571 29086333
L69437190 28895857
L69484809 28800619
L69532428 28753000
L69627666 28705380
" />
</g><text x="68326000.000000" y="7485000.000000"
textLength="2385476.000000" font-size="1333333.000000" lengthAdjust="spacingAndGlyphs"
text-anchor="middle" opacity="0">Off</text>
<g class="stroked-text"><desc>Off</desc>
<path d="M67659333 6437380
L67849809 6437380
L67945047 6485000
L68040285 6580238
L68087904 6770714
L68087904 7104047
L68040285 7294523
L67945047 7389761
L67849809 7437380
L67659333 7437380
L67564095 7389761
L67468857 7294523
L67421238 7104047
L67421238 6770714
L67468857 6580238
L67564095 6485000
L67659333 6437380
" />
<path d="M68373619 6770714
L68754571 6770714
" />
<path d="M68516476 7437380
L68516476 6580238
L68564095 6485000
L68659333 6437380
L68754571 6437380
" />
<path d="M68945047 6770714
L69326000 6770714
" />
<path d="M69087904 7437380
L69087904 6580238
L69135523 6485000
L69230761 6437380
L69326000 6437380
" />
</g><text x="64516000.000000" y="7358000.000000"
textLength="2147381.000000" font-size="1333333.000000" lengthAdjust="spacingAndGlyphs"
text-anchor="middle" opacity="0">On</text>
<g class="stroked-text"><desc>On</desc>
<path d="M63968380 6310380
L64158857 6310380
L64254095 6358000
L64349333 6453238
L64396952 6643714
L64396952 6977047
L64349333 7167523
L64254095 7262761
L64158857 7310380
L63968380 7310380
L63873142 7262761
L63777904 7167523
L63730285 6977047
L63730285 6643714
L63777904 6453238
L63873142 6358000
L63968380 6310380
" />
<path d="M64825523 6643714
L64825523 7310380
" />
<path d="M64825523 6738952
L64873142 6691333
L64968380 6643714
L65111238 6643714
L65206476 6691333
L65254095 6786571
L65254095 7310380
" />
</g></g>
<g style="fill:#F2EDA1; fill-opacity:0.0; 
stroke:#F2EDA1; stroke-width:250000.000000; stroke-opacity:1; 
stroke-linecap:round; stroke-linejoin:round;">
<g transform="rotate(-90.000000 61798200.000000 29438600.000000)">
<text x="61798200.000000" y="29938600.000000"
textLength="1433095.000000" font-size="1333333.000000" lengthAdjust="spacingAndGlyphs"
text-anchor="middle" opacity="0">-</text>
</g>
<g class="stroked-text"><desc>-</desc>
<path d="M61869628 29819552
L61869628 29057647
" />
</g><text x="61849000.000000" y="27855800.000000"
textLength="1563095.000000" font-size="1333333.000000" lengthAdjust="spacingAndGlyphs"
text-anchor="middle" opacity="0">+</text>
<g class="stroked-text"><desc>+</desc>
<path d="M61468047 27427228
L62229952 27427228
" />
<path d="M61849000 27808180
L61849000 27046276
" />
</g></g>
<g style="fill:#F2EDA1; fill-opacity:0.0; 
stroke:#F2EDA1; stroke-width:150000.000000; stroke-opacity:1; 
stroke-linecap:round; stroke-linejoin:round;">
<g transform="rotate(-90.000000 2844800.000000 14478000.000000)">
<text x="2844800.000000" y="14978000.000000"
textLength="6944048.000000" font-size="1333333.000000" lengthAdjust="spacingAndGlyphs"
text-anchor="middle" opacity="0">Vibration</text>
</g>
<g class="stroked-text"><desc>Vibration</desc>
<path d="M2297180 17692285
L3297180 17358952
L2297180 17025619
" />
<path d="M3297180 16692285
L2630514 16692285
" />
<path d="M2297180 16692285
L2344800 16739904
L2392419 16692285
L2344800 16644666
L2297180 16692285
L2392419 16692285
" />
<path d="M3297180 16216095
L2297180 16216095
" />
<path d="M2678133 16216095
L2630514 16120857
L2630514 15930380
L2678133 15835142
L2725752 15787523
L2820990 15739904
L3106704 15739904
L3201942 15787523
L3249561 15835142
L3297180 15930380
L3297180 16120857
L3249561 16216095
" />
<path d="M3297180 15311333
L2630514 15311333
" />
<path d="M2820990 15311333
L2725752 15263714
L2678133 15216095
L2630514 15120857
L2630514 15025619
" />
<path d="M3297180 14263714
L2773371 14263714
L2678133 14311333
L2630514 14406571
L2630514 14597047
L2678133 14692285
" />
<path d="M3249561 14263714
L3297180 14358952
L3297180 14597047
L3249561 14692285
L3154323 14739904
L3059085 14739904
L2963847 14692285
L2916228 14597047
L2916228 14358952
L2868609 14263714
" />
<path d="M2630514 13930380
L2630514 13549428
" />
<path d="M2297180 13787523
L3154323 13787523
L3249561 13739904
L3297180 13644666
L3297180 13549428
" />
<path d="M3297180 13216095
L2630514 13216095
" />
<path d="M2297180 13216095
L2344800 13263714
L2392419 13216095
L2344800 13168476
L2297180 13216095
L2392419 13216095
" />
<path d="M3297180 12597047
L3249561 12692285
L3201942 12739904
L3106704 12787523
L2820990 12787523
L2725752 12739904
L2678133 12692285
L2630514 12597047
L2630514 12454190
L2678133 12358952
L2725752 12311333
L2820990 12263714
L3106704 12263714
L3201942 12311333
L3249561 12358952
L3297180 12454190
L3297180 12597047
" />
<path d="M2630514 11835142
L3297180 11835142
" />
<path d="M2725752 11835142
L2678133 11787523
L2630514 11692285
L2630514 11549428
L2678133 11454190
L2773371 11406571
L3297180 11406571
" />
</g><g transform="rotate(-90.000000 4572000.000000 14478000.000000)">
<text x="4572000.000000" y="14978000.000000"
textLength="5242619.000000" font-size="1333333.000000" lengthAdjust="spacingAndGlyphs"
text-anchor="middle" opacity="0">Sensor</text>
</g>
<g class="stroked-text"><desc>Sensor</desc>
<path d="M4976761 16811333
L5024380 16668476
L5024380 16430380
L4976761 16335142
L4929142 16287523
L4833904 16239904
L4738666 16239904
L4643428 16287523
L4595809 16335142
L4548190 16430380
L4500571 16620857
L4452952 16716095
L4405333 16763714
L4310095 16811333
L4214857 16811333
L4119619 16763714
L4072000 16716095
L4024380 16620857
L4024380 16382761
L4072000 16239904
" />
<path d="M4976761 15430380
L5024380 15525619
L5024380 15716095
L4976761 15811333
L4881523 15858952
L4500571 15858952
L4405333 15811333
L4357714 15716095
L4357714 15525619
L4405333 15430380
L4500571 15382761
L4595809 15382761
L4691047 15858952
" />
<path d="M4357714 14954190
L5024380 14954190
" />
<path d="M4452952 14954190
L4405333 14906571
L4357714 14811333
L4357714 14668476
L4405333 14573238
L4500571 14525619
L5024380 14525619
" />
<path d="M4976761 14097047
L5024380 14001809
L5024380 13811333
L4976761 13716095
L4881523 13668476
L4833904 13668476
L4738666 13716095
L4691047 13811333
L4691047 13954190
L4643428 14049428
L4548190 14097047
L4500571 14097047
L4405333 14049428
L4357714 13954190
L4357714 13811333
L4405333 13716095
" />
<path d="M5024380 13097047
L4976761 13192285
L4929142 13239904
L4833904 13287523
L4548190 13287523
L4452952 13239904
L4405333 13192285
L4357714 13097047
L4357714 12954190
L4405333 12858952
L4452952 12811333
L4548190 12763714
L4833904 12763714
L4929142 12811333
L4976761 12858952
L5024380 12954190
L5024380 13097047
" />
<path d="M5024380 12335142
L4357714 12335142
" />
<path d="M4548190 12335142
L4452952 12287523
L4405333 12239904
L4357714 12144666
L4357714 12049428
" />
</g><text x="48006000.000000" y="21344000.000000"
textLength="10242619.000000" font-size="1333333.000000" lengthAdjust="spacingAndGlyphs"
text-anchor="middle" opacity="0">NEO-6M GPS</text>
<g class="stroked-text"><desc>NEO-6M GPS</desc>
<path d="M43220285 21296380
L43220285 20296380
L43791714 21296380
L43791714 20296380
" />
<path d="M44267904 20772571
L44601238 20772571
" />
<path d="M44744095 21296380
L44267904 21296380
L44267904 20296380
L44744095 20296380
" />
<path d="M45363142 20296380
L45553619 20296380
L45648857 20344000
L45744095 20439238
L45791714 20629714
L45791714 20963047
L45744095 21153523
L45648857 21248761
L45553619 21296380
L45363142 21296380
L45267904 21248761
L45172666 21153523
L45125047 20963047
L45125047 20629714
L45172666 20439238
L45267904 20344000
L45363142 20296380
" />
<path d="M46220285 20915428
L46982190 20915428
" />
<path d="M47886952 20296380
L47696476 20296380
L47601238 20344000
L47553619 20391619
L47458380 20534476
L47410761 20724952
L47410761 21105904
L47458380 21201142
L47506000 21248761
L47601238 21296380
L47791714 21296380
L47886952 21248761
L47934571 21201142
L47982190 21105904
L47982190 20867809
L47934571 20772571
L47886952 20724952
L47791714 20677333
L47601238 20677333
L47506000 20724952
L47458380 20772571
L47410761 20867809
" />
<path d="M48410761 21296380
L48410761 20296380
L48744095 21010666
L49077428 20296380
L49077428 21296380
" />
<path d="M50839333 20344000
L50744095 20296380
L50601238 20296380
L50458380 20344000
L50363142 20439238
L50315523 20534476
L50267904 20724952
L50267904 20867809
L50315523 21058285
L50363142 21153523
L50458380 21248761
L50601238 21296380
L50696476 21296380
L50839333 21248761
L50886952 21201142
L50886952 20867809
L50696476 20867809
" />
<path d="M51315523 21296380
L51315523 20296380
L51696476 20296380
L51791714 20344000
L51839333 20391619
L51886952 20486857
L51886952 20629714
L51839333 20724952
L51791714 20772571
L51696476 20820190
L51315523 20820190
" />
<path d="M52267904 21248761
L52410761 21296380
L52648857 21296380
L52744095 21248761
L52791714 21201142
L52839333 21105904
L52839333 21010666
L52791714 20915428
L52744095 20867809
L52648857 20820190
L52458380 20772571
L52363142 20724952
L52315523 20677333
L52267904 20582095
L52267904 20486857
L52315523 20391619
L52363142 20344000
L52458380 20296380
L52696476 20296380
L52839333 20344000
" />
</g></g>
<g style="fill:#F2EDA1; fill-opacity:0.0; 
stroke:#F2EDA1; stroke-width:100000.000000; stroke-opacity:1; 
stroke-linecap:round; stroke-linejoin:round;">
<text x="44196000.000000" y="37461000.000000"
textLength="1623571.000000" font-size="666666.000000" lengthAdjust="spacingAndGlyphs"
text-anchor="middle" opacity="0">VCC</text>
<g class="stroked-text"><desc>VCC</desc>
<path d="M43529333 36937190
L43696000 37437190
L43862666 36937190
" />
<path d="M44315047 37389571
L44291238 37413380
L44219809 37437190
L44172190 37437190
L44100761 37413380
L44053142 37365761
L44029333 37318142
L44005523 37222904
L44005523 37151476
L44029333 37056238
L44053142 37008619
L44100761 36961000
L44172190 36937190
L44219809 36937190
L44291238 36961000
L44315047 36984809
" />
<path d="M44815047 37389571
L44791238 37413380
L44719809 37437190
L44672190 37437190
L44600761 37413380
L44553142 37365761
L44529333 37318142
L44505523 37222904
L44505523 37151476
L44529333 37056238
L44553142 37008619
L44600761 36961000
L44672190 36937190
L44719809 36937190
L44791238 36961000
L44815047 36984809
" />
</g><text x="49276000.000000" y="37461000.000000"
textLength="987143.000000" font-size="666666.000000" lengthAdjust="spacingAndGlyphs"
text-anchor="middle" opacity="0">TX</text>
<g class="stroked-text"><desc>TX</desc>
<path d="M48895047 36937190
L49180761 36937190
" />
<path d="M49037904 37437190
L49037904 36937190
" />
<path d="M49299809 36937190
L49633142 37437190
" />
<path d="M49633142 36937190
L49299809 37437190
" />
</g><text x="51816000.000000" y="37461000.000000"
textLength="1653810.000000" font-size="666666.000000" lengthAdjust="spacingAndGlyphs"
text-anchor="middle" opacity="0">GND</text>
<g class="stroked-text"><desc>GND</desc>
<path d="M51435047 36961000
L51387428 36937190
L51316000 36937190
L51244571 36961000
L51196952 37008619
L51173142 37056238
L51149333 37151476
L51149333 37222904
L51173142 37318142
L51196952 37365761
L51244571 37413380
L51316000 37437190
L51363619 37437190
L51435047 37413380
L51458857 37389571
L51458857 37222904
L51363619 37222904
" />
<path d="M51673142 37437190
L51673142 36937190
L51958857 37437190
L51958857 36937190
" />
<path d="M52196952 37437190
L52196952 36937190
L52316000 36937190
L52387428 36961000
L52435047 37008619
L52458857 37056238
L52482666 37151476
L52482666 37222904
L52458857 37318142
L52435047 37365761
L52387428 37413380
L52316000 37437190
L52196952 37437190
" />
</g><text x="46736000.000000" y="37461000.000000"
textLength="1106190.000000" font-size="666666.000000" lengthAdjust="spacingAndGlyphs"
text-anchor="middle" opacity="0">RX</text>
<g class="stroked-text"><desc>RX</desc>
<path d="M46652666 37437190
L46486000 37199095
" />
<path d="M46366952 37437190
L46366952 36937190
L46557428 36937190
L46605047 36961000
L46628857 36984809
L46652666 37032428
L46652666 37103857
L46628857 37151476
L46605047 37175285
L46557428 37199095
L46366952 37199095
" />
<path d="M46819333 36937190
L47152666 37437190
" />
<path d="M47152666 36937190
L46819333 37437190
" />
</g></g>
<g style="fill:#F2EDA1; fill-opacity:0.0; 
stroke:#F2EDA1; stroke-width:150000.000000; stroke-opacity:1; 
stroke-linecap:round; stroke-linejoin:round;">
<text x="4064000.000000" y="32885000.000000"
textLength="5225238.000000" font-size="1333333.000000" lengthAdjust="spacingAndGlyphs"
text-anchor="middle" opacity="0">JFET N</text>
<g class="stroked-text"><desc>JFET N</desc>
<path d="M2040190 31837380
L2040190 32551666
L1992571 32694523
L1897333 32789761
L1754476 32837380
L1659238 32837380
" />
<path d="M2849714 32313571
L2516380 32313571
" />
<path d="M2516380 32837380
L2516380 31837380
L2992571 31837380
" />
<path d="M3373523 32313571
L3706857 32313571
" />
<path d="M3849714 32837380
L3373523 32837380
L3373523 31837380
L3849714 31837380
" />
<path d="M4135428 31837380
L4706857 31837380
" />
<path d="M4421142 32837380
L4421142 31837380
" />
<path d="M5802095 32837380
L5802095 31837380
L6373523 32837380
L6373523 31837380
" />
</g><text x="66802000.000000" y="20947000.000000"
textLength="3099762.000000" font-size="1333333.000000" lengthAdjust="spacingAndGlyphs"
text-anchor="middle" opacity="0">27K</text>
<g class="stroked-text"><desc>27K</desc>
<path d="M65540095 19994619
L65587714 19947000
L65682952 19899380
L65921047 19899380
L66016285 19947000
L66063904 19994619
L66111523 20089857
L66111523 20185095
L66063904 20327952
L65492476 20899380
L66111523 20899380
" />
<path d="M66444857 19899380
L67111523 19899380
L66682952 20899380
" />
<path d="M67492476 20899380
L67492476 19899380
" />
<path d="M68063904 20899380
L67635333 20327952
" />
<path d="M68063904 19899380
L67492476 20470809
" />
</g><text x="66802000.000000" y="17518000.000000"
textLength="4052143.000000" font-size="1333333.000000" lengthAdjust="spacingAndGlyphs"
text-anchor="middle" opacity="0">100K</text>
<g class="stroked-text"><desc>100K</desc>
<path d="M65635333 17470380
L65063904 17470380
" />
<path d="M65349619 17470380
L65349619 16470380
L65254380 16613238
L65159142 16708476
L65063904 16756095
" />
<path d="M66254380 16470380
L66349619 16470380
L66444857 16518000
L66492476 16565619
L66540095 16660857
L66587714 16851333
L66587714 17089428
L66540095 17279904
L66492476 17375142
L66444857 17422761
L66349619 17470380
L66254380 17470380
L66159142 17422761
L66111523 17375142
L66063904 17279904
L66016285 17089428
L66016285 16851333
L66063904 16660857
L66111523 16565619
L66159142 16518000
L66254380 16470380
" />
<path d="M67206761 16470380
L67302000 16470380
L67397238 16518000
L67444857 16565619
L67492476 16660857
L67540095 16851333
L67540095 17089428
L67492476 17279904
L67444857 17375142
L67397238 17422761
L67302000 17470380
L67206761 17470380
L67111523 17422761
L67063904 17375142
L67016285 17279904
L66968666 17089428
L66968666 16851333
L67016285 16660857
L67063904 16565619
L67111523 16518000
L67206761 16470380
" />
<path d="M67968666 17470380
L67968666 16470380
" />
<path d="M68540095 17470380
L68111523 16898952
" />
<path d="M68540095 16470380
L67968666 17041809
" />
</g><text x="20701000.000000" y="21455000.000000"
textLength="5909286.000000" font-size="1333333.000000" lengthAdjust="spacingAndGlyphs"
text-anchor="middle" opacity="0">D1 Mini</text>
<g class="stroked-text"><desc>D1 Mini</desc>
<path d="M18081952 21407380
L18081952 20407380
L18320047 20407380
L18462904 20455000
L18558142 20550238
L18605761 20645476
L18653380 20835952
L18653380 20978809
L18605761 21169285
L18558142 21264523
L18462904 21359761
L18320047 21407380
L18081952 21407380
" />
<path d="M19605761 21407380
L19034333 21407380
" />
<path d="M19320047 21407380
L19320047 20407380
L19224809 20550238
L19129571 20645476
L19034333 20693095
" />
<path d="M20796238 21407380
L20796238 20407380
L21129571 21121666
L21462904 20407380
L21462904 21407380
" />
<path d="M21939095 21407380
L21939095 20740714
" />
<path d="M21939095 20407380
L21891476 20455000
L21939095 20502619
L21986714 20455000
L21939095 20407380
L21939095 20502619
" />
<path d="M22415285 20740714
L22415285 21407380
" />
<path d="M22415285 20835952
L22462904 20788333
L22558142 20740714
L22701000 20740714
L22796238 20788333
L22843857 20883571
L22843857 21407380
" />
<path d="M23320047 21407380
L23320047 20740714
" />
<path d="M23320047 20407380
L23272428 20455000
L23320047 20502619
L23367666 20455000
L23320047 20407380
L23320047 20502619
" />
</g></g>
<g style="fill:#F2EDA1; fill-opacity:0.0; 
stroke:#F2EDA1; stroke-width:120000.000000; stroke-opacity:1; 
stroke-linecap:round; stroke-linejoin:round;">
<path d="M1560000 21728000
L6060000 21728000
" />
<path d="M6060000 21728000
L6060000 7228000
" />
<path d="M6060000 7228000
L1560000 7228000
" />
<path d="M1560000 7228000
L1560000 21728000
" />
<path d="M61006000 39844000
L35006000 39844000
" />
<path d="M35006000 39844000
L35006000 3844000
" />
<path d="M35006000 3844000
L61006000 3844000
" />
<path d="M61006000 3844000
L61006000 39844000
" />
<path d="M5893000 29613000
L5893000 26013000
" />
<path d="M2944193.168853 25456600.362107 A2599997.000000 2599997.000000 0.0 0 0 1443000.000000 27813000.000000" />
<path d="M1443000.000001 27813000.000000 A2600002.000000 2600002.000000 0.0 0 0 2944193.097859 30169399.790141" />
<path d="M5165794.929396 30137183.853850 A2581171.000000 2581171.000000 0.0 0 0 5892999.768297 29612999.774560" />
<path d="M5892999.768297 26013000.225440 A2581171.000000 2581171.000000 0.0 0 0 5165794.929396 25488816.146150" />
<path d="M65854000 31488000
L65854000 30208000
" />
<path d="M65854000 25408000
L65854000 26688000
" />
<path d="M64254000 31488000
L65854000 31488000
" />
<path d="M65854000 30208000
L62964000 30208000
" />
<path d="M68504000 32508000
L64254000 32508000
" />
<path d="M64254000 32508000
L64254000 31488000
" />
<path d="M72074000 30788000
L72074000 26108000
" />
<path d="M64254000 25408000
L65854000 25408000
" />
<path d="M64254000 24388000
L64254000 25408000
" />
<path d="M68504000 24388000
L64254000 24388000
" />
<path d="M63532000 21817000
L63532000 21487000
" />
<path d="M70072000 21487000
L70072000 21817000
" />
<path d="M70072000 19407000
L70072000 19077000
" />
<path d="M70072000 19077000
L63532000 19077000
" />
<path d="M70072000 21817000
L63532000 21817000
" />
<path d="M63532000 19077000
L63532000 19407000
" />
<path d="M70072000 18388000
L70072000 18058000
" />
<path d="M63532000 15648000
L70072000 15648000
" />
<path d="M63532000 18388000
L70072000 18388000
" />
<path d="M63532000 18058000
L63532000 18388000
" />
<path d="M63532000 15978000
L63532000 15648000
" />
<path d="M70072000 15648000
L70072000 15978000
" />
<path d="M7517000 32936000
L10057000 32936000
" />
<path d="M33377000 39836000
L33377000 7506000
" />
<path d="M10057000 32936000
L10057000 39836000
" />
<path d="M31257000 5376000
L9647000 5376000
" />
<path d="M10057000 39836000
L33377000 39836000
" />
<path d="M7517000 32936000
L7517000 7506000
" />
<path d="M9647000.000000 5376000.000001 A2130002.000000 2130002.000000 0.0 0 0 7517000.000001 7506000.000000" />
<path d="M33376999.999999 7506000.000000 A2130002.000000 2130002.000000 0.0 0 0 31247000.000000 5376000.000001" />
<path d="M63367500 8314000
L62167500 8314000
" />
<path d="M62167500 12514000
L63367500 12514000
" />
<path d="M71367500 8314000
L71367500 12514000
" />
<path d="M63067500 8014000
L61867500 8014000
" />
<path d="M71367500 12514000
L70167500 12514000
" />
<path d="M62167500 8314000
L62167500 12514000
" />
<path d="M61867500 8014000
L61867500 9214000
" />
<path d="M70167500 8314000
L71367500 8314000
" />
<g >
</g>
<g >
</g>
<g >
</g>
<g >
</g>
<g >
</g>
<g >
</g>
<g >
</g>
<g >
</g>
<g >
</g>
<g >
</g>
<g >
</g>
<g >
</g>
<g >
</g>
<g >
</g>
<g >
</g>
</g>
<g style="fill:#000000; fill-opacity:0.0; 
stroke:#000000; stroke-width:120000.000000; stroke-opacity:1; 
stroke-linecap:round; stroke-linejoin:round;">
</g>
<g style="fill:#D0D2CD; fill-opacity:0.0; 
stroke:#D0D2CD; stroke-width:120000.000000; stroke-opacity:1; 
stroke-linecap:round; stroke-linejoin:round;">
</g>
<g style="fill:#D0D2CD; fill-opacity:0.0; 
stroke:#D0D2CD; stroke-width:349999.000000; stroke-opacity:1; 
stroke-linecap:round; stroke-linejoin:round;">
<path d="M342316 37772882
L338997 37638997
" />
<path d="M352210 37905859
L342316 37772882
" />
<path d="M368587 38037706
L352210 37905859
" />
<path d="M391357 38168201
L368587 38037706
" />
<path d="M420427 38297124
L391357 38168201
" />
<path d="M455706 38424253
L420427 38297124
" />
<path d="M497102 38549366
L455706 38424253
" />
<path d="M544524 38672243
L497102 38549366
" />
<path d="M597879 38792662
L544524 38672243
" />
<path d="M657076 38910401
L597879 38792662
" />
<path d="M722024 39025240
L657076 38910401
" />
<path d="M792631 39136958
L722024 39025240
" />
<path d="M868804 39245332
L792631 39136958
" />
<path d="M950453 39350142
L868804 39245332
" />
<path d="M1037486 39451167
L950453 39350142
" />
<path d="M1129811 39548184
L1037486 39451167
" />
</g>
<g style="fill:#D0D2CD; fill-opacity:1.0; 
stroke:#D0D2CD; stroke-width:1.000000; stroke-opacity:1; 
stroke-linecap:round; stroke-linejoin:round;">
<circle cx="1129811.000000" cy="39548184.000000" r="174999.500000" /> 
</g>
<g style="fill:#D0D2CD; fill-opacity:1.0; 
stroke:#D0D2CD; stroke-width:349999.000000; stroke-opacity:1; 
stroke-linecap:round; stroke-linejoin:round;">
</g>
<g style="fill:#D0D2CD; fill-opacity:0.0; 
stroke:#D0D2CD; stroke-width:349999.000000; stroke-opacity:1; 
stroke-linecap:round; stroke-linejoin:round;">
<path d="M1226828 39640509
L1129811 39548184
" />
<path d="M1327853 39727542
L1226828 39640509
" />
<path d="M1432663 39809191
L1327853 39727542
" />
<path d="M1541038 39885365
L1432663 39809191
" />
<path d="M1652755 39955971
L1541038 39885365
" />
<path d="M1767595 40020920
L1652755 39955971
" />
<path d="M1885335 40080117
L1767595 40020920
" />
<path d="M2005754 40133473
L1885335 40080117
" />
<path d="M2128631 40180895
L2005754 40133473
" />
<path d="M2253745 40222291
L2128631 40180895
" />
<path d="M2380874 40257571
L2253745 40222291
" />
<path d="M2509797 40286641
L2380874 40257571
" />
<path d="M2640292 40309411
L2509797 40286641
" />
<path d="M2772139 40325789
L2640292 40309411
" />
<path d="M2905116 40335683
L2772139 40325789
" />
<path d="M3039002 40339001
L2905116 40335683
" />
</g>
<g style="fill:#D0D2CD; fill-opacity:1.0; 
stroke:#D0D2CD; stroke-width:1.000000; stroke-opacity:1; 
stroke-linecap:round; stroke-linejoin:round;">
<circle cx="3039002.000000" cy="40339001.000000" r="174999.500000" /> 
</g>
<g style="fill:#D0D2CD; fill-opacity:1.0; 
stroke:#D0D2CD; stroke-width:349999.000000; stroke-opacity:1; 
stroke-linecap:round; stroke-linejoin:round;">
</g>
<g style="fill:#D0D2CD; fill-opacity:0.0; 
stroke:#D0D2CD; stroke-width:349999.000000; stroke-opacity:1; 
stroke-linecap:round; stroke-linejoin:round;">
<path d="M69639004 40339001
L3039002 40339001
" />
</g>
<g style="fill:#D0D2CD; fill-opacity:1.0; 
stroke:#D0D2CD; stroke-width:1.000000; stroke-opacity:1; 
stroke-linecap:round; stroke-linejoin:round;">
<circle cx="69639004.000000" cy="40339001.000000" r="174999.500000" /> 
</g>
<g style="fill:#D0D2CD; fill-opacity:1.0; 
stroke:#D0D2CD; stroke-width:349999.000000; stroke-opacity:1; 
stroke-linecap:round; stroke-linejoin:round;">
</g>
<g style="fill:#D0D2CD; fill-opacity:0.0; 
stroke:#D0D2CD; stroke-width:349999.000000; stroke-opacity:1; 
stroke-linecap:round; stroke-linejoin:round;">
<path d="M69772889 40335683
L69639004 40339001
" />
<path d="M69905865 40325789
L69772889 40335683
" />
<path d="M70037711 40309412
L69905865 40325789
" />
<path d="M70168206 40286642
L70037711 40309412
" />
<path d="M70297128 40257572
L70168206 40286642
" />
<path d="M70424257 40222293
L70297128 40257572
" />
<path d="M70549370 40180896
L70424257 40222293
" />
<path d="M70672247 40133475
L70549370 40180896
" />
<path d="M70792667 40080120
L70672247 40133475
" />
<path d="M70910407 40020922
L70792667 40080120
" />
<path d="M71025246 39955974
L70910407 40020922
" />
<path d="M71136964 39885368
L71025246 39955974
" />
<path d="M71245339 39809194
L71136964 39885368
" />
<path d="M71350149 39727545
L71245339 39809194
" />
<path d="M71451174 39640513
L71350149 39727545
" />
<path d="M71548192 39548188
L71451174 39640513
" />
</g>
<g style="fill:#D0D2CD; fill-opacity:1.0; 
stroke:#D0D2CD; stroke-width:1.000000; stroke-opacity:1; 
stroke-linecap:round; stroke-linejoin:round;">
<circle cx="71548192.000000" cy="39548188.000000" r="174999.500000" /> 
</g>
<g style="fill:#D0D2CD; fill-opacity:1.0; 
stroke:#D0D2CD; stroke-width:349999.000000; stroke-opacity:1; 
stroke-linecap:round; stroke-linejoin:round;">
</g>
<g style="fill:#D0D2CD; fill-opacity:0.0; 
stroke:#D0D2CD; stroke-width:349999.000000; stroke-opacity:1; 
stroke-linecap:round; stroke-linejoin:round;">
<path d="M71640516 39451170
L71548192 39548188
" />
<path d="M71727549 39350146
L71640516 39451170
" />
<path d="M71809198 39245336
L71727549 39350146
" />
<path d="M71885371 39136961
L71809198 39245336
" />
<path d="M71955977 39025243
L71885371 39136961
" />
<path d="M72020925 38910404
L71955977 39025243
" />
<path d="M72080122 38792664
L72020925 38910404
" />
<path d="M72133477 38672245
L72080122 38792664
" />
<path d="M72180898 38549368
L72133477 38672245
" />
<path d="M72222294 38424254
L72180898 38549368
" />
<path d="M72257572 38297125
L72222294 38424254
" />
<path d="M72286642 38168202
L72257572 38297125
" />
<path d="M72309412 38037706
L72286642 38168202
" />
<path d="M72325789 37905859
L72309412 38037706
" />
<path d="M72335683 37772882
L72325789 37905859
" />
<path d="M72339001 37638997
L72335683 37772882
" />
</g>
<g style="fill:#D0D2CD; fill-opacity:1.0; 
stroke:#D0D2CD; stroke-width:1.000000; stroke-opacity:1; 
stroke-linecap:round; stroke-linejoin:round;">
<circle cx="72339001.000000" cy="37638997.000000" r="174999.500000" /> 
</g>
<g style="fill:#D0D2CD; fill-opacity:1.0; 
stroke:#D0D2CD; stroke-width:349999.000000; stroke-opacity:1; 
stroke-linecap:round; stroke-linejoin:round;">
</g>
<g style="fill:#D0D2CD; fill-opacity:0.0; 
stroke:#D0D2CD; stroke-width:349999.000000; stroke-opacity:1; 
stroke-linecap:round; stroke-linejoin:round;">
<path d="M72339001 3039000
L72339001 37638997
" />
</g>
<g style="fill:#D0D2CD; fill-opacity:1.0; 
stroke:#D0D2CD; stroke-width:1.000000; stroke-opacity:1; 
stroke-linecap:round; stroke-linejoin:round;">
<circle cx="72339001.000000" cy="3039000.000000" r="174999.500000" /> 
</g>
<g style="fill:#D0D2CD; fill-opacity:1.0; 
stroke:#D0D2CD; stroke-width:349999.000000; stroke-opacity:1; 
stroke-linecap:round; stroke-linejoin:round;">
</g>
<g style="fill:#D0D2CD; fill-opacity:0.0; 
stroke:#D0D2CD; stroke-width:349999.000000; stroke-opacity:1; 
stroke-linecap:round; stroke-linejoin:round;">
<path d="M72335683 2905115
L72339001 3039000
" />
<path d="M72325789 2772138
L72335683 2905115
" />
<path d="M72309412 2640291
L72325789 2772138
" />
<path d="M72286642 2509796
L72309412 2640291
" />
<path d="M72257572 2380874
L72286642 2509796
" />
<path d="M72222294 2253745
L72257572 2380874
" />
<path d="M72180898 2128632
L72222294 2253745
" />
<path d="M72133477 2005755
L72180898 2128632
" />
<path d="M72080122 1885336
L72133477 2005755
" />
<path d="M72020925 1767596
L72080122 1885336
" />
<path d="M71955977 1652757
L72020925 1767596
" />
<path d="M71885371 1541039
L71955977 1652757
" />
<path d="M71809198 1432665
L71885371 1541039
" />
<path d="M71727549 1327855
L71809198 1432665
" />
<path d="M71640516 1226830
L71727549 1327855
" />
<path d="M71548192 1129813
L71640516 1226830
" />
</g>
<g style="fill:#D0D2CD; fill-opacity:1.0; 
stroke:#D0D2CD; stroke-width:1.000000; stroke-opacity:1; 
stroke-linecap:round; stroke-linejoin:round;">
<circle cx="71548192.000000" cy="1129813.000000" r="174999.500000" /> 
</g>
<g style="fill:#D0D2CD; fill-opacity:1.0; 
stroke:#D0D2CD; stroke-width:349999.000000; stroke-opacity:1; 
stroke-linecap:round; stroke-linejoin:round;">
</g>
<g style="fill:#D0D2CD; fill-opacity:0.0; 
stroke:#D0D2CD; stroke-width:349999.000000; stroke-opacity:1; 
stroke-linecap:round; stroke-linejoin:round;">
<path d="M71451174 1037488
L71548192 1129813
" />
<path d="M71350149 950455
L71451174 1037488
" />
<path d="M71245339 868806
L71350149 950455
" />
<path d="M71136964 792633
L71245339 868806
" />
<path d="M71025246 722026
L71136964 792633
" />
<path d="M70910407 657078
L71025246 722026
" />
<path d="M70792667 597881
L70910407 657078
" />
<path d="M70672247 544526
L70792667 597881
" />
<path d="M70549370 497104
L70672247 544526
" />
<path d="M70424257 455708
L70549370 497104
" />
<path d="M70297128 420429
L70424257 455708
" />
<path d="M70168206 391359
L70297128 420429
" />
<path d="M70037711 368589
L70168206 391359
" />
<path d="M69905865 352211
L70037711 368589
" />
<path d="M69772889 342318
L69905865 352211
" />
<path d="M69639004 338999
L69772889 342318
" />
</g>
<g style="fill:#D0D2CD; fill-opacity:1.0; 
stroke:#D0D2CD; stroke-width:1.000000; stroke-opacity:1; 
stroke-linecap:round; stroke-linejoin:round;">
<circle cx="69639004.000000" cy="338999.000000" r="174999.500000" /> 
</g>
<g style="fill:#D0D2CD; fill-opacity:1.0; 
stroke:#D0D2CD; stroke-width:349999.000000; stroke-opacity:1; 
stroke-linecap:round; stroke-linejoin:round;">
</g>
<g style="fill:#D0D2CD; fill-opacity:0.0; 
stroke:#D0D2CD; stroke-width:349999.000000; stroke-opacity:1; 
stroke-linecap:round; stroke-linejoin:round;">
<path d="M3038998 338999
L69639004 338999
" />
</g>
<g style="fill:#D0D2CD; fill-opacity:1.0; 
stroke:#D0D2CD; stroke-width:1.000000; stroke-opacity:1; 
stroke-linecap:round; stroke-linejoin:round;">
<circle cx="3038998.000000" cy="338999.000000" r="174999.500000" /> 
</g>
<g style="fill:#D0D2CD; fill-opacity:1.0; 
stroke:#D0D2CD; stroke-width:349999.000000; stroke-opacity:1; 
stroke-linecap:round; stroke-linejoin:round;">
</g>
<g style="fill:#D0D2CD; fill-opacity:0.0; 
stroke:#D0D2CD; stroke-width:349999.000000; stroke-opacity:1; 
stroke-linecap:round; stroke-linejoin:round;">
<path d="M2905113 342318
L3038998 338999
" />
<path d="M2772137 352211
L2905113 342318
" />
<path d="M2640290 368589
L2772137 352211
" />
<path d="M2509795 391358
L2640290 368589
" />
<path d="M2380873 420429
L2509795 391358
" />
<path d="M2253744 455707
L2380873 420429
" />
<path d="M2128630 497103
L2253744 455707
" />
<path d="M2005754 544525
L2128630 497103
" />
<path d="M1885335 597880
L2005754 544525
" />
<path d="M1767595 657077
L1885335 597880
" />
<path d="M1652755 722025
L1767595 657077
" />
<path d="M1541038 792631
L1652755 722025
" />
<path d="M1432663 868805
L1541038 792631
" />
<path d="M1327853 950454
L1432663 868805
" />
<path d="M1226828 1037486
L1327853 950454
" />
<path d="M1129811 1129811
L1226828 1037486
" />
</g>
<g style="fill:#D0D2CD; fill-opacity:1.0; 
stroke:#D0D2CD; stroke-width:1.000000; stroke-opacity:1; 
stroke-linecap:round; stroke-linejoin:round;">
<circle cx="1129811.000000" cy="1129811.000000" r="174999.500000" /> 
</g>
<g style="fill:#D0D2CD; fill-opacity:1.0; 
stroke:#D0D2CD; stroke-width:349999.000000; stroke-opacity:1; 
stroke-linecap:round; stroke-linejoin:round;">
</g>
<g style="fill:#D0D2CD; fill-opacity:0.0; 
stroke:#D0D2CD; stroke-width:349999.000000; stroke-opacity:1; 
stroke-linecap:round; stroke-linejoin:round;">
<path d="M1037486 1226828
L1129811 1129811
" />
<path d="M950453 1327853
L1037486 1226828
" />
<path d="M868804 1432663
L950453 1327853
" />
<path d="M792631 1541038
L868804 1432663
" />
<path d="M722024 1652755
L792631 1541038
" />
<path d="M657077 1767595
L722024 1652755
" />
<path d="M597879 1885335
L657077 1767595
" />
<path d="M544524 2005754
L597879 1885335
" />
<path d="M497103 2128631
L544524 2005754
" />
<path d="M455707 2253744
L497103 2128631
" />
<path d="M420428 2380873
L455707 2253744
" />
<path d="M391358 2509796
L420428 2380873
" />
<path d="M368589 2640291
L391358 2509796
" />
<path d="M352212 2772138
L368589 2640291
" />
<path d="M342319 2905115
L352212 2772138
" />
<path d="M339001 3039000
L342319 2905115
" />
</g>
<g style="fill:#D0D2CD; fill-opacity:1.0; 
stroke:#D0D2CD; stroke-width:1.000000; stroke-opacity:1; 
stroke-linecap:round; stroke-linejoin:round;">
<circle cx="339001.000000" cy="3039000.000000" r="174999.500000" /> 
</g>
<g style="fill:#D0D2CD; fill-opacity:1.0; 
stroke:#D0D2CD; stroke-width:349999.000000; stroke-opacity:1; 
stroke-linecap:round; stroke-linejoin:round;">
</g>
<g style="fill:#D0D2CD; fill-opacity:0.0; 
stroke:#D0D2CD; stroke-width:349999.000000; stroke-opacity:1; 
stroke-linecap:round; stroke-linejoin:round;">
<path d="M339001 37638997
L339001 3039000
" />
<g >
</g>
<g >
</g>
<g >
</g>
<g >
</g>
<g >
</g>
<g >
</g>
<g >
</g>
<g >
</g>
<g >
</g>
<g >
</g>
<g >
</g>
<g >
</g>
<g >
</g>
<g >
</g>
<g >
</g>
</g> 
</svg>
