<?xml version="1.0" encoding="UTF-8" standalone="no"?>
<!-- Created with Inkscape (http://www.inkscape.org/) -->

<svg
   width="1920"
   height="1080"
   viewBox="0 0 508 285.75001"
   version="1.1"
   id="svg326671"
   sodipodi:docname="tracker.svg"
   inkscape:export-filename="/home/alex/Projects/web/alexlynd.com/content/en/blog/Stealthy-Drive-by-GPS-Tracker-ESP8266/img/dns-exfil-dark.png"
   inkscape:export-xdpi="96"
   inkscape:export-ydpi="96"
   inkscape:version="1.1.2 (0a00cf5339, 2022-02-04)"
   xmlns:inkscape="http://www.inkscape.org/namespaces/inkscape"
   xmlns:sodipodi="http://sodipodi.sourceforge.net/DTD/sodipodi-0.dtd"
   xmlns="http://www.w3.org/2000/svg"
   xmlns:svg="http://www.w3.org/2000/svg">
  <sodipodi:namedview
     id="namedview326673"
     pagecolor="#1f1f1f"
     bordercolor="#eeeeee"
     borderopacity="1"
     inkscape:pageshadow="0"
     inkscape:pageopacity="0"
     inkscape:pagecheckerboard="0"
     inkscape:document-units="mm"
     showgrid="false"
     units="px"
     inkscape:zoom="0.3234573"
     inkscape:cx="571.94566"
     inkscape:cy="527.11749"
     inkscape:window-width="1846"
     inkscape:window-height="1016"
     inkscape:window-x="74"
     inkscape:window-y="27"
     inkscape:window-maximized="1"
     inkscape:current-layer="layer2" />
  <defs
     id="defs326668" />
  <g
     inkscape:groupmode="layer"
     id="layer2"
     inkscape:label="Layer 2">
    <rect
       style="fill:#1f1f1f;fill-opacity:1;stroke:#ffffff;stroke-width:1.32292;stroke-miterlimit:4;stroke-dasharray:1.32292, 2.64583;stroke-dashoffset:0;stroke-opacity:1;stop-color:#000000"
       id="rect381411"
       width="491.44321"
       height="250.20961"
       x="8.2781792"
       y="17.770195"
       ry="14.491482"
       inkscape:export-filename="/home/alex/Projects/web/alexlynd.com/content/en/blog/Stealthy-Drive-by-GPS-Tracker-ESP8266/img/dns-exfil.png"
       inkscape:export-xdpi="96"
       inkscape:export-ydpi="96" />
  </g>
  <g
     inkscape:label="Layer 1"
     inkscape:groupmode="layer"
     id="layer1">
    <path
       d="m 234.16314,145.14728 c 5.81126,-5.57545 13.69436,-9.00325 22.38599,-9.00325 8.69164,0 16.57474,3.4278 22.386,9.00325 1.07803,1.02749 2.7793,0.9938 3.8068,-0.0758 1.0275,-1.06961 0.99381,-2.7793 -0.0758,-3.80679 -6.77138,-6.51031 -15.97676,-10.51081 -26.11699,-10.51081 -10.14023,0 -19.34561,4.0005 -26.12542,10.50238 -1.0696,1.03592 -1.10329,2.73719 -0.0758,3.81522 1.02749,1.07803 2.73719,1.11172 3.8068,0.0758 z m 22.38599,4.47214 c 4.78377,0 9.14643,1.77707 12.48159,4.71638 1.12014,0.9854 2.82141,0.87591 3.80679,-0.23581 0.98539,-1.11172 0.8759,-2.82141 -0.23582,-3.8068 -4.27843,-3.77311 -9.90441,-6.06393 -16.05256,-6.06393 -6.14815,0 -11.77412,2.29082 -16.04413,6.06393 -1.12015,0.98539 -1.2212,2.68666 -0.23583,3.8068 0.9854,1.12013 2.68666,1.22121 3.8068,0.23581 3.32675,-2.93931 7.6894,-4.71638 12.48159,-4.71638 z m 5.39017,13.4754 c 0,-2.97301 -2.41716,-5.39016 -5.39017,-5.39016 -2.973,0 -5.39015,2.41715 -5.39015,5.39016 0,2.973 2.41715,5.39016 5.39015,5.39016 2.97301,0 5.39017,-2.41716 5.39017,-5.39016 z"
       id="path326886"
       style="fill:none;stroke:#ffffff;stroke-width:2.26892;stroke-miterlimit:4;stroke-dasharray:none;stroke-opacity:1"
       inkscape:export-filename="/home/alex/Projects/web/alexlynd.com/content/en/blog/Stealthy-Drive-by-GPS-Tracker-ESP8266/img/dns-exfil.png"
       inkscape:export-xdpi="96"
       inkscape:export-ydpi="96" />
    <path
       d="m 425.62578,130.42893 c -3.02422,0 -5.48299,2.45877 -5.48299,5.48299 v 5.48301 c 0,3.02421 2.45877,5.483 5.48299,5.483 h 32.89802 c 3.02421,0 5.483,-2.45879 5.483,-5.483 v -5.48301 c 0,-3.02422 -2.45879,-5.48299 -5.483,-5.48299 z m 23.98814,10.28062 c -1.13943,0 -2.05612,-0.91669 -2.05612,-2.05613 0,-1.13943 0.91669,-2.05613 2.05612,-2.05613 1.13944,0 2.05613,0.9167 2.05613,2.05613 0,1.13944 -0.91669,2.05613 -2.05613,2.05613 z m 8.22451,-2.05613 c 0,1.13944 -0.91669,2.05613 -2.05613,2.05613 -1.13943,0 -2.05612,-0.91669 -2.05612,-2.05613 0,-1.13943 0.91669,-2.05613 2.05612,-2.05613 1.13944,0 2.05613,0.9167 2.05613,2.05613 z m -32.21265,13.70751 c -3.02422,0 -5.48299,2.45879 -5.48299,5.483 v 5.48301 c 0,3.02421 2.45877,5.48299 5.48299,5.48299 h 32.89802 c 3.02421,0 5.483,-2.45878 5.483,-5.48299 v -5.48301 c 0,-3.0242 -2.45879,-5.48299 -5.483,-5.48299 z m 23.98814,10.28063 c -1.13943,0 -2.05612,-0.91669 -2.05612,-2.05612 0,-1.13945 0.91669,-2.05613 2.05612,-2.05613 1.13944,0 2.05613,0.91668 2.05613,2.05613 0,1.13943 -0.91669,2.05612 -2.05613,2.05612 z m 8.90988,-2.05612 c 0,1.13943 -0.91669,2.05612 -2.05612,2.05612 -1.13943,0 -2.05613,-0.91669 -2.05613,-2.05612 0,-1.13945 0.9167,-2.05613 2.05613,-2.05613 1.13943,0 2.05612,0.91668 2.05612,2.05613 z"
       id="path327055"
       style="fill:#d41f1f;fill-opacity:0;stroke:#ffffff;stroke-width:1.619;stroke-miterlimit:4;stroke-dasharray:none;stroke-opacity:1"
       inkscape:export-filename="/home/alex/Projects/web/alexlynd.com/content/en/blog/Stealthy-Drive-by-GPS-Tracker-ESP8266/img/dns-exfil.png"
       inkscape:export-xdpi="96"
       inkscape:export-ydpi="96" />
    <text
       xml:space="preserve"
       style="font-style:normal;font-weight:normal;font-size:13.2292px;line-height:1.25;font-family:sans-serif;fill:#000000;fill-opacity:1;stroke:none;stroke-width:0.264583"
       x="220.0154"
       y="216.67763"
       id="text329052"
       inkscape:export-filename="/home/alex/Projects/web/alexlynd.com/content/en/blog/Stealthy-Drive-by-GPS-Tracker-ESP8266/img/dns-exfil.png"
       inkscape:export-xdpi="96"
       inkscape:export-ydpi="96"><tspan
         sodipodi:role="line"
         id="tspan329050"
         style="font-style:normal;font-variant:normal;font-weight:bold;font-stretch:normal;font-size:13.2292px;font-family:Montserrat;-inkscape-font-specification:'Montserrat Bold';fill:#ffffff;fill-opacity:1;stroke-width:0.264583"
         x="220.0154"
         y="216.67763">Open WiFi</tspan></text>
    <text
       xml:space="preserve"
       style="font-style:normal;font-weight:normal;font-size:13.2292px;line-height:1.25;font-family:sans-serif;fill:#000000;fill-opacity:1;stroke:none;stroke-width:0.264583"
       x="407.32175"
       y="216.12862"
       id="text329052-8"
       inkscape:export-filename="/home/alex/Projects/web/alexlynd.com/content/en/blog/Stealthy-Drive-by-GPS-Tracker-ESP8266/img/dns-exfil.png"
       inkscape:export-xdpi="96"
       inkscape:export-ydpi="96"><tspan
         sodipodi:role="line"
         id="tspan329050-0"
         style="font-style:normal;font-variant:normal;font-weight:bold;font-stretch:normal;font-size:13.2292px;font-family:Montserrat;-inkscape-font-specification:'Montserrat Bold';fill:#ffffff;fill-opacity:1;stroke-width:0.264583"
         x="407.32175"
         y="216.12862">My Server</tspan></text>
    <text
       xml:space="preserve"
       style="font-style:normal;font-weight:normal;font-size:13.2292px;line-height:1.25;font-family:sans-serif;fill:#000000;fill-opacity:1;stroke:none;stroke-width:0.264583"
       x="31.75423"
       y="217.58383"
       id="text329052-5"
       inkscape:export-filename="/home/alex/Projects/web/alexlynd.com/content/en/blog/Stealthy-Drive-by-GPS-Tracker-ESP8266/img/dns-exfil.png"
       inkscape:export-xdpi="96"
       inkscape:export-ydpi="96"><tspan
         sodipodi:role="line"
         id="tspan329050-6"
         style="font-style:normal;font-variant:normal;font-weight:bold;font-stretch:normal;font-size:13.2292px;font-family:Montserrat;-inkscape-font-specification:'Montserrat Bold';fill:#ffffff;fill-opacity:1;stroke-width:0.264583"
         x="31.75423"
         y="217.58383">GPS Tracker</tspan></text>
    <path
       style="fill:#ffffff;fill-opacity:1;stroke-width:0.207901"
       d="m 57.065147,169.41907 c -0.884215,-0.25712 -2.310367,-1.53265 -2.857539,-2.55575 l -0.460606,-0.86125 -0.057,-15.99157 c -0.06355,-17.83009 -0.106631,-17.23278 1.351151,-18.7338 0.415694,-0.42802 1.183342,-0.97602 1.705884,-1.21775 0.901825,-0.4172 1.27368,-0.43952 7.320945,-0.43952 5.973109,0 6.398221,0.0247 6.808754,0.39605 0.55167,0.49896 0.56092,1.24807 0.022,1.78691 -0.397037,0.39704 -0.693001,0.4158 -6.5592,0.4158 -5.084644,0 -6.248507,0.0543 -6.75326,0.31536 -1.287793,0.66596 -1.240601,0.0132 -1.240601,17.15788 0,14.21796 0.0312,15.67561 0.34705,16.21029 0.671791,1.13725 0.693802,1.13986 9.642082,1.13986 7.968609,0 8.279219,-0.0148 8.728889,-0.4158 0.96267,-0.85851 1.03257,-1.37562 1.03257,-7.6394 0,-6.60109 0.0408,-6.80971 1.33092,-6.80971 1.36114,0 1.37177,0.054 1.37177,6.95692 0,4.14813 -0.0807,6.46631 -0.24448,7.01259 -0.31983,1.06747 -1.70427,2.62315 -2.76201,3.10362 -0.773,0.35112 -1.52472,0.38028 -9.467547,0.36722 -4.745336,-0.007 -8.912274,-0.0969 -9.259857,-0.19795 z m 18.981839,-21.31006 c -1.58709,-0.86114 -1.56108,-3.51954 0.0426,-4.34881 2.37772,-1.22956 4.84833,1.10001 3.64156,3.43365 -0.59252,1.14581 -2.42164,1.60017 -3.68411,0.91516 z m 9.12236,-0.14233 c -0.16066,-0.25728 -0.35094,-1.00738 -0.42284,-1.6669 -0.26168,-2.40029 -1.54818,-4.6794 -3.41487,-6.04968 -1.29315,-0.94926 -2.33358,-1.3471 -4.31352,-1.6494 -1.44281,-0.22029 -1.67103,-0.31622 -1.95341,-0.82117 -0.28727,-0.5137 -0.28739,-0.62975 -0.002,-1.14345 0.26121,-0.46889 0.48555,-0.58388 1.24741,-0.63934 2.58225,-0.18794 5.81247,1.15101 7.8936,3.272 1.61048,1.6413 2.36063,2.96124 2.91515,5.12942 0.74368,2.90774 0.46306,4.03629 -1.00363,4.03629 -0.45362,0 -0.7442,-0.1436 -0.94664,-0.46777 z m 6.237156,0 c -0.16057,-0.25728 -0.34706,-1.17395 -0.41438,-2.03704 -0.57097,-7.31912 -6.217586,-12.90813 -13.754776,-13.61442 -1.75479,-0.16443 -2.3884,-0.54014 -2.3884,-1.41616 0,-0.49215 0.45015,-1.01488 1.05808,-1.2287 0.53913,-0.1896 3.71636,0.23064 5.27557,0.69779 3.01912,0.90454 5.54848,2.49685 7.815956,4.92039 2.89976,3.09933 4.40024,6.48027 4.70454,10.6005 0.109,1.47583 0.0742,1.77468 -0.24827,2.131 -0.53084,0.58656 -1.66736,0.55695 -2.04832,-0.0534 z"
       id="path333283"
       sodipodi:nodetypes="sscssssssscssscssssscsssssscssssccsssccscssssssss"
       inkscape:export-filename="/home/alex/Projects/web/alexlynd.com/content/en/blog/Stealthy-Drive-by-GPS-Tracker-ESP8266/img/dns-exfil.png"
       inkscape:export-xdpi="96"
       inkscape:export-ydpi="96" />
    <g
       id="g334311"
       transform="translate(-7.5126809,-2.928526)"
       style="stroke-width:1;stroke-miterlimit:4;stroke-dasharray:none;fill:none;fill-opacity:1"
       inkscape:export-filename="/home/alex/Projects/web/alexlynd.com/content/en/blog/Stealthy-Drive-by-GPS-Tracker-ESP8266/img/dns-exfil.png"
       inkscape:export-xdpi="96"
       inkscape:export-ydpi="96">
      <path
         style="fill:none;stroke:#50a2a7;stroke-width:1;stroke-linecap:butt;stroke-linejoin:miter;stroke-miterlimit:4;stroke-dasharray:none;stroke-opacity:1;stroke-dashoffset:0;fill-opacity:1"
         d="m 120.6026,152.54795 h 91.06959"
         id="path333919" />
      <path
         sodipodi:type="star"
         style="fill:#50a2a7;fill-opacity:1;stroke:#50a2a7;stroke-width:3.77952761;stroke-miterlimit:4;stroke-dasharray:none;stroke-opacity:1;stop-color:#000000"
         id="path334227"
         inkscape:flatsided="false"
         sodipodi:sides="3"
         sodipodi:cx="800.02087"
         sodipodi:cy="576.5592"
         sodipodi:r1="11.268414"
         sodipodi:r2="5.6342072"
         sodipodi:arg1="2.0943951"
         sodipodi:arg2="3.1415927"
         inkscape:rounded="0"
         inkscape:randomized="0"
         transform="scale(0.26458333)"
         inkscape:transform-center-x="-0.745356"
         inkscape:transform-center-y="-1.921864e-06"
         d="m 794.38667,586.31794 0,-9.75874 0,-9.75873 8.45131,4.87937 8.45131,4.87936 -8.45131,4.87937 z" />
    </g>
    <path
       style="fill:none;fill-opacity:1;stroke:#ffffff;stroke-width:1;stroke-miterlimit:4;stroke-dasharray:none;stroke-opacity:1"
       d="m 152.02067,137.81747 c -0.48153,-0.14002 -1.2582,-0.83467 -1.55619,-1.39184 l -0.25084,-0.46902 v -7.52919 -7.52918 l 0.25084,-0.46903 c 0.31358,-0.58632 1.07902,-1.25146 1.60991,-1.39894 0.25072,-0.0696 3.70694,-0.11144 9.12167,-0.11028 8.212,0.002 8.74455,0.0139 9.17527,0.20957 0.57604,0.26166 1.33,1.10886 1.50417,1.6902 0.18895,0.63066 0.18895,14.58466 0,15.21533 -0.17417,0.58133 -0.92813,1.42854 -1.50417,1.6902 -0.43142,0.19596 -0.95326,0.20728 -9.23188,0.19998 -4.82603,-0.004 -8.92948,-0.0527 -9.11878,-0.1078 z m 3.07066,-13.76548 c 0.71082,-0.46575 0.63899,-1.78389 -0.11931,-2.18972 -0.91401,-0.48916 -1.98446,0.13178 -1.98446,1.15113 0,1.04009 1.19849,1.63175 2.10377,1.03859 z m 13.81364,-0.41446 c 0.34914,-0.40604 0.34912,-0.88344 -8e-5,-1.28941 l -0.27325,-0.31767 h -5.49788 -5.49786 l -0.25532,0.25531 c -0.49767,0.49767 -0.24912,1.51672 0.40238,1.6498 0.1336,0.0273 2.62925,0.0429 5.54588,0.0346 l 5.30296,-0.015 z"
       id="path334574"
       inkscape:export-filename="/home/alex/Projects/web/alexlynd.com/content/en/blog/Stealthy-Drive-by-GPS-Tracker-ESP8266/img/dns-exfil.png"
       inkscape:export-xdpi="96"
       inkscape:export-ydpi="96" />
    <path
       d="m 338.37153,131.82476 c 0,3.3801 2.74235,6.12245 6.12245,6.12245 h 15.64626 c 3.00596,0 5.44218,-2.43622 5.44218,-5.44218 0,-2.6318 -1.87075,-4.82993 -4.35374,-5.33163 0.17432,-0.45493 0.27211,-0.95238 0.27211,-1.47109 0,-2.2534 -1.82824,-4.08163 -4.08163,-4.08163 -0.83759,0 -1.6199,0.2551 -2.26616,0.68878 -1.17772,-2.04082 -3.37585,-3.40987 -5.89711,-3.40987 -3.7585,0 -6.80272,3.04422 -6.80272,6.80272 0,0.11479 0.004,0.22959 0.008,0.34439 -2.38095,0.83759 -4.09013,3.10799 -4.09013,5.77806 z"
       id="path334674"
       style="fill:none;stroke:#ffffff;stroke-width:1;stroke-miterlimit:4;stroke-dasharray:none;stroke-opacity:1"
       inkscape:export-filename="/home/alex/Projects/web/alexlynd.com/content/en/blog/Stealthy-Drive-by-GPS-Tracker-ESP8266/img/dns-exfil.png"
       inkscape:export-xdpi="96"
       inkscape:export-ydpi="96" />
    <text
       xml:space="preserve"
       style="font-style:normal;font-weight:normal;font-size:10.5833px;line-height:1.25;font-family:sans-serif;fill:#000000;fill-opacity:1;stroke:none;stroke-width:0.264583"
       x="160.77676"
       y="168.0744"
       id="text329052-5-0"
       inkscape:export-filename="/home/alex/Projects/web/alexlynd.com/content/en/blog/Stealthy-Drive-by-GPS-Tracker-ESP8266/img/dns-exfil.png"
       inkscape:export-xdpi="96"
       inkscape:export-ydpi="96"><tspan
         sodipodi:role="line"
         id="tspan329050-6-4"
         style="font-style:italic;font-variant:normal;font-weight:600;font-stretch:normal;font-size:10.5833px;font-family:Montserrat;-inkscape-font-specification:'Montserrat Semi-Bold Italic';text-align:center;text-anchor:middle;fill:#50a2a7;fill-opacity:1;stroke-width:0.264583"
         x="160.77676"
         y="168.0744">Connect to</tspan><tspan
         sodipodi:role="line"
         style="font-style:italic;font-variant:normal;font-weight:600;font-stretch:normal;font-size:10.5833px;font-family:Montserrat;-inkscape-font-specification:'Montserrat Semi-Bold Italic';text-align:center;text-anchor:middle;fill:#50a2a7;fill-opacity:1;stroke-width:0.264583"
         x="160.77676"
         y="181.66682"
         id="tspan335596">Captive Portal</tspan></text>
    <path
       style="fill:#50a2a7;stroke:#50a2a7;stroke-width:1;stroke-linecap:butt;stroke-linejoin:miter;stroke-miterlimit:4;stroke-dasharray:none;stroke-opacity:1;stroke-dashoffset:0;fill-opacity:1"
       d="m 303.95122,149.61942 h 91.06959"
       id="path333919-5"
       inkscape:export-filename="/home/alex/Projects/web/alexlynd.com/content/en/blog/Stealthy-Drive-by-GPS-Tracker-ESP8266/img/dns-exfil.png"
       inkscape:export-xdpi="96"
       inkscape:export-ydpi="96" />
    <path
       sodipodi:type="star"
       style="fill:#50a2a7;fill-opacity:1;stroke:#50a2a7;stroke-width:3.77952761;stroke-miterlimit:4;stroke-dasharray:none;stroke-opacity:1;stop-color:#000000"
       id="path334227-6"
       inkscape:flatsided="false"
       sodipodi:sides="3"
       sodipodi:cx="800.02087"
       sodipodi:cy="576.5592"
       sodipodi:r1="11.268414"
       sodipodi:r2="5.6342072"
       sodipodi:arg1="2.0943951"
       sodipodi:arg2="3.1415927"
       inkscape:rounded="0"
       inkscape:randomized="0"
       transform="matrix(0.26458333,0,0,0.26458333,183.34862,-2.928526)"
       inkscape:transform-center-x="-0.745356"
       inkscape:transform-center-y="-1.921864e-06"
       d="m 794.38667,586.31794 0,-9.75874 0,-9.75873 8.45131,4.87937 8.45131,4.87936 -8.45131,4.87937 z"
       inkscape:export-filename="/home/alex/Projects/web/alexlynd.com/content/en/blog/Stealthy-Drive-by-GPS-Tracker-ESP8266/img/dns-exfil.png"
       inkscape:export-xdpi="96"
       inkscape:export-ydpi="96" />
    <text
       xml:space="preserve"
       style="font-style:normal;font-weight:normal;font-size:10.5833px;line-height:1.25;font-family:sans-serif;fill:#000000;fill-opacity:1;stroke:none;stroke-width:0.264583"
       x="351.40524"
       y="175.03995"
       id="text329052-5-0-9"
       inkscape:export-filename="/home/alex/Projects/web/alexlynd.com/content/en/blog/Stealthy-Drive-by-GPS-Tracker-ESP8266/img/dns-exfil.png"
       inkscape:export-xdpi="96"
       inkscape:export-ydpi="96"><tspan
         sodipodi:role="line"
         style="font-style:italic;font-variant:normal;font-weight:600;font-stretch:normal;font-size:10.5833px;font-family:Montserrat;-inkscape-font-specification:'Montserrat Semi-Bold Italic';text-align:center;text-anchor:middle;fill:#50a2a7;fill-opacity:1;stroke-width:0.264583"
         x="351.40524"
         y="175.03995"
         id="tspan335596-7">Web Request</tspan></text>
    <path
       sodipodi:type="star"
       style="fill:#ffffff;fill-opacity:1;stroke:#de5466;stroke-width:7.55906;stroke-miterlimit:4;stroke-dasharray:none;stroke-opacity:1;stop-color:#000000"
       id="path334227-6-8"
       inkscape:flatsided="false"
       sodipodi:sides="3"
       sodipodi:cx="800.02087"
       sodipodi:cy="576.5592"
       sodipodi:r1="11.268414"
       sodipodi:r2="5.6342072"
       sodipodi:arg1="2.0943951"
       sodipodi:arg2="3.1415927"
       inkscape:rounded="0"
       inkscape:randomized="0"
       transform="matrix(0.23206044,0.12709165,-0.12709165,0.23206044,324.49332,-113.39877)"
       inkscape:transform-center-x="-0.033617539"
       inkscape:transform-center-y="-0.71606923"
       d="m 794.38667,586.31794 0,-9.75874 0,-9.75873 8.45131,4.87937 8.45131,4.87936 -8.45131,4.87937 z"
       inkscape:export-filename="/home/alex/Projects/web/alexlynd.com/content/en/blog/Stealthy-Drive-by-GPS-Tracker-ESP8266/img/dns-exfil.png"
       inkscape:export-xdpi="96"
       inkscape:export-ydpi="96" />
    <path
       style="fill:none;stroke:#de5466;stroke-width:1;stroke-linecap:butt;stroke-linejoin:miter;stroke-miterlimit:4;stroke-dasharray:none;stroke-opacity:1"
       d="m 166.00689,112.39798 c 0,0 135.52788,-63.713026 273.47872,11.10793"
       id="path344834-2"
       sodipodi:nodetypes="cc"
       inkscape:export-filename="/home/alex/Projects/web/alexlynd.com/content/en/blog/Stealthy-Drive-by-GPS-Tracker-ESP8266/img/dns-exfil.png"
       inkscape:export-xdpi="96"
       inkscape:export-ydpi="96" />
    <path
       style="fill:none;stroke:#de5466;stroke-width:1;stroke-linecap:butt;stroke-linejoin:miter;stroke-miterlimit:4;stroke-dasharray:none;stroke-opacity:1"
       d="m 67.834173,123.04249 c 0,0 27.125658,-63.075586 86.700137,-10.5825"
       id="path344834"
       sodipodi:nodetypes="cc"
       inkscape:export-filename="/home/alex/Projects/web/alexlynd.com/content/en/blog/Stealthy-Drive-by-GPS-Tracker-ESP8266/img/dns-exfil.png"
       inkscape:export-xdpi="96"
       inkscape:export-ydpi="96" />
    <path
       sodipodi:type="star"
       style="fill:#de5466;fill-opacity:1;stroke:#de5466;stroke-width:7.55906;stroke-miterlimit:4;stroke-dasharray:none;stroke-opacity:1;stop-color:#000000"
       id="path334227-6-8-2"
       inkscape:flatsided="false"
       sodipodi:sides="3"
       sodipodi:cx="800.02087"
       sodipodi:cy="576.5592"
       sodipodi:r1="11.268414"
       sodipodi:r2="5.6342072"
       sodipodi:arg1="2.0943951"
       sodipodi:arg2="3.1415927"
       inkscape:rounded="0"
       inkscape:randomized="0"
       transform="matrix(0.20083398,0.17224997,-0.17224997,0.20083398,90.912156,-143.07725)"
       inkscape:transform-center-x="0.27470178"
       inkscape:transform-center-y="-0.49469745"
       d="m 794.38667,586.31794 0,-9.75874 0,-9.75873 8.45131,4.87937 8.45131,4.87936 -8.45131,4.87937 z"
       inkscape:export-filename="/home/alex/Projects/web/alexlynd.com/content/en/blog/Stealthy-Drive-by-GPS-Tracker-ESP8266/img/dns-exfil.png"
       inkscape:export-xdpi="96"
       inkscape:export-ydpi="96" />
    <text
       xml:space="preserve"
       style="font-style:normal;font-weight:normal;font-size:10.5833px;line-height:1.25;font-family:sans-serif;fill:#000000;fill-opacity:1;stroke:none;stroke-width:0.264583"
       x="302.56857"
       y="58.825264"
       id="text329052-5-0-9-9"
       inkscape:export-filename="/home/alex/Projects/web/alexlynd.com/content/en/blog/Stealthy-Drive-by-GPS-Tracker-ESP8266/img/dns-exfil.png"
       inkscape:export-xdpi="96"
       inkscape:export-ydpi="96"><tspan
         sodipodi:role="line"
         style="font-style:italic;font-variant:normal;font-weight:600;font-stretch:normal;font-size:10.5833px;font-family:Montserrat;-inkscape-font-specification:'Montserrat Semi-Bold Italic';text-align:center;text-anchor:middle;fill:#de5466;fill-opacity:1;stroke-width:0.264583"
         x="302.56857"
         y="58.825264"
         id="tspan335596-7-9">DNS Request:</tspan><tspan
         sodipodi:role="line"
         style="font-style:italic;font-variant:normal;font-weight:600;font-stretch:normal;font-size:10.5833px;font-family:Montserrat;-inkscape-font-specification:'Montserrat Semi-Bold Italic';text-align:center;text-anchor:middle;fill:#de5466;fill-opacity:1;stroke-width:0.264583"
         x="302.56857"
         y="72.417694"
         id="tspan363427">&lt;gps_data&gt;.alexlynd.com</tspan></text>
    <text
       xml:space="preserve"
       style="font-style:normal;font-weight:normal;font-size:10.5833px;line-height:1.25;font-family:sans-serif;fill:#000000;fill-opacity:1;stroke:none;stroke-width:0.264583"
       x="110.84998"
       y="74.439102"
       id="text329052-5-0-9-9-6"
       inkscape:export-filename="/home/alex/Projects/web/alexlynd.com/content/en/blog/Stealthy-Drive-by-GPS-Tracker-ESP8266/img/dns-exfil.png"
       inkscape:export-xdpi="96"
       inkscape:export-ydpi="96"><tspan
         sodipodi:role="line"
         style="font-style:italic;font-variant:normal;font-weight:600;font-stretch:normal;font-size:10.5833px;font-family:Montserrat;-inkscape-font-specification:'Montserrat Semi-Bold Italic';text-align:center;text-anchor:middle;fill:#de5466;fill-opacity:1;stroke-width:0.264583"
         x="110.84998"
         y="74.439102"
         id="tspan335596-7-9-0">Connect</tspan></text>
    <text
       xml:space="preserve"
       style="font-style:normal;font-weight:normal;font-size:7.9375px;line-height:1.25;font-family:sans-serif;fill:#000000;fill-opacity:1;stroke:none;stroke-width:0.264583"
       x="336.91333"
       y="256.79587"
       id="text329052-8-2"
       inkscape:export-filename="/home/alex/Projects/web/alexlynd.com/content/en/blog/Stealthy-Drive-by-GPS-Tracker-ESP8266/img/dns-exfil.png"
       inkscape:export-xdpi="96"
       inkscape:export-ydpi="96"><tspan
         sodipodi:role="line"
         id="tspan329050-0-7"
         style="font-style:italic;font-variant:normal;font-weight:500;font-stretch:normal;font-size:7.9375px;font-family:Montserrat;-inkscape-font-specification:'Montserrat Medium Italic';fill:#ffffff;fill-opacity:1;stroke-width:0.264583"
         x="336.91333"
         y="256.79587">Created by Alex Lynd for DNS DriveBy</tspan></text>
  </g>
</svg>
