G04 #@! TF.GenerationSoftware,KiCad,Pcbnew,6.0.2+dfsg-1*
G04 #@! TF.CreationDate,2023-06-09T10:38:21-07:00*
G04 #@! TF.ProjectId,DNS-DriveBy,444e532d-4472-4697-9665-42792e6b6963,rev?*
G04 #@! TF.SameCoordinates,Original*
G04 #@! TF.FileFunction,Profile,NP*
%FSLAX46Y46*%
G04 Gerber Fmt 4.6, Leading zero omitted, Abs format (unit mm)*
G04 Created by KiCad (PCBNEW 6.0.2+dfsg-1) date 2023-06-09 10:38:21*
%MOMM*%
%LPD*%
G01*
G04 APERTURE LIST*
G04 #@! TA.AperFunction,Profile*
%ADD10C,0.349999*%
G04 #@! TD*
G04 APERTURE END LIST*
D10*
X2095598Y-1264035D02*
X2219729Y-1185584D01*
X73759987Y-40760002D02*
X73759987Y-40760002D01*
X74491241Y-850477D02*
X74632496Y-889676D01*
X76171316Y-39544818D02*
X76080595Y-39661274D01*
X3028747Y-40669525D02*
X2887493Y-40630327D01*
X763685Y-3611239D02*
X774678Y-3463487D01*
X76406568Y-2347328D02*
X76472342Y-2478150D01*
X76701810Y-38348005D02*
X76669510Y-38491252D01*
X3759998Y-760000D02*
X3759998Y-760000D01*
X1348672Y-39544818D02*
X1264034Y-39424401D01*
X75424392Y-1264035D02*
X75544808Y-1348673D01*
X792875Y-38203010D02*
X774678Y-38056514D01*
X74771511Y-40584331D02*
X74632496Y-40630327D01*
X73908749Y-40756315D02*
X73759987Y-40760002D01*
X2611949Y-40531641D02*
X2478150Y-40472357D01*
X76255953Y-2095598D02*
X76334404Y-2219729D01*
X1439393Y-39661274D02*
X1348672Y-39544818D01*
X74202998Y-792877D02*
X74347994Y-818177D01*
X75881310Y-1638680D02*
X75881310Y-1638680D01*
X74908041Y-988362D02*
X75041840Y-1047645D01*
X75983892Y-1746477D02*
X76080595Y-1858726D01*
X1638679Y-39881321D02*
X1536096Y-39773523D01*
X759998Y-3760000D02*
X763685Y-3611239D01*
X75661263Y-40080608D02*
X75544808Y-40171329D01*
X75881310Y-39881321D02*
X75881310Y-39881321D01*
X76727110Y-38203010D02*
X76701810Y-38348005D01*
X73759987Y-760000D02*
X73908749Y-763687D01*
X3316989Y-792877D02*
X3463485Y-774680D01*
X792875Y-3316990D02*
X818175Y-3171996D01*
X759998Y-37760002D02*
X759998Y-3760000D01*
X3171994Y-40701825D02*
X3028747Y-40669525D01*
X74056502Y-40745322D02*
X73908749Y-40756315D01*
X1638679Y-39881321D02*
X1638679Y-39881321D01*
X935669Y-2748479D02*
X988360Y-2611949D01*
X76630311Y-38632505D02*
X76584316Y-38771520D01*
X76745307Y-38056514D02*
X76727110Y-38203010D01*
X76584316Y-2748479D02*
X76630311Y-2887494D01*
X75300261Y-1185584D02*
X75424392Y-1264035D01*
X74632496Y-40630327D02*
X74491241Y-40669525D01*
X1113418Y-39172671D02*
X1047643Y-39041849D01*
X774678Y-3463487D02*
X792875Y-3316990D01*
X1638679Y-1638680D02*
X1746477Y-1536096D01*
X76584316Y-38771520D02*
X76531626Y-38908050D01*
X76701810Y-3171996D02*
X76727110Y-3316990D01*
X75773513Y-39983904D02*
X75661263Y-40080608D01*
X76080595Y-1858726D02*
X76171316Y-1975182D01*
X76531626Y-38908050D02*
X76472342Y-39041849D01*
X75773513Y-1536096D02*
X75881310Y-1638680D01*
X1975182Y-1348673D02*
X2095598Y-1264035D01*
X2478150Y-1047645D02*
X2611949Y-988362D01*
X1185582Y-39300270D02*
X1113418Y-39172671D01*
X1264034Y-2095598D02*
X1348672Y-1975182D01*
X76759987Y-37760002D02*
X76756300Y-37908763D01*
X76334404Y-39300270D02*
X76255953Y-39424401D01*
X75544808Y-40171329D02*
X75424392Y-40255966D01*
X889674Y-38632505D02*
X850475Y-38491252D01*
X74771511Y-935671D02*
X74908041Y-988362D01*
X75172662Y-40406582D02*
X75041840Y-40472357D01*
X2611949Y-988362D02*
X2748478Y-935671D01*
X76669510Y-3028748D02*
X76701810Y-3171996D01*
X3759998Y-40760002D02*
X3759998Y-40760002D01*
X889674Y-2887494D02*
X935669Y-2748479D01*
X3611237Y-763687D02*
X3759998Y-760000D01*
X850475Y-38491252D02*
X818175Y-38348005D01*
X2095598Y-40255966D02*
X1975182Y-40171329D01*
X75661263Y-1439394D02*
X75773513Y-1536096D01*
X74908041Y-40531641D02*
X74771511Y-40584331D01*
X74202998Y-40727125D02*
X74056502Y-40745322D01*
X74347994Y-40701825D02*
X74202998Y-40727125D01*
X2219729Y-40334418D02*
X2095598Y-40255966D01*
X76255953Y-39424401D02*
X76171316Y-39544818D01*
X76630311Y-2887494D02*
X76669510Y-3028748D01*
X818175Y-3171996D02*
X850475Y-3028748D01*
X2478150Y-40472357D02*
X2347328Y-40406582D01*
X2887493Y-40630327D02*
X2748478Y-40584331D01*
X1047643Y-39041849D02*
X988360Y-38908050D01*
X2347328Y-1113420D02*
X2478150Y-1047645D01*
X1439393Y-1858726D02*
X1536096Y-1746477D01*
X76759987Y-3760000D02*
X76759987Y-3760000D01*
X76080595Y-39661274D02*
X75983892Y-39773523D01*
X2887493Y-889676D02*
X3028747Y-850477D01*
X1185582Y-2219729D02*
X1264034Y-2095598D01*
X1858726Y-1439394D02*
X1975182Y-1348673D01*
X3171994Y-818177D02*
X3316989Y-792877D01*
X74491241Y-40669525D02*
X74347994Y-40701825D01*
X935669Y-38771520D02*
X889674Y-38632505D01*
X1113418Y-2347328D02*
X1185582Y-2219729D01*
X1047643Y-2478150D02*
X1113418Y-2347328D01*
X73759987Y-40760002D02*
X3759998Y-40760002D01*
X73908749Y-763687D02*
X74056502Y-774680D01*
X2748478Y-40584331D02*
X2611949Y-40531641D01*
X76406568Y-39172671D02*
X76334404Y-39300270D01*
X988360Y-2611949D02*
X1047643Y-2478150D01*
X1858726Y-40080608D02*
X1746477Y-39983904D01*
X76669510Y-38491252D02*
X76630311Y-38632505D01*
X73759987Y-760000D02*
X73759987Y-760000D01*
X2748478Y-935671D02*
X2887493Y-889676D01*
X75424392Y-40255966D02*
X75300261Y-40334418D01*
X74632496Y-889676D02*
X74771511Y-935671D01*
X2219729Y-1185584D02*
X2347328Y-1113420D01*
X988360Y-38908050D02*
X935669Y-38771520D01*
X2347328Y-40406582D02*
X2219729Y-40334418D01*
X76759987Y-37760002D02*
X76759987Y-37760002D01*
X1536096Y-1746477D02*
X1638679Y-1638680D01*
X3316989Y-40727125D02*
X3171994Y-40701825D01*
X3463485Y-774680D02*
X3611237Y-763687D01*
X76745307Y-3463487D02*
X76756300Y-3611239D01*
X75983892Y-39773523D02*
X75881310Y-39881321D01*
X76171316Y-1975182D02*
X76255953Y-2095598D01*
X76334404Y-2219729D02*
X76406568Y-2347328D01*
X774678Y-38056514D02*
X763685Y-37908763D01*
X3611237Y-40756315D02*
X3463485Y-40745322D01*
X1746477Y-1536096D02*
X1858726Y-1439394D01*
X1348672Y-1975182D02*
X1439393Y-1858726D01*
X763685Y-37908763D02*
X759998Y-37760002D01*
X1746477Y-39983904D02*
X1638679Y-39881321D01*
X1638679Y-1638680D02*
X1638679Y-1638680D01*
X74056502Y-774680D02*
X74202998Y-792877D01*
X1264034Y-39424401D02*
X1185582Y-39300270D01*
X76531626Y-2611949D02*
X76584316Y-2748479D01*
X759998Y-3760000D02*
X759998Y-3760000D01*
X3759998Y-40760002D02*
X3611237Y-40756315D01*
X850475Y-3028748D02*
X889674Y-2887494D01*
X1536096Y-39773523D02*
X1439393Y-39661274D01*
X76472342Y-2478150D02*
X76531626Y-2611949D01*
X75881310Y-39881321D02*
X75773513Y-39983904D01*
X75881310Y-1638680D02*
X75983892Y-1746477D01*
X1975182Y-40171329D02*
X1858726Y-40080608D01*
X76756300Y-3611239D02*
X76759987Y-3760000D01*
X75041840Y-1047645D02*
X75172662Y-1113420D01*
X75172662Y-1113420D02*
X75300261Y-1185584D01*
X74347994Y-818177D02*
X74491241Y-850477D01*
X76759987Y-3760000D02*
X76759987Y-37760002D01*
X76472342Y-39041849D02*
X76406568Y-39172671D01*
X76727110Y-3316990D02*
X76745307Y-3463487D01*
X3028747Y-850477D02*
X3171994Y-818177D01*
X75300261Y-40334418D02*
X75172662Y-40406582D01*
X75544808Y-1348673D02*
X75661263Y-1439394D01*
X76756300Y-37908763D02*
X76745307Y-38056514D01*
X818175Y-38348005D02*
X792875Y-38203010D01*
X75041840Y-40472357D02*
X74908041Y-40531641D01*
X3759998Y-760000D02*
X73759987Y-760000D01*
X3463485Y-40745322D02*
X3316989Y-40727125D01*
M02*
