G04 #@! TF.GenerationSoftware,KiCad,Pcbnew,6.0.2+dfsg-1*
G04 #@! TF.CreationDate,2023-06-14T18:40:45-07:00*
G04 #@! TF.ProjectId,DNS-DriveBy,444e532d-4472-4697-9665-42792e6b6963,rev?*
G04 #@! TF.SameCoordinates,Original*
G04 #@! TF.FileFunction,Soldermask,Top*
G04 #@! TF.FilePolarity,Negative*
%FSLAX46Y46*%
G04 Gerber Fmt 4.6, Leading zero omitted, Abs format (unit mm)*
G04 Created by KiCad (PCBNEW 6.0.2+dfsg-1) date 2023-06-14 18:40:45*
%MOMM*%
%LPD*%
G01*
G04 APERTURE LIST*
G04 Aperture macros list*
%AMRoundRect*
0 Rectangle with rounded corners*
0 $1 Rounding radius*
0 $2 $3 $4 $5 $6 $7 $8 $9 X,Y pos of 4 corners*
0 Add a 4 corners polygon primitive as box body*
4,1,4,$2,$3,$4,$5,$6,$7,$8,$9,$2,$3,0*
0 Add four circle primitives for the rounded corners*
1,1,$1+$1,$2,$3*
1,1,$1+$1,$4,$5*
1,1,$1+$1,$6,$7*
1,1,$1+$1,$8,$9*
0 Add four rect primitives between the rounded corners*
20,1,$1+$1,$2,$3,$4,$5,0*
20,1,$1+$1,$4,$5,$6,$7,0*
20,1,$1+$1,$6,$7,$8,$9,0*
20,1,$1+$1,$8,$9,$2,$3,0*%
G04 Aperture macros list end*
%ADD10C,4.700000*%
%ADD11C,1.600000*%
%ADD12O,1.600000X1.600000*%
%ADD13R,1.500000X1.500000*%
%ADD14C,1.500000*%
%ADD15R,1.700000X1.700000*%
%ADD16O,1.700000X1.700000*%
%ADD17RoundRect,0.250000X1.500000X-0.250000X1.500000X0.250000X-1.500000X0.250000X-1.500000X-0.250000X0*%
%ADD18RoundRect,0.250001X1.449999X-0.499999X1.449999X0.499999X-1.449999X0.499999X-1.449999X-0.499999X0*%
%ADD19C,1.524000*%
%ADD20R,2.000000X2.000000*%
%ADD21O,2.000000X1.600000*%
%ADD22R,1.400000X1.400000*%
%ADD23C,1.400000*%
G04 APERTURE END LIST*
D10*
X3500000Y-3500000D03*
D11*
X8890000Y-25146000D03*
D12*
X8890000Y-17526000D03*
D13*
X4260000Y-13167200D03*
D14*
X4260000Y-10627200D03*
X4260000Y-8087200D03*
D11*
X70379000Y-15575000D03*
D12*
X70379000Y-23195000D03*
D15*
X28500000Y-3750000D03*
D16*
X31040000Y-3750000D03*
X33580000Y-3750000D03*
X36120000Y-3750000D03*
D17*
X68778000Y-29905200D03*
X68778000Y-27905200D03*
D18*
X74528000Y-25555200D03*
X74528000Y-32255200D03*
D19*
X48260000Y-38301200D03*
X50800000Y-38301200D03*
X53340000Y-38301200D03*
X55880000Y-38301200D03*
D20*
X13081000Y-14173200D03*
D21*
X13081000Y-16713200D03*
X13081000Y-19253200D03*
X13081000Y-21793200D03*
X13081000Y-24333200D03*
X13081000Y-26873200D03*
X13081000Y-29413200D03*
X13081000Y-31953200D03*
X35941000Y-31953200D03*
X35941000Y-29413200D03*
X35941000Y-26873200D03*
X35941000Y-24333200D03*
X35941000Y-21793200D03*
X35941000Y-19253200D03*
X35941000Y-16713200D03*
X35941000Y-14173200D03*
D11*
X17580200Y-14178200D03*
D12*
X17580200Y-21798200D03*
D11*
X17580200Y-31798200D03*
D12*
X17580200Y-24178200D03*
D10*
X74000000Y-3500000D03*
D15*
X74479000Y-21975000D03*
D16*
X74479000Y-19435000D03*
X74479000Y-16895000D03*
D22*
X68331500Y-8607800D03*
D23*
X70831500Y-8607800D03*
X73331500Y-8607800D03*
X68331500Y-11907800D03*
X70831500Y-11907800D03*
X73331500Y-11907800D03*
D11*
X66950000Y-23195000D03*
D12*
X66950000Y-15575000D03*
D11*
X8890000Y-27432000D03*
D12*
X8890000Y-35052000D03*
D19*
X5570000Y-17410400D03*
X3030000Y-17410400D03*
D13*
X8287600Y-8067200D03*
D14*
X8287600Y-10607200D03*
X8287600Y-13147200D03*
D10*
X74000000Y-38000000D03*
X3500000Y-38000000D03*
M02*
