G04 #@! TF.GenerationSoftware,KiCad,Pcbnew,6.0.2+dfsg-1*
G04 #@! TF.CreationDate,2023-06-09T10:38:21-07:00*
G04 #@! TF.ProjectId,DNS-DriveBy,444e532d-4472-4697-9665-42792e6b6963,rev?*
G04 #@! TF.SameCoordinates,Original*
G04 #@! TF.FileFunction,Legend,Bot*
G04 #@! TF.FilePolarity,Positive*
%FSLAX46Y46*%
G04 Gerber Fmt 4.6, Leading zero omitted, Abs format (unit mm)*
G04 Created by KiCad (PCBNEW 6.0.2+dfsg-1) date 2023-06-09 10:38:21*
%MOMM*%
%LPD*%
G01*
G04 APERTURE LIST*
%ADD10C,0.150000*%
%ADD11C,0.120000*%
G04 APERTURE END LIST*
D10*
X52650000Y-32600000D02*
X54650000Y-32600000D01*
X49500000Y-32600000D02*
X51500000Y-32600000D01*
X56738095Y-35252380D02*
X56738095Y-34252380D01*
X56500000Y-34252380D01*
X56357142Y-34300000D01*
X56261904Y-34395238D01*
X56214285Y-34490476D01*
X56166666Y-34680952D01*
X56166666Y-34823809D01*
X56214285Y-35014285D01*
X56261904Y-35109523D01*
X56357142Y-35204761D01*
X56500000Y-35252380D01*
X56738095Y-35252380D01*
X55833333Y-34252380D02*
X55214285Y-34252380D01*
X55547619Y-34633333D01*
X55404761Y-34633333D01*
X55309523Y-34680952D01*
X55261904Y-34728571D01*
X55214285Y-34823809D01*
X55214285Y-35061904D01*
X55261904Y-35157142D01*
X55309523Y-35204761D01*
X55404761Y-35252380D01*
X55690476Y-35252380D01*
X55785714Y-35204761D01*
X55833333Y-35157142D01*
X48266666Y-32202380D02*
X48600000Y-31726190D01*
X48838095Y-32202380D02*
X48838095Y-31202380D01*
X48457142Y-31202380D01*
X48361904Y-31250000D01*
X48314285Y-31297619D01*
X48266666Y-31392857D01*
X48266666Y-31535714D01*
X48314285Y-31630952D01*
X48361904Y-31678571D01*
X48457142Y-31726190D01*
X48838095Y-31726190D01*
X47933333Y-31202380D02*
X47266666Y-32202380D01*
X47266666Y-31202380D02*
X47933333Y-32202380D01*
X48838095Y-35102380D02*
X48838095Y-34102380D01*
X48600000Y-34102380D01*
X48457142Y-34150000D01*
X48361904Y-34245238D01*
X48314285Y-34340476D01*
X48266666Y-34530952D01*
X48266666Y-34673809D01*
X48314285Y-34864285D01*
X48361904Y-34959523D01*
X48457142Y-35054761D01*
X48600000Y-35102380D01*
X48838095Y-35102380D01*
X47409523Y-34435714D02*
X47409523Y-35102380D01*
X47647619Y-34054761D02*
X47885714Y-34769047D01*
X47266666Y-34769047D01*
X35716666Y-6549761D02*
X35573809Y-6597380D01*
X35335714Y-6597380D01*
X35240476Y-6549761D01*
X35192857Y-6502142D01*
X35145238Y-6406904D01*
X35145238Y-6311666D01*
X35192857Y-6216428D01*
X35240476Y-6168809D01*
X35335714Y-6121190D01*
X35526190Y-6073571D01*
X35621428Y-6025952D01*
X35669047Y-5978333D01*
X35716666Y-5883095D01*
X35716666Y-5787857D01*
X35669047Y-5692619D01*
X35621428Y-5645000D01*
X35526190Y-5597380D01*
X35288095Y-5597380D01*
X35145238Y-5645000D01*
X34764285Y-6549761D02*
X34621428Y-6597380D01*
X34383333Y-6597380D01*
X34288095Y-6549761D01*
X34240476Y-6502142D01*
X34192857Y-6406904D01*
X34192857Y-6311666D01*
X34240476Y-6216428D01*
X34288095Y-6168809D01*
X34383333Y-6121190D01*
X34573809Y-6073571D01*
X34669047Y-6025952D01*
X34716666Y-5978333D01*
X34764285Y-5883095D01*
X34764285Y-5787857D01*
X34716666Y-5692619D01*
X34669047Y-5645000D01*
X34573809Y-5597380D01*
X34335714Y-5597380D01*
X34192857Y-5645000D01*
X33764285Y-6597380D02*
X33764285Y-5597380D01*
X33526190Y-5597380D01*
X33383333Y-5645000D01*
X33288095Y-5740238D01*
X33240476Y-5835476D01*
X33192857Y-6025952D01*
X33192857Y-6168809D01*
X33240476Y-6359285D01*
X33288095Y-6454523D01*
X33383333Y-6549761D01*
X33526190Y-6597380D01*
X33764285Y-6597380D01*
X32240476Y-6597380D02*
X32811904Y-6597380D01*
X32526190Y-6597380D02*
X32526190Y-5597380D01*
X32621428Y-5740238D01*
X32716666Y-5835476D01*
X32811904Y-5883095D01*
X31907142Y-5597380D02*
X31288095Y-5597380D01*
X31621428Y-5978333D01*
X31478571Y-5978333D01*
X31383333Y-6025952D01*
X31335714Y-6073571D01*
X31288095Y-6168809D01*
X31288095Y-6406904D01*
X31335714Y-6502142D01*
X31383333Y-6549761D01*
X31478571Y-6597380D01*
X31764285Y-6597380D01*
X31859523Y-6549761D01*
X31907142Y-6502142D01*
X30669047Y-5597380D02*
X30573809Y-5597380D01*
X30478571Y-5645000D01*
X30430952Y-5692619D01*
X30383333Y-5787857D01*
X30335714Y-5978333D01*
X30335714Y-6216428D01*
X30383333Y-6406904D01*
X30430952Y-6502142D01*
X30478571Y-6549761D01*
X30573809Y-6597380D01*
X30669047Y-6597380D01*
X30764285Y-6549761D01*
X30811904Y-6502142D01*
X30859523Y-6406904D01*
X30907142Y-6216428D01*
X30907142Y-5978333D01*
X30859523Y-5787857D01*
X30811904Y-5692619D01*
X30764285Y-5645000D01*
X30669047Y-5597380D01*
X29478571Y-5597380D02*
X29669047Y-5597380D01*
X29764285Y-5645000D01*
X29811904Y-5692619D01*
X29907142Y-5835476D01*
X29954761Y-6025952D01*
X29954761Y-6406904D01*
X29907142Y-6502142D01*
X29859523Y-6549761D01*
X29764285Y-6597380D01*
X29573809Y-6597380D01*
X29478571Y-6549761D01*
X29430952Y-6502142D01*
X29383333Y-6406904D01*
X29383333Y-6168809D01*
X29430952Y-6073571D01*
X29478571Y-6025952D01*
X29573809Y-5978333D01*
X29764285Y-5978333D01*
X29859523Y-6025952D01*
X29907142Y-6073571D01*
X29954761Y-6168809D01*
X35264285Y-8159761D02*
X35121428Y-8207380D01*
X34883333Y-8207380D01*
X34788095Y-8159761D01*
X34740476Y-8112142D01*
X34692857Y-8016904D01*
X34692857Y-7921666D01*
X34740476Y-7826428D01*
X34788095Y-7778809D01*
X34883333Y-7731190D01*
X35073809Y-7683571D01*
X35169047Y-7635952D01*
X35216666Y-7588333D01*
X35264285Y-7493095D01*
X35264285Y-7397857D01*
X35216666Y-7302619D01*
X35169047Y-7255000D01*
X35073809Y-7207380D01*
X34835714Y-7207380D01*
X34692857Y-7255000D01*
X34264285Y-8207380D02*
X34264285Y-7207380D01*
X34264285Y-7683571D02*
X33692857Y-7683571D01*
X33692857Y-8207380D02*
X33692857Y-7207380D01*
X32692857Y-8207380D02*
X33264285Y-8207380D01*
X32978571Y-8207380D02*
X32978571Y-7207380D01*
X33073809Y-7350238D01*
X33169047Y-7445476D01*
X33264285Y-7493095D01*
X31740476Y-8207380D02*
X32311904Y-8207380D01*
X32026190Y-8207380D02*
X32026190Y-7207380D01*
X32121428Y-7350238D01*
X32216666Y-7445476D01*
X32311904Y-7493095D01*
X31121428Y-7207380D02*
X31026190Y-7207380D01*
X30930952Y-7255000D01*
X30883333Y-7302619D01*
X30835714Y-7397857D01*
X30788095Y-7588333D01*
X30788095Y-7826428D01*
X30835714Y-8016904D01*
X30883333Y-8112142D01*
X30930952Y-8159761D01*
X31026190Y-8207380D01*
X31121428Y-8207380D01*
X31216666Y-8159761D01*
X31264285Y-8112142D01*
X31311904Y-8016904D01*
X31359523Y-7826428D01*
X31359523Y-7588333D01*
X31311904Y-7397857D01*
X31264285Y-7302619D01*
X31216666Y-7255000D01*
X31121428Y-7207380D01*
X29930952Y-7207380D02*
X30121428Y-7207380D01*
X30216666Y-7255000D01*
X30264285Y-7302619D01*
X30359523Y-7445476D01*
X30407142Y-7635952D01*
X30407142Y-8016904D01*
X30359523Y-8112142D01*
X30311904Y-8159761D01*
X30216666Y-8207380D01*
X30026190Y-8207380D01*
X29930952Y-8159761D01*
X29883333Y-8112142D01*
X29835714Y-8016904D01*
X29835714Y-7778809D01*
X29883333Y-7683571D01*
X29930952Y-7635952D01*
X30026190Y-7588333D01*
X30216666Y-7588333D01*
X30311904Y-7635952D01*
X30359523Y-7683571D01*
X30407142Y-7778809D01*
X56811904Y-31202380D02*
X56240476Y-31202380D01*
X56526190Y-32202380D02*
X56526190Y-31202380D01*
X56002380Y-31202380D02*
X55335714Y-32202380D01*
X55335714Y-31202380D02*
X56002380Y-32202380D01*
X54740476Y-29050000D02*
X54835714Y-29002380D01*
X54978571Y-29002380D01*
X55121428Y-29050000D01*
X55216666Y-29145238D01*
X55264285Y-29240476D01*
X55311904Y-29430952D01*
X55311904Y-29573809D01*
X55264285Y-29764285D01*
X55216666Y-29859523D01*
X55121428Y-29954761D01*
X54978571Y-30002380D01*
X54883333Y-30002380D01*
X54740476Y-29954761D01*
X54692857Y-29907142D01*
X54692857Y-29573809D01*
X54883333Y-29573809D01*
X54264285Y-30002380D02*
X54264285Y-29002380D01*
X53883333Y-29002380D01*
X53788095Y-29050000D01*
X53740476Y-29097619D01*
X53692857Y-29192857D01*
X53692857Y-29335714D01*
X53740476Y-29430952D01*
X53788095Y-29478571D01*
X53883333Y-29526190D01*
X54264285Y-29526190D01*
X53311904Y-29954761D02*
X53169047Y-30002380D01*
X52930952Y-30002380D01*
X52835714Y-29954761D01*
X52788095Y-29907142D01*
X52740476Y-29811904D01*
X52740476Y-29716666D01*
X52788095Y-29621428D01*
X52835714Y-29573809D01*
X52930952Y-29526190D01*
X53121428Y-29478571D01*
X53216666Y-29430952D01*
X53264285Y-29383333D01*
X53311904Y-29288095D01*
X53311904Y-29192857D01*
X53264285Y-29097619D01*
X53216666Y-29050000D01*
X53121428Y-29002380D01*
X52883333Y-29002380D01*
X52740476Y-29050000D01*
X51550000Y-30002380D02*
X51550000Y-29002380D01*
X51169047Y-29002380D01*
X51073809Y-29050000D01*
X51026190Y-29097619D01*
X50978571Y-29192857D01*
X50978571Y-29335714D01*
X51026190Y-29430952D01*
X51073809Y-29478571D01*
X51169047Y-29526190D01*
X51550000Y-29526190D01*
X50549999Y-30002380D02*
X50549999Y-29335714D01*
X50549999Y-29002380D02*
X50597619Y-29050000D01*
X50549999Y-29097619D01*
X50502380Y-29050000D01*
X50549999Y-29002380D01*
X50549999Y-29097619D01*
X50073809Y-29335714D02*
X50073809Y-30002380D01*
X50073809Y-29430952D02*
X50026190Y-29383333D01*
X49930952Y-29335714D01*
X49788095Y-29335714D01*
X49692857Y-29383333D01*
X49645238Y-29478571D01*
X49645238Y-30002380D01*
X49216666Y-29954761D02*
X49121428Y-30002380D01*
X48930952Y-30002380D01*
X48835714Y-29954761D01*
X48788095Y-29859523D01*
X48788095Y-29811904D01*
X48835714Y-29716666D01*
X48930952Y-29669047D01*
X49073809Y-29669047D01*
X49169047Y-29621428D01*
X49216666Y-29526190D01*
X49216666Y-29478571D01*
X49169047Y-29383333D01*
X49073809Y-29335714D01*
X48930952Y-29335714D01*
X48835714Y-29383333D01*
X2197619Y-33171428D02*
X3197619Y-33171428D01*
X2245238Y-33171428D02*
X2197619Y-33266666D01*
X2197619Y-33457142D01*
X2245238Y-33552380D01*
X2292857Y-33600000D01*
X2388095Y-33647619D01*
X2673809Y-33647619D01*
X2769047Y-33600000D01*
X2816666Y-33552380D01*
X2864285Y-33457142D01*
X2864285Y-33266666D01*
X2816666Y-33171428D01*
X2864285Y-32695238D02*
X2197619Y-32695238D01*
X2769047Y-32695238D02*
X2816666Y-32647619D01*
X2864285Y-32552380D01*
X2864285Y-32409523D01*
X2816666Y-32314285D01*
X2721428Y-32266666D01*
X2197619Y-32266666D01*
X2245238Y-31838095D02*
X2197619Y-31742857D01*
X2197619Y-31552380D01*
X2245238Y-31457142D01*
X2340476Y-31409523D01*
X2388095Y-31409523D01*
X2483333Y-31457142D01*
X2530952Y-31552380D01*
X2530952Y-31695238D01*
X2578571Y-31790476D01*
X2673809Y-31838095D01*
X2721428Y-31838095D01*
X2816666Y-31790476D01*
X2864285Y-31695238D01*
X2864285Y-31552380D01*
X2816666Y-31457142D01*
X2197619Y-30552380D02*
X3197619Y-30552380D01*
X2245238Y-30552380D02*
X2197619Y-30647619D01*
X2197619Y-30838095D01*
X2245238Y-30933333D01*
X2292857Y-30980952D01*
X2388095Y-31028571D01*
X2673809Y-31028571D01*
X2769047Y-30980952D01*
X2816666Y-30933333D01*
X2864285Y-30838095D01*
X2864285Y-30647619D01*
X2816666Y-30552380D01*
X2197619Y-30076190D02*
X2864285Y-30076190D01*
X2673809Y-30076190D02*
X2769047Y-30028571D01*
X2816666Y-29980952D01*
X2864285Y-29885714D01*
X2864285Y-29790476D01*
X2197619Y-29457142D02*
X2864285Y-29457142D01*
X3197619Y-29457142D02*
X3150000Y-29504761D01*
X3102380Y-29457142D01*
X3150000Y-29409523D01*
X3197619Y-29457142D01*
X3102380Y-29457142D01*
X2864285Y-29076190D02*
X2197619Y-28838095D01*
X2864285Y-28600000D01*
X2245238Y-27838095D02*
X2197619Y-27933333D01*
X2197619Y-28123809D01*
X2245238Y-28219047D01*
X2340476Y-28266666D01*
X2721428Y-28266666D01*
X2816666Y-28219047D01*
X2864285Y-28123809D01*
X2864285Y-27933333D01*
X2816666Y-27838095D01*
X2721428Y-27790476D01*
X2626190Y-27790476D01*
X2530952Y-28266666D01*
X2197619Y-27361904D02*
X3197619Y-27361904D01*
X2816666Y-27361904D02*
X2864285Y-27266666D01*
X2864285Y-27076190D01*
X2816666Y-26980952D01*
X2769047Y-26933333D01*
X2673809Y-26885714D01*
X2388095Y-26885714D01*
X2292857Y-26933333D01*
X2245238Y-26980952D01*
X2197619Y-27076190D01*
X2197619Y-27266666D01*
X2245238Y-27361904D01*
X2864285Y-26552380D02*
X2197619Y-26314285D01*
X2864285Y-26076190D02*
X2197619Y-26314285D01*
X1959523Y-26409523D01*
X1911904Y-26457142D01*
X1864285Y-26552380D01*
X2292857Y-25695238D02*
X2245238Y-25647619D01*
X2197619Y-25695238D01*
X2245238Y-25742857D01*
X2292857Y-25695238D01*
X2197619Y-25695238D01*
X2245238Y-24790476D02*
X2197619Y-24885714D01*
X2197619Y-25076190D01*
X2245238Y-25171428D01*
X2292857Y-25219047D01*
X2388095Y-25266666D01*
X2673809Y-25266666D01*
X2769047Y-25219047D01*
X2816666Y-25171428D01*
X2864285Y-25076190D01*
X2864285Y-24885714D01*
X2816666Y-24790476D01*
X2197619Y-24219047D02*
X2245238Y-24314285D01*
X2292857Y-24361904D01*
X2388095Y-24409523D01*
X2673809Y-24409523D01*
X2769047Y-24361904D01*
X2816666Y-24314285D01*
X2864285Y-24219047D01*
X2864285Y-24076190D01*
X2816666Y-23980952D01*
X2769047Y-23933333D01*
X2673809Y-23885714D01*
X2388095Y-23885714D01*
X2292857Y-23933333D01*
X2245238Y-23980952D01*
X2197619Y-24076190D01*
X2197619Y-24219047D01*
X2197619Y-23457142D02*
X2864285Y-23457142D01*
X2769047Y-23457142D02*
X2816666Y-23409523D01*
X2864285Y-23314285D01*
X2864285Y-23171428D01*
X2816666Y-23076190D01*
X2721428Y-23028571D01*
X2197619Y-23028571D01*
X2721428Y-23028571D02*
X2816666Y-22980952D01*
X2864285Y-22885714D01*
X2864285Y-22742857D01*
X2816666Y-22647619D01*
X2721428Y-22600000D01*
X2197619Y-22600000D01*
X48266666Y-33702380D02*
X48600000Y-33226190D01*
X48838095Y-33702380D02*
X48838095Y-32702380D01*
X48457142Y-32702380D01*
X48361904Y-32750000D01*
X48314285Y-32797619D01*
X48266666Y-32892857D01*
X48266666Y-33035714D01*
X48314285Y-33130952D01*
X48361904Y-33178571D01*
X48457142Y-33226190D01*
X48838095Y-33226190D01*
X47933333Y-32702380D02*
X47266666Y-33702380D01*
X47266666Y-32702380D02*
X47933333Y-33702380D01*
X56811904Y-32702380D02*
X56240476Y-32702380D01*
X56526190Y-33702380D02*
X56526190Y-32702380D01*
X56002380Y-32702380D02*
X55335714Y-33702380D01*
X55335714Y-32702380D02*
X56002380Y-33702380D01*
D11*
X51507500Y-35300000D02*
X51507500Y-31200000D01*
X49507500Y-31200000D02*
X49507500Y-35300000D01*
X51507500Y-31200000D02*
X49507500Y-31200000D01*
X49507500Y-35300000D02*
X51507500Y-35300000D01*
X54657500Y-35300000D02*
X54657500Y-31200000D01*
X52657500Y-31200000D02*
X52657500Y-35300000D01*
X54657500Y-31200000D02*
X52657500Y-31200000D01*
X52657500Y-35300000D02*
X54657500Y-35300000D01*
M02*
