G04 #@! TF.GenerationSoftware,KiCad,Pcbnew,6.0.2+dfsg-1*
G04 #@! TF.CreationDate,2023-01-17T17:16:50-08:00*
G04 #@! TF.ProjectId,DNS-DriveBy,444e532d-4472-4697-9665-42792e6b6963,rev?*
G04 #@! TF.SameCoordinates,Original*
G04 #@! TF.FileFunction,Soldermask,Bot*
G04 #@! TF.FilePolarity,Negative*
%FSLAX46Y46*%
G04 Gerber Fmt 4.6, Leading zero omitted, Abs format (unit mm)*
G04 Created by KiCad (PCBNEW 6.0.2+dfsg-1) date 2023-01-17 17:16:50*
%MOMM*%
%LPD*%
G01*
G04 APERTURE LIST*
%ADD10C,4.700000*%
%ADD11C,1.600000*%
%ADD12O,1.600000X1.600000*%
%ADD13R,1.500000X1.500000*%
%ADD14C,1.500000*%
%ADD15C,1.524000*%
%ADD16R,2.000000X2.000000*%
%ADD17O,2.000000X1.600000*%
%ADD18R,1.400000X1.400000*%
%ADD19C,1.400000*%
G04 APERTURE END LIST*
D10*
X3500000Y-3500000D03*
D11*
X8890000Y-25146000D03*
D12*
X8890000Y-17526000D03*
D13*
X4260000Y-13167200D03*
D14*
X4260000Y-10627200D03*
X4260000Y-8087200D03*
D11*
X74676000Y-20904200D03*
D12*
X67056000Y-20904200D03*
D15*
X48260000Y-38301200D03*
X50800000Y-38301200D03*
X53340000Y-38301200D03*
X55880000Y-38301200D03*
D16*
X13081000Y-14173200D03*
D17*
X13081000Y-16713200D03*
X13081000Y-19253200D03*
X13081000Y-21793200D03*
X13081000Y-24333200D03*
X13081000Y-26873200D03*
X13081000Y-29413200D03*
X13081000Y-31953200D03*
X35941000Y-31953200D03*
X35941000Y-29413200D03*
X35941000Y-26873200D03*
X35941000Y-24333200D03*
X35941000Y-21793200D03*
X35941000Y-19253200D03*
X35941000Y-16713200D03*
X35941000Y-14173200D03*
D10*
X74000000Y-3500000D03*
D18*
X68331500Y-9221200D03*
D19*
X70831500Y-9221200D03*
X73331500Y-9221200D03*
X68331500Y-12521200D03*
X70831500Y-12521200D03*
X73331500Y-12521200D03*
D11*
X67056000Y-17475200D03*
D12*
X74676000Y-17475200D03*
D11*
X8890000Y-27432000D03*
D12*
X8890000Y-35052000D03*
D15*
X5588000Y-18821400D03*
X3048000Y-18821400D03*
D13*
X8287600Y-8067200D03*
D14*
X8287600Y-10607200D03*
X8287600Y-13147200D03*
D10*
X74000000Y-38000000D03*
X3500000Y-38000000D03*
M02*
