G04 #@! TF.GenerationSoftware,KiCad,Pcbnew,6.0.2+dfsg-1*
G04 #@! TF.CreationDate,2023-06-14T18:40:44-07:00*
G04 #@! TF.ProjectId,DNS-DriveBy,444e532d-4472-4697-9665-42792e6b6963,rev?*
G04 #@! TF.SameCoordinates,Original*
G04 #@! TF.FileFunction,Legend,Bot*
G04 #@! TF.FilePolarity,Positive*
%FSLAX46Y46*%
G04 Gerber Fmt 4.6, Leading zero omitted, Abs format (unit mm)*
G04 Created by KiCad (PCBNEW 6.0.2+dfsg-1) date 2023-06-14 18:40:44*
%MOMM*%
%LPD*%
G01*
G04 APERTURE LIST*
%ADD10C,0.150000*%
%ADD11C,0.010000*%
%ADD12C,0.120000*%
G04 APERTURE END LIST*
D10*
X52830200Y-37738200D02*
X52367700Y-37250700D01*
X51830200Y-37263200D02*
X51830200Y-33588200D01*
X43455200Y-39363400D02*
X43455200Y-37363400D01*
X66955200Y-22538200D02*
X66955200Y-20738200D01*
X66955200Y-16363200D02*
X66955200Y-17863200D01*
X51355200Y-37738200D02*
X51830200Y-37263200D01*
X51830200Y-33588200D02*
X51555200Y-33363200D01*
X52367700Y-33575700D02*
X52630200Y-33338200D01*
X52367700Y-37250700D02*
X52367700Y-33575700D01*
X52650000Y-32600000D02*
X54650000Y-32600000D01*
X49500000Y-32600000D02*
X51500000Y-32600000D01*
X56738095Y-35252380D02*
X56738095Y-34252380D01*
X56500000Y-34252380D01*
X56357142Y-34300000D01*
X56261904Y-34395238D01*
X56214285Y-34490476D01*
X56166666Y-34680952D01*
X56166666Y-34823809D01*
X56214285Y-35014285D01*
X56261904Y-35109523D01*
X56357142Y-35204761D01*
X56500000Y-35252380D01*
X56738095Y-35252380D01*
X55833333Y-34252380D02*
X55214285Y-34252380D01*
X55547619Y-34633333D01*
X55404761Y-34633333D01*
X55309523Y-34680952D01*
X55261904Y-34728571D01*
X55214285Y-34823809D01*
X55214285Y-35061904D01*
X55261904Y-35157142D01*
X55309523Y-35204761D01*
X55404761Y-35252380D01*
X55690476Y-35252380D01*
X55785714Y-35204761D01*
X55833333Y-35157142D01*
X48266666Y-32202380D02*
X48600000Y-31726190D01*
X48838095Y-32202380D02*
X48838095Y-31202380D01*
X48457142Y-31202380D01*
X48361904Y-31250000D01*
X48314285Y-31297619D01*
X48266666Y-31392857D01*
X48266666Y-31535714D01*
X48314285Y-31630952D01*
X48361904Y-31678571D01*
X48457142Y-31726190D01*
X48838095Y-31726190D01*
X47933333Y-31202380D02*
X47266666Y-32202380D01*
X47266666Y-31202380D02*
X47933333Y-32202380D01*
X48838095Y-35102380D02*
X48838095Y-34102380D01*
X48600000Y-34102380D01*
X48457142Y-34150000D01*
X48361904Y-34245238D01*
X48314285Y-34340476D01*
X48266666Y-34530952D01*
X48266666Y-34673809D01*
X48314285Y-34864285D01*
X48361904Y-34959523D01*
X48457142Y-35054761D01*
X48600000Y-35102380D01*
X48838095Y-35102380D01*
X47409523Y-34435714D02*
X47409523Y-35102380D01*
X47647619Y-34054761D02*
X47885714Y-34769047D01*
X47266666Y-34769047D01*
X35716666Y-6549761D02*
X35573809Y-6597380D01*
X35335714Y-6597380D01*
X35240476Y-6549761D01*
X35192857Y-6502142D01*
X35145238Y-6406904D01*
X35145238Y-6311666D01*
X35192857Y-6216428D01*
X35240476Y-6168809D01*
X35335714Y-6121190D01*
X35526190Y-6073571D01*
X35621428Y-6025952D01*
X35669047Y-5978333D01*
X35716666Y-5883095D01*
X35716666Y-5787857D01*
X35669047Y-5692619D01*
X35621428Y-5645000D01*
X35526190Y-5597380D01*
X35288095Y-5597380D01*
X35145238Y-5645000D01*
X34764285Y-6549761D02*
X34621428Y-6597380D01*
X34383333Y-6597380D01*
X34288095Y-6549761D01*
X34240476Y-6502142D01*
X34192857Y-6406904D01*
X34192857Y-6311666D01*
X34240476Y-6216428D01*
X34288095Y-6168809D01*
X34383333Y-6121190D01*
X34573809Y-6073571D01*
X34669047Y-6025952D01*
X34716666Y-5978333D01*
X34764285Y-5883095D01*
X34764285Y-5787857D01*
X34716666Y-5692619D01*
X34669047Y-5645000D01*
X34573809Y-5597380D01*
X34335714Y-5597380D01*
X34192857Y-5645000D01*
X33764285Y-6597380D02*
X33764285Y-5597380D01*
X33526190Y-5597380D01*
X33383333Y-5645000D01*
X33288095Y-5740238D01*
X33240476Y-5835476D01*
X33192857Y-6025952D01*
X33192857Y-6168809D01*
X33240476Y-6359285D01*
X33288095Y-6454523D01*
X33383333Y-6549761D01*
X33526190Y-6597380D01*
X33764285Y-6597380D01*
X32240476Y-6597380D02*
X32811904Y-6597380D01*
X32526190Y-6597380D02*
X32526190Y-5597380D01*
X32621428Y-5740238D01*
X32716666Y-5835476D01*
X32811904Y-5883095D01*
X31907142Y-5597380D02*
X31288095Y-5597380D01*
X31621428Y-5978333D01*
X31478571Y-5978333D01*
X31383333Y-6025952D01*
X31335714Y-6073571D01*
X31288095Y-6168809D01*
X31288095Y-6406904D01*
X31335714Y-6502142D01*
X31383333Y-6549761D01*
X31478571Y-6597380D01*
X31764285Y-6597380D01*
X31859523Y-6549761D01*
X31907142Y-6502142D01*
X30669047Y-5597380D02*
X30573809Y-5597380D01*
X30478571Y-5645000D01*
X30430952Y-5692619D01*
X30383333Y-5787857D01*
X30335714Y-5978333D01*
X30335714Y-6216428D01*
X30383333Y-6406904D01*
X30430952Y-6502142D01*
X30478571Y-6549761D01*
X30573809Y-6597380D01*
X30669047Y-6597380D01*
X30764285Y-6549761D01*
X30811904Y-6502142D01*
X30859523Y-6406904D01*
X30907142Y-6216428D01*
X30907142Y-5978333D01*
X30859523Y-5787857D01*
X30811904Y-5692619D01*
X30764285Y-5645000D01*
X30669047Y-5597380D01*
X29478571Y-5597380D02*
X29669047Y-5597380D01*
X29764285Y-5645000D01*
X29811904Y-5692619D01*
X29907142Y-5835476D01*
X29954761Y-6025952D01*
X29954761Y-6406904D01*
X29907142Y-6502142D01*
X29859523Y-6549761D01*
X29764285Y-6597380D01*
X29573809Y-6597380D01*
X29478571Y-6549761D01*
X29430952Y-6502142D01*
X29383333Y-6406904D01*
X29383333Y-6168809D01*
X29430952Y-6073571D01*
X29478571Y-6025952D01*
X29573809Y-5978333D01*
X29764285Y-5978333D01*
X29859523Y-6025952D01*
X29907142Y-6073571D01*
X29954761Y-6168809D01*
X35264285Y-8159761D02*
X35121428Y-8207380D01*
X34883333Y-8207380D01*
X34788095Y-8159761D01*
X34740476Y-8112142D01*
X34692857Y-8016904D01*
X34692857Y-7921666D01*
X34740476Y-7826428D01*
X34788095Y-7778809D01*
X34883333Y-7731190D01*
X35073809Y-7683571D01*
X35169047Y-7635952D01*
X35216666Y-7588333D01*
X35264285Y-7493095D01*
X35264285Y-7397857D01*
X35216666Y-7302619D01*
X35169047Y-7255000D01*
X35073809Y-7207380D01*
X34835714Y-7207380D01*
X34692857Y-7255000D01*
X34264285Y-8207380D02*
X34264285Y-7207380D01*
X34264285Y-7683571D02*
X33692857Y-7683571D01*
X33692857Y-8207380D02*
X33692857Y-7207380D01*
X32692857Y-8207380D02*
X33264285Y-8207380D01*
X32978571Y-8207380D02*
X32978571Y-7207380D01*
X33073809Y-7350238D01*
X33169047Y-7445476D01*
X33264285Y-7493095D01*
X31740476Y-8207380D02*
X32311904Y-8207380D01*
X32026190Y-8207380D02*
X32026190Y-7207380D01*
X32121428Y-7350238D01*
X32216666Y-7445476D01*
X32311904Y-7493095D01*
X31121428Y-7207380D02*
X31026190Y-7207380D01*
X30930952Y-7255000D01*
X30883333Y-7302619D01*
X30835714Y-7397857D01*
X30788095Y-7588333D01*
X30788095Y-7826428D01*
X30835714Y-8016904D01*
X30883333Y-8112142D01*
X30930952Y-8159761D01*
X31026190Y-8207380D01*
X31121428Y-8207380D01*
X31216666Y-8159761D01*
X31264285Y-8112142D01*
X31311904Y-8016904D01*
X31359523Y-7826428D01*
X31359523Y-7588333D01*
X31311904Y-7397857D01*
X31264285Y-7302619D01*
X31216666Y-7255000D01*
X31121428Y-7207380D01*
X29930952Y-7207380D02*
X30121428Y-7207380D01*
X30216666Y-7255000D01*
X30264285Y-7302619D01*
X30359523Y-7445476D01*
X30407142Y-7635952D01*
X30407142Y-8016904D01*
X30359523Y-8112142D01*
X30311904Y-8159761D01*
X30216666Y-8207380D01*
X30026190Y-8207380D01*
X29930952Y-8159761D01*
X29883333Y-8112142D01*
X29835714Y-8016904D01*
X29835714Y-7778809D01*
X29883333Y-7683571D01*
X29930952Y-7635952D01*
X30026190Y-7588333D01*
X30216666Y-7588333D01*
X30311904Y-7635952D01*
X30359523Y-7683571D01*
X30407142Y-7778809D01*
X56811904Y-31202380D02*
X56240476Y-31202380D01*
X56526190Y-32202380D02*
X56526190Y-31202380D01*
X56002380Y-31202380D02*
X55335714Y-32202380D01*
X55335714Y-31202380D02*
X56002380Y-32202380D01*
X54740476Y-29050000D02*
X54835714Y-29002380D01*
X54978571Y-29002380D01*
X55121428Y-29050000D01*
X55216666Y-29145238D01*
X55264285Y-29240476D01*
X55311904Y-29430952D01*
X55311904Y-29573809D01*
X55264285Y-29764285D01*
X55216666Y-29859523D01*
X55121428Y-29954761D01*
X54978571Y-30002380D01*
X54883333Y-30002380D01*
X54740476Y-29954761D01*
X54692857Y-29907142D01*
X54692857Y-29573809D01*
X54883333Y-29573809D01*
X54264285Y-30002380D02*
X54264285Y-29002380D01*
X53883333Y-29002380D01*
X53788095Y-29050000D01*
X53740476Y-29097619D01*
X53692857Y-29192857D01*
X53692857Y-29335714D01*
X53740476Y-29430952D01*
X53788095Y-29478571D01*
X53883333Y-29526190D01*
X54264285Y-29526190D01*
X53311904Y-29954761D02*
X53169047Y-30002380D01*
X52930952Y-30002380D01*
X52835714Y-29954761D01*
X52788095Y-29907142D01*
X52740476Y-29811904D01*
X52740476Y-29716666D01*
X52788095Y-29621428D01*
X52835714Y-29573809D01*
X52930952Y-29526190D01*
X53121428Y-29478571D01*
X53216666Y-29430952D01*
X53264285Y-29383333D01*
X53311904Y-29288095D01*
X53311904Y-29192857D01*
X53264285Y-29097619D01*
X53216666Y-29050000D01*
X53121428Y-29002380D01*
X52883333Y-29002380D01*
X52740476Y-29050000D01*
X51550000Y-30002380D02*
X51550000Y-29002380D01*
X51169047Y-29002380D01*
X51073809Y-29050000D01*
X51026190Y-29097619D01*
X50978571Y-29192857D01*
X50978571Y-29335714D01*
X51026190Y-29430952D01*
X51073809Y-29478571D01*
X51169047Y-29526190D01*
X51550000Y-29526190D01*
X50549999Y-30002380D02*
X50549999Y-29335714D01*
X50549999Y-29002380D02*
X50597619Y-29050000D01*
X50549999Y-29097619D01*
X50502380Y-29050000D01*
X50549999Y-29002380D01*
X50549999Y-29097619D01*
X50073809Y-29335714D02*
X50073809Y-30002380D01*
X50073809Y-29430952D02*
X50026190Y-29383333D01*
X49930952Y-29335714D01*
X49788095Y-29335714D01*
X49692857Y-29383333D01*
X49645238Y-29478571D01*
X49645238Y-30002380D01*
X49216666Y-29954761D02*
X49121428Y-30002380D01*
X48930952Y-30002380D01*
X48835714Y-29954761D01*
X48788095Y-29859523D01*
X48788095Y-29811904D01*
X48835714Y-29716666D01*
X48930952Y-29669047D01*
X49073809Y-29669047D01*
X49169047Y-29621428D01*
X49216666Y-29526190D01*
X49216666Y-29478571D01*
X49169047Y-29383333D01*
X49073809Y-29335714D01*
X48930952Y-29335714D01*
X48835714Y-29383333D01*
X40324247Y-37913200D02*
X40419485Y-37865580D01*
X40562342Y-37865580D01*
X40705200Y-37913200D01*
X40800438Y-38008438D01*
X40848057Y-38103676D01*
X40895676Y-38294152D01*
X40895676Y-38437009D01*
X40848057Y-38627485D01*
X40800438Y-38722723D01*
X40705200Y-38817961D01*
X40562342Y-38865580D01*
X40467104Y-38865580D01*
X40324247Y-38817961D01*
X40276628Y-38770342D01*
X40276628Y-38437009D01*
X40467104Y-38437009D01*
X39848057Y-38865580D02*
X39848057Y-37865580D01*
X39467104Y-37865580D01*
X39371866Y-37913200D01*
X39324247Y-37960819D01*
X39276628Y-38056057D01*
X39276628Y-38198914D01*
X39324247Y-38294152D01*
X39371866Y-38341771D01*
X39467104Y-38389390D01*
X39848057Y-38389390D01*
X38895676Y-38817961D02*
X38752819Y-38865580D01*
X38514723Y-38865580D01*
X38419485Y-38817961D01*
X38371866Y-38770342D01*
X38324247Y-38675104D01*
X38324247Y-38579866D01*
X38371866Y-38484628D01*
X38419485Y-38437009D01*
X38514723Y-38389390D01*
X38705200Y-38341771D01*
X38800438Y-38294152D01*
X38848057Y-38246533D01*
X38895676Y-38151295D01*
X38895676Y-38056057D01*
X38848057Y-37960819D01*
X38800438Y-37913200D01*
X38705200Y-37865580D01*
X38467104Y-37865580D01*
X38324247Y-37913200D01*
X36609961Y-37913200D02*
X36705200Y-37865580D01*
X36848057Y-37865580D01*
X36990914Y-37913200D01*
X37086152Y-38008438D01*
X37133771Y-38103676D01*
X37181390Y-38294152D01*
X37181390Y-38437009D01*
X37133771Y-38627485D01*
X37086152Y-38722723D01*
X36990914Y-38817961D01*
X36848057Y-38865580D01*
X36752819Y-38865580D01*
X36609961Y-38817961D01*
X36562342Y-38770342D01*
X36562342Y-38437009D01*
X36752819Y-38437009D01*
X36133771Y-38865580D02*
X36133771Y-37865580D01*
X35562342Y-38865580D01*
X35562342Y-37865580D01*
X35086152Y-38865580D02*
X35086152Y-37865580D01*
X34848057Y-37865580D01*
X34705200Y-37913200D01*
X34609961Y-38008438D01*
X34562342Y-38103676D01*
X34514723Y-38294152D01*
X34514723Y-38437009D01*
X34562342Y-38627485D01*
X34609961Y-38722723D01*
X34705200Y-38817961D01*
X34848057Y-38865580D01*
X35086152Y-38865580D01*
D11*
X63030887Y-38123930D02*
X63071755Y-38130862D01*
X63071755Y-38130862D02*
X63080893Y-38137109D01*
X63080893Y-38137109D02*
X63072942Y-38160767D01*
X63072942Y-38160767D02*
X63050840Y-38216823D01*
X63050840Y-38216823D02*
X63017231Y-38298818D01*
X63017231Y-38298818D02*
X62974763Y-38400290D01*
X62974763Y-38400290D02*
X62929271Y-38507332D01*
X62929271Y-38507332D02*
X62875775Y-38632772D01*
X62875775Y-38632772D02*
X62837342Y-38725250D01*
X62837342Y-38725250D02*
X62812310Y-38790691D01*
X62812310Y-38790691D02*
X62799015Y-38835023D01*
X62799015Y-38835023D02*
X62795797Y-38864173D01*
X62795797Y-38864173D02*
X62800993Y-38884067D01*
X62800993Y-38884067D02*
X62812940Y-38900632D01*
X62812940Y-38900632D02*
X62817536Y-38905776D01*
X62817536Y-38905776D02*
X62860596Y-38935999D01*
X62860596Y-38935999D02*
X62915543Y-38937099D01*
X62915543Y-38937099D02*
X62978902Y-38915991D01*
X62978902Y-38915991D02*
X63010145Y-38916518D01*
X63010145Y-38916518D02*
X63039893Y-38951111D01*
X63039893Y-38951111D02*
X63049226Y-38968096D01*
X63049226Y-38968096D02*
X63072882Y-39031455D01*
X63072882Y-39031455D02*
X63062747Y-39074173D01*
X63062747Y-39074173D02*
X63015350Y-39103758D01*
X63015350Y-39103758D02*
X62981503Y-39114631D01*
X62981503Y-39114631D02*
X62909177Y-39131353D01*
X62909177Y-39131353D02*
X62852148Y-39132635D01*
X62852148Y-39132635D02*
X62786293Y-39118476D01*
X62786293Y-39118476D02*
X62772792Y-39114622D01*
X62772792Y-39114622D02*
X62710187Y-39084634D01*
X62710187Y-39084634D02*
X62660637Y-39045279D01*
X62660637Y-39045279D02*
X62641891Y-39015259D01*
X62641891Y-39015259D02*
X62610173Y-38953747D01*
X62610173Y-38953747D02*
X62568599Y-38867731D01*
X62568599Y-38867731D02*
X62520288Y-38764204D01*
X62520288Y-38764204D02*
X62468359Y-38650155D01*
X62468359Y-38650155D02*
X62415927Y-38532575D01*
X62415927Y-38532575D02*
X62366113Y-38418454D01*
X62366113Y-38418454D02*
X62322033Y-38314783D01*
X62322033Y-38314783D02*
X62286805Y-38228553D01*
X62286805Y-38228553D02*
X62263548Y-38166753D01*
X62263548Y-38166753D02*
X62255375Y-38136666D01*
X62255375Y-38136666D02*
X62274365Y-38127819D01*
X62274365Y-38127819D02*
X62323019Y-38124313D01*
X62323019Y-38124313D02*
X62363069Y-38125420D01*
X62363069Y-38125420D02*
X62470764Y-38131818D01*
X62470764Y-38131818D02*
X62559927Y-38348078D01*
X62559927Y-38348078D02*
X62596705Y-38436104D01*
X62596705Y-38436104D02*
X62627957Y-38508715D01*
X62627957Y-38508715D02*
X62650015Y-38557528D01*
X62650015Y-38557528D02*
X62658754Y-38574002D01*
X62658754Y-38574002D02*
X62669906Y-38559499D01*
X62669906Y-38559499D02*
X62693123Y-38512863D01*
X62693123Y-38512863D02*
X62725009Y-38441374D01*
X62725009Y-38441374D02*
X62762111Y-38352450D01*
X62762111Y-38352450D02*
X62855804Y-38121234D01*
X62855804Y-38121234D02*
X62968339Y-38121234D01*
X62968339Y-38121234D02*
X63030887Y-38123930D01*
X63030887Y-38123930D02*
X63030887Y-38123930D01*
G36*
X63030887Y-38123930D02*
G01*
X63071755Y-38130862D01*
X63080893Y-38137109D01*
X63072942Y-38160767D01*
X63050840Y-38216823D01*
X63017231Y-38298818D01*
X62974763Y-38400290D01*
X62929271Y-38507332D01*
X62875775Y-38632772D01*
X62837342Y-38725250D01*
X62812310Y-38790691D01*
X62799015Y-38835023D01*
X62795797Y-38864173D01*
X62800993Y-38884067D01*
X62812940Y-38900632D01*
X62817536Y-38905776D01*
X62860596Y-38935999D01*
X62915543Y-38937099D01*
X62978902Y-38915991D01*
X63010145Y-38916518D01*
X63039893Y-38951111D01*
X63049226Y-38968096D01*
X63072882Y-39031455D01*
X63062747Y-39074173D01*
X63015350Y-39103758D01*
X62981503Y-39114631D01*
X62909177Y-39131353D01*
X62852148Y-39132635D01*
X62786293Y-39118476D01*
X62772792Y-39114622D01*
X62710187Y-39084634D01*
X62660637Y-39045279D01*
X62641891Y-39015259D01*
X62610173Y-38953747D01*
X62568599Y-38867731D01*
X62520288Y-38764204D01*
X62468359Y-38650155D01*
X62415927Y-38532575D01*
X62366113Y-38418454D01*
X62322033Y-38314783D01*
X62286805Y-38228553D01*
X62263548Y-38166753D01*
X62255375Y-38136666D01*
X62274365Y-38127819D01*
X62323019Y-38124313D01*
X62363069Y-38125420D01*
X62470764Y-38131818D01*
X62559927Y-38348078D01*
X62596705Y-38436104D01*
X62627957Y-38508715D01*
X62650015Y-38557528D01*
X62658754Y-38574002D01*
X62669906Y-38559499D01*
X62693123Y-38512863D01*
X62725009Y-38441374D01*
X62762111Y-38352450D01*
X62855804Y-38121234D01*
X62968339Y-38121234D01*
X63030887Y-38123930D01*
G37*
X63030887Y-38123930D02*
X63071755Y-38130862D01*
X63080893Y-38137109D01*
X63072942Y-38160767D01*
X63050840Y-38216823D01*
X63017231Y-38298818D01*
X62974763Y-38400290D01*
X62929271Y-38507332D01*
X62875775Y-38632772D01*
X62837342Y-38725250D01*
X62812310Y-38790691D01*
X62799015Y-38835023D01*
X62795797Y-38864173D01*
X62800993Y-38884067D01*
X62812940Y-38900632D01*
X62817536Y-38905776D01*
X62860596Y-38935999D01*
X62915543Y-38937099D01*
X62978902Y-38915991D01*
X63010145Y-38916518D01*
X63039893Y-38951111D01*
X63049226Y-38968096D01*
X63072882Y-39031455D01*
X63062747Y-39074173D01*
X63015350Y-39103758D01*
X62981503Y-39114631D01*
X62909177Y-39131353D01*
X62852148Y-39132635D01*
X62786293Y-39118476D01*
X62772792Y-39114622D01*
X62710187Y-39084634D01*
X62660637Y-39045279D01*
X62641891Y-39015259D01*
X62610173Y-38953747D01*
X62568599Y-38867731D01*
X62520288Y-38764204D01*
X62468359Y-38650155D01*
X62415927Y-38532575D01*
X62366113Y-38418454D01*
X62322033Y-38314783D01*
X62286805Y-38228553D01*
X62263548Y-38166753D01*
X62255375Y-38136666D01*
X62274365Y-38127819D01*
X62323019Y-38124313D01*
X62363069Y-38125420D01*
X62470764Y-38131818D01*
X62559927Y-38348078D01*
X62596705Y-38436104D01*
X62627957Y-38508715D01*
X62650015Y-38557528D01*
X62658754Y-38574002D01*
X62669906Y-38559499D01*
X62693123Y-38512863D01*
X62725009Y-38441374D01*
X62762111Y-38352450D01*
X62855804Y-38121234D01*
X62968339Y-38121234D01*
X63030887Y-38123930D01*
X60939924Y-38155836D02*
X61034772Y-38213289D01*
X61034772Y-38213289D02*
X61109056Y-38293360D01*
X61109056Y-38293360D02*
X61156595Y-38391845D01*
X61156595Y-38391845D02*
X61171208Y-38504539D01*
X61171208Y-38504539D02*
X61166710Y-38551053D01*
X61166710Y-38551053D02*
X61128592Y-38669377D01*
X61128592Y-38669377D02*
X61058981Y-38763045D01*
X61058981Y-38763045D02*
X60962798Y-38828982D01*
X60962798Y-38828982D02*
X60844970Y-38864113D01*
X60844970Y-38864113D02*
X60710420Y-38865363D01*
X60710420Y-38865363D02*
X60672543Y-38859619D01*
X60672543Y-38859619D02*
X60558453Y-38818903D01*
X60558453Y-38818903D02*
X60466569Y-38746892D01*
X60466569Y-38746892D02*
X60402785Y-38650539D01*
X60402785Y-38650539D02*
X60372993Y-38536797D01*
X60372993Y-38536797D02*
X60371542Y-38504455D01*
X60371542Y-38504455D02*
X60372734Y-38495980D01*
X60372734Y-38495980D02*
X60605048Y-38495980D01*
X60605048Y-38495980D02*
X60619857Y-38583443D01*
X60619857Y-38583443D02*
X60664520Y-38642995D01*
X60664520Y-38642995D02*
X60712128Y-38669463D01*
X60712128Y-38669463D02*
X60787120Y-38680773D01*
X60787120Y-38680773D02*
X60856574Y-38651439D01*
X60856574Y-38651439D02*
X60895417Y-38615760D01*
X60895417Y-38615760D02*
X60936298Y-38543316D01*
X60936298Y-38543316D02*
X60936138Y-38460871D01*
X60936138Y-38460871D02*
X60912074Y-38397915D01*
X60912074Y-38397915D02*
X60862757Y-38338675D01*
X60862757Y-38338675D02*
X60800337Y-38312381D01*
X60800337Y-38312381D02*
X60734117Y-38316062D01*
X60734117Y-38316062D02*
X60673400Y-38346747D01*
X60673400Y-38346747D02*
X60627490Y-38401464D01*
X60627490Y-38401464D02*
X60605689Y-38477241D01*
X60605689Y-38477241D02*
X60605048Y-38495980D01*
X60605048Y-38495980D02*
X60372734Y-38495980D01*
X60372734Y-38495980D02*
X60389226Y-38378785D01*
X60389226Y-38378785D02*
X60442539Y-38275887D01*
X60442539Y-38275887D02*
X60531866Y-38195166D01*
X60531866Y-38195166D02*
X60593792Y-38161240D01*
X60593792Y-38161240D02*
X60713253Y-38125607D01*
X60713253Y-38125607D02*
X60830691Y-38125207D01*
X60830691Y-38125207D02*
X60939924Y-38155836D01*
X60939924Y-38155836D02*
X60939924Y-38155836D01*
G36*
X60442539Y-38275887D02*
G01*
X60531866Y-38195166D01*
X60593792Y-38161240D01*
X60713253Y-38125607D01*
X60830691Y-38125207D01*
X60939924Y-38155836D01*
X61034772Y-38213289D01*
X61109056Y-38293360D01*
X61156595Y-38391845D01*
X61171208Y-38504539D01*
X61166710Y-38551053D01*
X61128592Y-38669377D01*
X61058981Y-38763045D01*
X60962798Y-38828982D01*
X60844970Y-38864113D01*
X60710420Y-38865363D01*
X60672543Y-38859619D01*
X60558453Y-38818903D01*
X60466569Y-38746892D01*
X60402785Y-38650539D01*
X60372993Y-38536797D01*
X60371542Y-38504455D01*
X60372734Y-38495980D01*
X60605048Y-38495980D01*
X60619857Y-38583443D01*
X60664520Y-38642995D01*
X60712128Y-38669463D01*
X60787120Y-38680773D01*
X60856574Y-38651439D01*
X60895417Y-38615760D01*
X60936298Y-38543316D01*
X60936138Y-38460871D01*
X60912074Y-38397915D01*
X60862757Y-38338675D01*
X60800337Y-38312381D01*
X60734117Y-38316062D01*
X60673400Y-38346747D01*
X60627490Y-38401464D01*
X60605689Y-38477241D01*
X60605048Y-38495980D01*
X60372734Y-38495980D01*
X60389226Y-38378785D01*
X60442539Y-38275887D01*
G37*
X60442539Y-38275887D02*
X60531866Y-38195166D01*
X60593792Y-38161240D01*
X60713253Y-38125607D01*
X60830691Y-38125207D01*
X60939924Y-38155836D01*
X61034772Y-38213289D01*
X61109056Y-38293360D01*
X61156595Y-38391845D01*
X61171208Y-38504539D01*
X61166710Y-38551053D01*
X61128592Y-38669377D01*
X61058981Y-38763045D01*
X60962798Y-38828982D01*
X60844970Y-38864113D01*
X60710420Y-38865363D01*
X60672543Y-38859619D01*
X60558453Y-38818903D01*
X60466569Y-38746892D01*
X60402785Y-38650539D01*
X60372993Y-38536797D01*
X60371542Y-38504455D01*
X60372734Y-38495980D01*
X60605048Y-38495980D01*
X60619857Y-38583443D01*
X60664520Y-38642995D01*
X60712128Y-38669463D01*
X60787120Y-38680773D01*
X60856574Y-38651439D01*
X60895417Y-38615760D01*
X60936298Y-38543316D01*
X60936138Y-38460871D01*
X60912074Y-38397915D01*
X60862757Y-38338675D01*
X60800337Y-38312381D01*
X60734117Y-38316062D01*
X60673400Y-38346747D01*
X60627490Y-38401464D01*
X60605689Y-38477241D01*
X60605048Y-38495980D01*
X60372734Y-38495980D01*
X60389226Y-38378785D01*
X60442539Y-38275887D01*
X61620871Y-38128463D02*
X61686008Y-38145789D01*
X61686008Y-38145789D02*
X61799455Y-38203658D01*
X61799455Y-38203658D02*
X61880188Y-38287382D01*
X61880188Y-38287382D02*
X61926297Y-38394378D01*
X61926297Y-38394378D02*
X61936988Y-38484981D01*
X61936988Y-38484981D02*
X61922531Y-38615393D01*
X61922531Y-38615393D02*
X61876079Y-38718610D01*
X61876079Y-38718610D02*
X61796877Y-38795457D01*
X61796877Y-38795457D02*
X61684174Y-38846761D01*
X61684174Y-38846761D02*
X61588625Y-38867392D01*
X61588625Y-38867392D02*
X61527575Y-38871566D01*
X61527575Y-38871566D02*
X61482792Y-38868530D01*
X61482792Y-38868530D02*
X61405749Y-38852064D01*
X61405749Y-38852064D02*
X61354612Y-38834782D01*
X61354612Y-38834782D02*
X61313354Y-38810062D01*
X61313354Y-38810062D02*
X61283340Y-38786109D01*
X61283340Y-38786109D02*
X61233945Y-38736222D01*
X61233945Y-38736222D02*
X61223325Y-38696585D01*
X61223325Y-38696585D02*
X61252092Y-38659117D01*
X61252092Y-38659117D02*
X61295171Y-38630340D01*
X61295171Y-38630340D02*
X61344768Y-38602828D01*
X61344768Y-38602828D02*
X61374418Y-38596523D01*
X61374418Y-38596523D02*
X61400397Y-38610722D01*
X61400397Y-38610722D02*
X61416879Y-38625095D01*
X61416879Y-38625095D02*
X61482784Y-38670653D01*
X61482784Y-38670653D02*
X61546761Y-38680801D01*
X61546761Y-38680801D02*
X61599059Y-38668448D01*
X61599059Y-38668448D02*
X61659811Y-38634626D01*
X61659811Y-38634626D02*
X61693426Y-38580331D01*
X61693426Y-38580331D02*
X61704912Y-38496848D01*
X61704912Y-38496848D02*
X61705042Y-38483995D01*
X61705042Y-38483995D02*
X61697180Y-38417594D01*
X61697180Y-38417594D02*
X61667878Y-38371777D01*
X61667878Y-38371777D02*
X61649270Y-38355604D01*
X61649270Y-38355604D02*
X61599274Y-38324946D01*
X61599274Y-38324946D02*
X61555889Y-38311745D01*
X61555889Y-38311745D02*
X61555016Y-38311734D01*
X61555016Y-38311734D02*
X61507686Y-38319938D01*
X61507686Y-38319938D02*
X61456850Y-38339559D01*
X61456850Y-38339559D02*
X61418885Y-38363107D01*
X61418885Y-38363107D02*
X61408708Y-38378632D01*
X61408708Y-38378632D02*
X61392399Y-38395025D01*
X61392399Y-38395025D02*
X61350682Y-38391062D01*
X61350682Y-38391062D02*
X61294370Y-38368296D01*
X61294370Y-38368296D02*
X61279682Y-38360087D01*
X61279682Y-38360087D02*
X61233014Y-38325520D01*
X61233014Y-38325520D02*
X61222605Y-38292150D01*
X61222605Y-38292150D02*
X61248233Y-38250512D01*
X61248233Y-38250512D02*
X61276417Y-38221791D01*
X61276417Y-38221791D02*
X61376527Y-38154292D01*
X61376527Y-38154292D02*
X61493769Y-38122733D01*
X61493769Y-38122733D02*
X61620871Y-38128463D01*
X61620871Y-38128463D02*
X61620871Y-38128463D01*
G36*
X61620871Y-38128463D02*
G01*
X61686008Y-38145789D01*
X61799455Y-38203658D01*
X61880188Y-38287382D01*
X61926297Y-38394378D01*
X61936988Y-38484981D01*
X61922531Y-38615393D01*
X61876079Y-38718610D01*
X61796877Y-38795457D01*
X61684174Y-38846761D01*
X61588625Y-38867392D01*
X61527575Y-38871566D01*
X61482792Y-38868530D01*
X61405749Y-38852064D01*
X61354612Y-38834782D01*
X61313354Y-38810062D01*
X61283340Y-38786109D01*
X61233945Y-38736222D01*
X61223325Y-38696585D01*
X61252092Y-38659117D01*
X61295171Y-38630340D01*
X61344768Y-38602828D01*
X61374418Y-38596523D01*
X61400397Y-38610722D01*
X61416879Y-38625095D01*
X61482784Y-38670653D01*
X61546761Y-38680801D01*
X61599059Y-38668448D01*
X61659811Y-38634626D01*
X61693426Y-38580331D01*
X61704912Y-38496848D01*
X61705042Y-38483995D01*
X61697180Y-38417594D01*
X61667878Y-38371777D01*
X61649270Y-38355604D01*
X61599274Y-38324946D01*
X61555889Y-38311745D01*
X61555016Y-38311734D01*
X61507686Y-38319938D01*
X61456850Y-38339559D01*
X61418885Y-38363107D01*
X61408708Y-38378632D01*
X61392399Y-38395025D01*
X61350682Y-38391062D01*
X61294370Y-38368296D01*
X61279682Y-38360087D01*
X61233014Y-38325520D01*
X61222605Y-38292150D01*
X61248233Y-38250512D01*
X61276417Y-38221791D01*
X61376527Y-38154292D01*
X61493769Y-38122733D01*
X61620871Y-38128463D01*
G37*
X61620871Y-38128463D02*
X61686008Y-38145789D01*
X61799455Y-38203658D01*
X61880188Y-38287382D01*
X61926297Y-38394378D01*
X61936988Y-38484981D01*
X61922531Y-38615393D01*
X61876079Y-38718610D01*
X61796877Y-38795457D01*
X61684174Y-38846761D01*
X61588625Y-38867392D01*
X61527575Y-38871566D01*
X61482792Y-38868530D01*
X61405749Y-38852064D01*
X61354612Y-38834782D01*
X61313354Y-38810062D01*
X61283340Y-38786109D01*
X61233945Y-38736222D01*
X61223325Y-38696585D01*
X61252092Y-38659117D01*
X61295171Y-38630340D01*
X61344768Y-38602828D01*
X61374418Y-38596523D01*
X61400397Y-38610722D01*
X61416879Y-38625095D01*
X61482784Y-38670653D01*
X61546761Y-38680801D01*
X61599059Y-38668448D01*
X61659811Y-38634626D01*
X61693426Y-38580331D01*
X61704912Y-38496848D01*
X61705042Y-38483995D01*
X61697180Y-38417594D01*
X61667878Y-38371777D01*
X61649270Y-38355604D01*
X61599274Y-38324946D01*
X61555889Y-38311745D01*
X61555016Y-38311734D01*
X61507686Y-38319938D01*
X61456850Y-38339559D01*
X61418885Y-38363107D01*
X61408708Y-38378632D01*
X61392399Y-38395025D01*
X61350682Y-38391062D01*
X61294370Y-38368296D01*
X61279682Y-38360087D01*
X61233014Y-38325520D01*
X61222605Y-38292150D01*
X61248233Y-38250512D01*
X61276417Y-38221791D01*
X61376527Y-38154292D01*
X61493769Y-38122733D01*
X61620871Y-38128463D01*
X62226255Y-38628348D02*
X62243280Y-38641329D01*
X62243280Y-38641329D02*
X62269017Y-38691322D01*
X62269017Y-38691322D02*
X62275545Y-38756216D01*
X62275545Y-38756216D02*
X62260548Y-38812097D01*
X62260548Y-38812097D02*
X62259912Y-38813118D01*
X62259912Y-38813118D02*
X62222087Y-38843593D01*
X62222087Y-38843593D02*
X62165428Y-38864780D01*
X62165428Y-38864780D02*
X62113422Y-38868415D01*
X62113422Y-38868415D02*
X62107208Y-38866850D01*
X62107208Y-38866850D02*
X62045367Y-38829567D01*
X62045367Y-38829567D02*
X62009533Y-38773519D01*
X62009533Y-38773519D02*
X62003301Y-38710689D01*
X62003301Y-38710689D02*
X62030266Y-38653059D01*
X62030266Y-38653059D02*
X62040083Y-38643098D01*
X62040083Y-38643098D02*
X62096429Y-38615175D01*
X62096429Y-38615175D02*
X62165167Y-38610201D01*
X62165167Y-38610201D02*
X62226255Y-38628348D01*
X62226255Y-38628348D02*
X62226255Y-38628348D01*
G36*
X62226255Y-38628348D02*
G01*
X62243280Y-38641329D01*
X62269017Y-38691322D01*
X62275545Y-38756216D01*
X62260548Y-38812097D01*
X62259912Y-38813118D01*
X62222087Y-38843593D01*
X62165428Y-38864780D01*
X62113422Y-38868415D01*
X62107208Y-38866850D01*
X62045367Y-38829567D01*
X62009533Y-38773519D01*
X62003301Y-38710689D01*
X62030266Y-38653059D01*
X62040083Y-38643098D01*
X62096429Y-38615175D01*
X62165167Y-38610201D01*
X62226255Y-38628348D01*
G37*
X62226255Y-38628348D02*
X62243280Y-38641329D01*
X62269017Y-38691322D01*
X62275545Y-38756216D01*
X62260548Y-38812097D01*
X62259912Y-38813118D01*
X62222087Y-38843593D01*
X62165428Y-38864780D01*
X62113422Y-38868415D01*
X62107208Y-38866850D01*
X62045367Y-38829567D01*
X62009533Y-38773519D01*
X62003301Y-38710689D01*
X62030266Y-38653059D01*
X62040083Y-38643098D01*
X62096429Y-38615175D01*
X62165167Y-38610201D01*
X62226255Y-38628348D01*
X63864042Y-38862068D02*
X63759972Y-38862068D01*
X63759972Y-38862068D02*
X63696044Y-38857490D01*
X63696044Y-38857490D02*
X63655411Y-38845580D01*
X63655411Y-38845580D02*
X63647835Y-38837866D01*
X63647835Y-38837866D02*
X63628082Y-38824463D01*
X63628082Y-38824463D02*
X63598446Y-38834884D01*
X63598446Y-38834884D02*
X63497972Y-38865185D01*
X63497972Y-38865185D02*
X63382630Y-38865007D01*
X63382630Y-38865007D02*
X63345731Y-38858392D01*
X63345731Y-38858392D02*
X63255046Y-38819278D01*
X63255046Y-38819278D02*
X63172941Y-38750931D01*
X63172941Y-38750931D02*
X63113366Y-38666108D01*
X63113366Y-38666108D02*
X63100016Y-38633680D01*
X63100016Y-38633680D02*
X63083493Y-38538365D01*
X63083493Y-38538365D02*
X63084901Y-38505221D01*
X63084901Y-38505221D02*
X63313423Y-38505221D01*
X63313423Y-38505221D02*
X63325166Y-38580197D01*
X63325166Y-38580197D02*
X63342760Y-38612794D01*
X63342760Y-38612794D02*
X63403871Y-38661744D01*
X63403871Y-38661744D02*
X63479384Y-38677508D01*
X63479384Y-38677508D02*
X63556070Y-38658971D01*
X63556070Y-38658971D02*
X63593753Y-38633926D01*
X63593753Y-38633926D02*
X63623555Y-38591033D01*
X63623555Y-38591033D02*
X63643315Y-38533307D01*
X63643315Y-38533307D02*
X63642391Y-38450122D01*
X63642391Y-38450122D02*
X63611750Y-38382434D01*
X63611750Y-38382434D02*
X63559800Y-38335378D01*
X63559800Y-38335378D02*
X63494950Y-38314093D01*
X63494950Y-38314093D02*
X63425608Y-38323714D01*
X63425608Y-38323714D02*
X63365663Y-38363689D01*
X63365663Y-38363689D02*
X63327482Y-38426959D01*
X63327482Y-38426959D02*
X63313423Y-38505221D01*
X63313423Y-38505221D02*
X63084901Y-38505221D01*
X63084901Y-38505221D02*
X63087995Y-38432434D01*
X63087995Y-38432434D02*
X63111424Y-38333804D01*
X63111424Y-38333804D02*
X63142329Y-38272274D01*
X63142329Y-38272274D02*
X63224767Y-38190846D01*
X63224767Y-38190846D02*
X63328528Y-38140524D01*
X63328528Y-38140524D02*
X63443456Y-38124108D01*
X63443456Y-38124108D02*
X63559396Y-38144397D01*
X63559396Y-38144397D02*
X63578971Y-38151904D01*
X63578971Y-38151904D02*
X63652375Y-38182574D01*
X63652375Y-38182574D02*
X63652375Y-37867234D01*
X63652375Y-37867234D02*
X63864042Y-37867234D01*
X63864042Y-37867234D02*
X63864042Y-38862068D01*
X63864042Y-38862068D02*
X63864042Y-38862068D01*
G36*
X63111424Y-38333804D02*
G01*
X63142329Y-38272274D01*
X63224767Y-38190846D01*
X63328528Y-38140524D01*
X63443456Y-38124108D01*
X63559396Y-38144397D01*
X63578971Y-38151904D01*
X63652375Y-38182574D01*
X63652375Y-37867234D01*
X63864042Y-37867234D01*
X63864042Y-38862068D01*
X63759972Y-38862068D01*
X63696044Y-38857490D01*
X63655411Y-38845580D01*
X63647835Y-38837866D01*
X63628082Y-38824463D01*
X63598446Y-38834884D01*
X63497972Y-38865185D01*
X63382630Y-38865007D01*
X63345731Y-38858392D01*
X63255046Y-38819278D01*
X63172941Y-38750931D01*
X63113366Y-38666108D01*
X63100016Y-38633680D01*
X63083493Y-38538365D01*
X63084901Y-38505221D01*
X63313423Y-38505221D01*
X63325166Y-38580197D01*
X63342760Y-38612794D01*
X63403871Y-38661744D01*
X63479384Y-38677508D01*
X63556070Y-38658971D01*
X63593753Y-38633926D01*
X63623555Y-38591033D01*
X63643315Y-38533307D01*
X63642391Y-38450122D01*
X63611750Y-38382434D01*
X63559800Y-38335378D01*
X63494950Y-38314093D01*
X63425608Y-38323714D01*
X63365663Y-38363689D01*
X63327482Y-38426959D01*
X63313423Y-38505221D01*
X63084901Y-38505221D01*
X63087995Y-38432434D01*
X63111424Y-38333804D01*
G37*
X63111424Y-38333804D02*
X63142329Y-38272274D01*
X63224767Y-38190846D01*
X63328528Y-38140524D01*
X63443456Y-38124108D01*
X63559396Y-38144397D01*
X63578971Y-38151904D01*
X63652375Y-38182574D01*
X63652375Y-37867234D01*
X63864042Y-37867234D01*
X63864042Y-38862068D01*
X63759972Y-38862068D01*
X63696044Y-38857490D01*
X63655411Y-38845580D01*
X63647835Y-38837866D01*
X63628082Y-38824463D01*
X63598446Y-38834884D01*
X63497972Y-38865185D01*
X63382630Y-38865007D01*
X63345731Y-38858392D01*
X63255046Y-38819278D01*
X63172941Y-38750931D01*
X63113366Y-38666108D01*
X63100016Y-38633680D01*
X63083493Y-38538365D01*
X63084901Y-38505221D01*
X63313423Y-38505221D01*
X63325166Y-38580197D01*
X63342760Y-38612794D01*
X63403871Y-38661744D01*
X63479384Y-38677508D01*
X63556070Y-38658971D01*
X63593753Y-38633926D01*
X63623555Y-38591033D01*
X63643315Y-38533307D01*
X63642391Y-38450122D01*
X63611750Y-38382434D01*
X63559800Y-38335378D01*
X63494950Y-38314093D01*
X63425608Y-38323714D01*
X63365663Y-38363689D01*
X63327482Y-38426959D01*
X63313423Y-38505221D01*
X63084901Y-38505221D01*
X63087995Y-38432434D01*
X63111424Y-38333804D01*
X64524435Y-38150483D02*
X64619485Y-38206595D01*
X64619485Y-38206595D02*
X64693527Y-38287860D01*
X64693527Y-38287860D02*
X64739928Y-38390605D01*
X64739928Y-38390605D02*
X64752693Y-38487039D01*
X64752693Y-38487039D02*
X64735676Y-38616260D01*
X64735676Y-38616260D02*
X64684430Y-38720876D01*
X64684430Y-38720876D02*
X64600122Y-38799507D01*
X64600122Y-38799507D02*
X64483916Y-38850773D01*
X64483916Y-38850773D02*
X64436080Y-38861965D01*
X64436080Y-38861965D02*
X64373615Y-38873326D01*
X64373615Y-38873326D02*
X64331847Y-38879996D01*
X64331847Y-38879996D02*
X64321527Y-38880800D01*
X64321527Y-38880800D02*
X64301498Y-38875508D01*
X64301498Y-38875508D02*
X64255287Y-38865620D01*
X64255287Y-38865620D02*
X64245042Y-38863552D01*
X64245042Y-38863552D02*
X64140050Y-38830379D01*
X64140050Y-38830379D02*
X64066673Y-38780677D01*
X64066673Y-38780677D02*
X64058479Y-38771562D01*
X64058479Y-38771562D02*
X64048976Y-38745101D01*
X64048976Y-38745101D02*
X64067728Y-38712032D01*
X64067728Y-38712032D02*
X64093599Y-38685290D01*
X64093599Y-38685290D02*
X64133280Y-38650190D01*
X64133280Y-38650190D02*
X64164103Y-38639610D01*
X64164103Y-38639610D02*
X64205282Y-38650431D01*
X64205282Y-38650431D02*
X64234618Y-38662415D01*
X64234618Y-38662415D02*
X64314953Y-38684150D01*
X64314953Y-38684150D02*
X64379767Y-38683781D01*
X64379767Y-38683781D02*
X64438140Y-38662853D01*
X64438140Y-38662853D02*
X64488851Y-38629769D01*
X64488851Y-38629769D02*
X64517815Y-38594574D01*
X64517815Y-38594574D02*
X64520208Y-38583620D01*
X64520208Y-38583620D02*
X64500380Y-38576845D01*
X64500380Y-38576845D02*
X64446236Y-38571247D01*
X64446236Y-38571247D02*
X64365792Y-38567368D01*
X64365792Y-38567368D02*
X64267061Y-38565751D01*
X64267061Y-38565751D02*
X64255625Y-38565734D01*
X64255625Y-38565734D02*
X63991042Y-38565734D01*
X63991042Y-38565734D02*
X63991042Y-38485552D01*
X63991042Y-38485552D02*
X64006391Y-38397455D01*
X64006391Y-38397455D02*
X64217428Y-38397455D01*
X64217428Y-38397455D02*
X64223226Y-38409637D01*
X64223226Y-38409637D02*
X64252612Y-38415543D01*
X64252612Y-38415543D02*
X64312956Y-38417428D01*
X64312956Y-38417428D02*
X64361279Y-38417568D01*
X64361279Y-38417568D02*
X64437206Y-38415380D01*
X64437206Y-38415380D02*
X64493393Y-38409593D01*
X64493393Y-38409593D02*
X64519500Y-38401370D01*
X64519500Y-38401370D02*
X64520208Y-38399681D01*
X64520208Y-38399681D02*
X64503175Y-38368965D01*
X64503175Y-38368965D02*
X64462014Y-38333946D01*
X64462014Y-38333946D02*
X64411630Y-38306705D01*
X64411630Y-38306705D02*
X64400932Y-38303000D01*
X64400932Y-38303000D02*
X64336906Y-38302920D01*
X64336906Y-38302920D02*
X64271795Y-38332066D01*
X64271795Y-38332066D02*
X64227846Y-38376740D01*
X64227846Y-38376740D02*
X64217428Y-38397455D01*
X64217428Y-38397455D02*
X64006391Y-38397455D01*
X64006391Y-38397455D02*
X64010335Y-38374825D01*
X64010335Y-38374825D02*
X64063181Y-38273129D01*
X64063181Y-38273129D02*
X64142031Y-38193110D01*
X64142031Y-38193110D02*
X64179579Y-38169785D01*
X64179579Y-38169785D02*
X64297847Y-38128405D01*
X64297847Y-38128405D02*
X64415011Y-38123195D01*
X64415011Y-38123195D02*
X64524435Y-38150483D01*
X64524435Y-38150483D02*
X64524435Y-38150483D01*
G36*
X64063181Y-38273129D02*
G01*
X64142031Y-38193110D01*
X64179579Y-38169785D01*
X64297847Y-38128405D01*
X64415011Y-38123195D01*
X64524435Y-38150483D01*
X64619485Y-38206595D01*
X64693527Y-38287860D01*
X64739928Y-38390605D01*
X64752693Y-38487039D01*
X64735676Y-38616260D01*
X64684430Y-38720876D01*
X64600122Y-38799507D01*
X64483916Y-38850773D01*
X64436080Y-38861965D01*
X64373615Y-38873326D01*
X64331847Y-38879996D01*
X64321527Y-38880800D01*
X64301498Y-38875508D01*
X64255287Y-38865620D01*
X64245042Y-38863552D01*
X64140050Y-38830379D01*
X64066673Y-38780677D01*
X64058479Y-38771562D01*
X64048976Y-38745101D01*
X64067728Y-38712032D01*
X64093599Y-38685290D01*
X64133280Y-38650190D01*
X64164103Y-38639610D01*
X64205282Y-38650431D01*
X64234618Y-38662415D01*
X64314953Y-38684150D01*
X64379767Y-38683781D01*
X64438140Y-38662853D01*
X64488851Y-38629769D01*
X64517815Y-38594574D01*
X64520208Y-38583620D01*
X64500380Y-38576845D01*
X64446236Y-38571247D01*
X64365792Y-38567368D01*
X64267061Y-38565751D01*
X64255625Y-38565734D01*
X63991042Y-38565734D01*
X63991042Y-38485552D01*
X64006391Y-38397455D01*
X64217428Y-38397455D01*
X64223226Y-38409637D01*
X64252612Y-38415543D01*
X64312956Y-38417428D01*
X64361279Y-38417568D01*
X64437206Y-38415380D01*
X64493393Y-38409593D01*
X64519500Y-38401370D01*
X64520208Y-38399681D01*
X64503175Y-38368965D01*
X64462014Y-38333946D01*
X64411630Y-38306705D01*
X64400932Y-38303000D01*
X64336906Y-38302920D01*
X64271795Y-38332066D01*
X64227846Y-38376740D01*
X64217428Y-38397455D01*
X64006391Y-38397455D01*
X64010335Y-38374825D01*
X64063181Y-38273129D01*
G37*
X64063181Y-38273129D02*
X64142031Y-38193110D01*
X64179579Y-38169785D01*
X64297847Y-38128405D01*
X64415011Y-38123195D01*
X64524435Y-38150483D01*
X64619485Y-38206595D01*
X64693527Y-38287860D01*
X64739928Y-38390605D01*
X64752693Y-38487039D01*
X64735676Y-38616260D01*
X64684430Y-38720876D01*
X64600122Y-38799507D01*
X64483916Y-38850773D01*
X64436080Y-38861965D01*
X64373615Y-38873326D01*
X64331847Y-38879996D01*
X64321527Y-38880800D01*
X64301498Y-38875508D01*
X64255287Y-38865620D01*
X64245042Y-38863552D01*
X64140050Y-38830379D01*
X64066673Y-38780677D01*
X64058479Y-38771562D01*
X64048976Y-38745101D01*
X64067728Y-38712032D01*
X64093599Y-38685290D01*
X64133280Y-38650190D01*
X64164103Y-38639610D01*
X64205282Y-38650431D01*
X64234618Y-38662415D01*
X64314953Y-38684150D01*
X64379767Y-38683781D01*
X64438140Y-38662853D01*
X64488851Y-38629769D01*
X64517815Y-38594574D01*
X64520208Y-38583620D01*
X64500380Y-38576845D01*
X64446236Y-38571247D01*
X64365792Y-38567368D01*
X64267061Y-38565751D01*
X64255625Y-38565734D01*
X63991042Y-38565734D01*
X63991042Y-38485552D01*
X64006391Y-38397455D01*
X64217428Y-38397455D01*
X64223226Y-38409637D01*
X64252612Y-38415543D01*
X64312956Y-38417428D01*
X64361279Y-38417568D01*
X64437206Y-38415380D01*
X64493393Y-38409593D01*
X64519500Y-38401370D01*
X64520208Y-38399681D01*
X64503175Y-38368965D01*
X64462014Y-38333946D01*
X64411630Y-38306705D01*
X64400932Y-38303000D01*
X64336906Y-38302920D01*
X64271795Y-38332066D01*
X64227846Y-38376740D01*
X64217428Y-38397455D01*
X64006391Y-38397455D01*
X64010335Y-38374825D01*
X64063181Y-38273129D01*
X66848542Y-38016827D02*
X66849189Y-38094363D01*
X66849189Y-38094363D02*
X66853073Y-38137656D01*
X66853073Y-38137656D02*
X66863106Y-38154795D01*
X66863106Y-38154795D02*
X66882199Y-38153869D01*
X66882199Y-38153869D02*
X66896167Y-38149119D01*
X66896167Y-38149119D02*
X66943857Y-38139394D01*
X66943857Y-38139394D02*
X67014806Y-38133118D01*
X67014806Y-38133118D02*
X67063977Y-38131818D01*
X67063977Y-38131818D02*
X67169009Y-38143241D01*
X67169009Y-38143241D02*
X67252038Y-38181716D01*
X67252038Y-38181716D02*
X67324487Y-38253545D01*
X67324487Y-38253545D02*
X67351250Y-38290352D01*
X67351250Y-38290352D02*
X67384689Y-38369452D01*
X67384689Y-38369452D02*
X67399261Y-38470408D01*
X67399261Y-38470408D02*
X67394447Y-38576930D01*
X67394447Y-38576930D02*
X67369731Y-38672724D01*
X67369731Y-38672724D02*
X67363817Y-38686132D01*
X67363817Y-38686132D02*
X67302192Y-38769532D01*
X67302192Y-38769532D02*
X67212634Y-38830489D01*
X67212634Y-38830489D02*
X67105566Y-38864479D01*
X67105566Y-38864479D02*
X66991406Y-38866982D01*
X66991406Y-38866982D02*
X66959797Y-38861469D01*
X66959797Y-38861469D02*
X66901746Y-38842904D01*
X66901746Y-38842904D02*
X66859255Y-38819842D01*
X66859255Y-38819842D02*
X66834141Y-38804952D01*
X66834141Y-38804952D02*
X66827409Y-38824162D01*
X66827409Y-38824162D02*
X66827375Y-38827726D01*
X66827375Y-38827726D02*
X66818201Y-38848903D01*
X66818201Y-38848903D02*
X66784657Y-38859371D01*
X66784657Y-38859371D02*
X66721542Y-38862068D01*
X66721542Y-38862068D02*
X66615708Y-38862068D01*
X66615708Y-38862068D02*
X66615708Y-38506229D01*
X66615708Y-38506229D02*
X66838258Y-38506229D01*
X66838258Y-38506229D02*
X66863930Y-38586291D01*
X66863930Y-38586291D02*
X66915064Y-38647966D01*
X66915064Y-38647966D02*
X66981141Y-38676622D01*
X66981141Y-38676622D02*
X67051230Y-38672743D01*
X67051230Y-38672743D02*
X67114394Y-38636812D01*
X67114394Y-38636812D02*
X67158094Y-38573275D01*
X67158094Y-38573275D02*
X67177003Y-38484478D01*
X67177003Y-38484478D02*
X67155708Y-38407283D01*
X67155708Y-38407283D02*
X67107892Y-38353733D01*
X67107892Y-38353733D02*
X67034555Y-38316773D01*
X67034555Y-38316773D02*
X66962592Y-38322113D01*
X66962592Y-38322113D02*
X66903435Y-38359359D01*
X66903435Y-38359359D02*
X66850135Y-38428897D01*
X66850135Y-38428897D02*
X66838258Y-38506229D01*
X66838258Y-38506229D02*
X66615708Y-38506229D01*
X66615708Y-38506229D02*
X66615708Y-37867234D01*
X66615708Y-37867234D02*
X66848542Y-37867234D01*
X66848542Y-37867234D02*
X66848542Y-38016827D01*
X66848542Y-38016827D02*
X66848542Y-38016827D01*
G36*
X66848542Y-37867234D02*
G01*
X66848542Y-38016827D01*
X66849189Y-38094363D01*
X66853073Y-38137656D01*
X66863106Y-38154795D01*
X66882199Y-38153869D01*
X66896167Y-38149119D01*
X66943857Y-38139394D01*
X67014806Y-38133118D01*
X67063977Y-38131818D01*
X67169009Y-38143241D01*
X67252038Y-38181716D01*
X67324487Y-38253545D01*
X67351250Y-38290352D01*
X67384689Y-38369452D01*
X67399261Y-38470408D01*
X67394447Y-38576930D01*
X67369731Y-38672724D01*
X67363817Y-38686132D01*
X67302192Y-38769532D01*
X67212634Y-38830489D01*
X67105566Y-38864479D01*
X66991406Y-38866982D01*
X66959797Y-38861469D01*
X66901746Y-38842904D01*
X66859255Y-38819842D01*
X66834141Y-38804952D01*
X66827409Y-38824162D01*
X66827375Y-38827726D01*
X66818201Y-38848903D01*
X66784657Y-38859371D01*
X66721542Y-38862068D01*
X66615708Y-38862068D01*
X66615708Y-38506229D01*
X66838258Y-38506229D01*
X66863930Y-38586291D01*
X66915064Y-38647966D01*
X66981141Y-38676622D01*
X67051230Y-38672743D01*
X67114394Y-38636812D01*
X67158094Y-38573275D01*
X67177003Y-38484478D01*
X67155708Y-38407283D01*
X67107892Y-38353733D01*
X67034555Y-38316773D01*
X66962592Y-38322113D01*
X66903435Y-38359359D01*
X66850135Y-38428897D01*
X66838258Y-38506229D01*
X66615708Y-38506229D01*
X66615708Y-37867234D01*
X66848542Y-37867234D01*
G37*
X66848542Y-37867234D02*
X66848542Y-38016827D01*
X66849189Y-38094363D01*
X66853073Y-38137656D01*
X66863106Y-38154795D01*
X66882199Y-38153869D01*
X66896167Y-38149119D01*
X66943857Y-38139394D01*
X67014806Y-38133118D01*
X67063977Y-38131818D01*
X67169009Y-38143241D01*
X67252038Y-38181716D01*
X67324487Y-38253545D01*
X67351250Y-38290352D01*
X67384689Y-38369452D01*
X67399261Y-38470408D01*
X67394447Y-38576930D01*
X67369731Y-38672724D01*
X67363817Y-38686132D01*
X67302192Y-38769532D01*
X67212634Y-38830489D01*
X67105566Y-38864479D01*
X66991406Y-38866982D01*
X66959797Y-38861469D01*
X66901746Y-38842904D01*
X66859255Y-38819842D01*
X66834141Y-38804952D01*
X66827409Y-38824162D01*
X66827375Y-38827726D01*
X66818201Y-38848903D01*
X66784657Y-38859371D01*
X66721542Y-38862068D01*
X66615708Y-38862068D01*
X66615708Y-38506229D01*
X66838258Y-38506229D01*
X66863930Y-38586291D01*
X66915064Y-38647966D01*
X66981141Y-38676622D01*
X67051230Y-38672743D01*
X67114394Y-38636812D01*
X67158094Y-38573275D01*
X67177003Y-38484478D01*
X67155708Y-38407283D01*
X67107892Y-38353733D01*
X67034555Y-38316773D01*
X66962592Y-38322113D01*
X66903435Y-38359359D01*
X66850135Y-38428897D01*
X66838258Y-38506229D01*
X66615708Y-38506229D01*
X66615708Y-37867234D01*
X66848542Y-37867234D01*
X67871650Y-38132605D02*
X67915409Y-38141827D01*
X67915409Y-38141827D02*
X68014966Y-38185612D01*
X68014966Y-38185612D02*
X68080290Y-38249606D01*
X68080290Y-38249606D02*
X68109039Y-38330111D01*
X68109039Y-38330111D02*
X68098874Y-38423433D01*
X68098874Y-38423433D02*
X68097144Y-38428851D01*
X68097144Y-38428851D02*
X68067504Y-38486477D01*
X68067504Y-38486477D02*
X68017608Y-38528912D01*
X68017608Y-38528912D02*
X67939932Y-38560644D01*
X67939932Y-38560644D02*
X67836431Y-38584437D01*
X67836431Y-38584437D02*
X67751414Y-38601754D01*
X67751414Y-38601754D02*
X67702601Y-38617035D01*
X67702601Y-38617035D02*
X67684195Y-38633537D01*
X67684195Y-38633537D02*
X67690400Y-38654515D01*
X67690400Y-38654515D02*
X67696772Y-38662869D01*
X67696772Y-38662869D02*
X67738592Y-38684700D01*
X67738592Y-38684700D02*
X67806138Y-38691602D01*
X67806138Y-38691602D02*
X67885557Y-38683672D01*
X67885557Y-38683672D02*
X67962998Y-38661009D01*
X67962998Y-38661009D02*
X67963056Y-38660984D01*
X67963056Y-38660984D02*
X68013313Y-38640708D01*
X68013313Y-38640708D02*
X68043659Y-38629824D01*
X68043659Y-38629824D02*
X68046500Y-38629234D01*
X68046500Y-38629234D02*
X68061300Y-38646244D01*
X68061300Y-38646244D02*
X68083394Y-38686344D01*
X68083394Y-38686344D02*
X68104812Y-38733137D01*
X68104812Y-38733137D02*
X68117583Y-38770228D01*
X68117583Y-38770228D02*
X68118542Y-38777430D01*
X68118542Y-38777430D02*
X68099006Y-38806128D01*
X68099006Y-38806128D02*
X68046878Y-38831480D01*
X68046878Y-38831480D02*
X67971871Y-38851585D01*
X67971871Y-38851585D02*
X67883701Y-38864539D01*
X67883701Y-38864539D02*
X67792084Y-38868443D01*
X67792084Y-38868443D02*
X67706734Y-38861393D01*
X67706734Y-38861393D02*
X67697754Y-38859793D01*
X67697754Y-38859793D02*
X67586792Y-38824953D01*
X67586792Y-38824953D02*
X67511715Y-38768632D01*
X67511715Y-38768632D02*
X67471093Y-38689351D01*
X67471093Y-38689351D02*
X67462375Y-38615645D01*
X67462375Y-38615645D02*
X67482025Y-38550188D01*
X67482025Y-38550188D02*
X67534931Y-38491503D01*
X67534931Y-38491503D02*
X67612020Y-38447222D01*
X67612020Y-38447222D02*
X67686475Y-38427079D01*
X67686475Y-38427079D02*
X67789464Y-38407816D01*
X67789464Y-38407816D02*
X67853772Y-38385342D01*
X67853772Y-38385342D02*
X67883013Y-38358168D01*
X67883013Y-38358168D02*
X67885708Y-38344967D01*
X67885708Y-38344967D02*
X67867132Y-38316953D01*
X67867132Y-38316953D02*
X67818643Y-38301504D01*
X67818643Y-38301504D02*
X67751099Y-38299790D01*
X67751099Y-38299790D02*
X67675356Y-38312982D01*
X67675356Y-38312982D02*
X67653032Y-38319892D01*
X67653032Y-38319892D02*
X67597165Y-38338044D01*
X67597165Y-38338044D02*
X67561556Y-38347531D01*
X67561556Y-38347531D02*
X67555384Y-38347838D01*
X67555384Y-38347838D02*
X67545647Y-38327489D01*
X67545647Y-38327489D02*
X67526013Y-38281876D01*
X67526013Y-38281876D02*
X67518259Y-38263303D01*
X67518259Y-38263303D02*
X67498513Y-38211898D01*
X67498513Y-38211898D02*
X67498370Y-38185358D01*
X67498370Y-38185358D02*
X67521200Y-38169454D01*
X67521200Y-38169454D02*
X67542493Y-38160961D01*
X67542493Y-38160961D02*
X67643139Y-38135569D01*
X67643139Y-38135569D02*
X67760238Y-38125738D01*
X67760238Y-38125738D02*
X67871650Y-38132605D01*
X67871650Y-38132605D02*
X67871650Y-38132605D01*
G36*
X67871650Y-38132605D02*
G01*
X67915409Y-38141827D01*
X68014966Y-38185612D01*
X68080290Y-38249606D01*
X68109039Y-38330111D01*
X68098874Y-38423433D01*
X68097144Y-38428851D01*
X68067504Y-38486477D01*
X68017608Y-38528912D01*
X67939932Y-38560644D01*
X67836431Y-38584437D01*
X67751414Y-38601754D01*
X67702601Y-38617035D01*
X67684195Y-38633537D01*
X67690400Y-38654515D01*
X67696772Y-38662869D01*
X67738592Y-38684700D01*
X67806138Y-38691602D01*
X67885557Y-38683672D01*
X67962998Y-38661009D01*
X67963056Y-38660984D01*
X68013313Y-38640708D01*
X68043659Y-38629824D01*
X68046500Y-38629234D01*
X68061300Y-38646244D01*
X68083394Y-38686344D01*
X68104812Y-38733137D01*
X68117583Y-38770228D01*
X68118542Y-38777430D01*
X68099006Y-38806128D01*
X68046878Y-38831480D01*
X67971871Y-38851585D01*
X67883701Y-38864539D01*
X67792084Y-38868443D01*
X67706734Y-38861393D01*
X67697754Y-38859793D01*
X67586792Y-38824953D01*
X67511715Y-38768632D01*
X67471093Y-38689351D01*
X67462375Y-38615645D01*
X67482025Y-38550188D01*
X67534931Y-38491503D01*
X67612020Y-38447222D01*
X67686475Y-38427079D01*
X67789464Y-38407816D01*
X67853772Y-38385342D01*
X67883013Y-38358168D01*
X67885708Y-38344967D01*
X67867132Y-38316953D01*
X67818643Y-38301504D01*
X67751099Y-38299790D01*
X67675356Y-38312982D01*
X67653032Y-38319892D01*
X67597165Y-38338044D01*
X67561556Y-38347531D01*
X67555384Y-38347838D01*
X67545647Y-38327489D01*
X67526013Y-38281876D01*
X67518259Y-38263303D01*
X67498513Y-38211898D01*
X67498370Y-38185358D01*
X67521200Y-38169454D01*
X67542493Y-38160961D01*
X67643139Y-38135569D01*
X67760238Y-38125738D01*
X67871650Y-38132605D01*
G37*
X67871650Y-38132605D02*
X67915409Y-38141827D01*
X68014966Y-38185612D01*
X68080290Y-38249606D01*
X68109039Y-38330111D01*
X68098874Y-38423433D01*
X68097144Y-38428851D01*
X68067504Y-38486477D01*
X68017608Y-38528912D01*
X67939932Y-38560644D01*
X67836431Y-38584437D01*
X67751414Y-38601754D01*
X67702601Y-38617035D01*
X67684195Y-38633537D01*
X67690400Y-38654515D01*
X67696772Y-38662869D01*
X67738592Y-38684700D01*
X67806138Y-38691602D01*
X67885557Y-38683672D01*
X67962998Y-38661009D01*
X67963056Y-38660984D01*
X68013313Y-38640708D01*
X68043659Y-38629824D01*
X68046500Y-38629234D01*
X68061300Y-38646244D01*
X68083394Y-38686344D01*
X68104812Y-38733137D01*
X68117583Y-38770228D01*
X68118542Y-38777430D01*
X68099006Y-38806128D01*
X68046878Y-38831480D01*
X67971871Y-38851585D01*
X67883701Y-38864539D01*
X67792084Y-38868443D01*
X67706734Y-38861393D01*
X67697754Y-38859793D01*
X67586792Y-38824953D01*
X67511715Y-38768632D01*
X67471093Y-38689351D01*
X67462375Y-38615645D01*
X67482025Y-38550188D01*
X67534931Y-38491503D01*
X67612020Y-38447222D01*
X67686475Y-38427079D01*
X67789464Y-38407816D01*
X67853772Y-38385342D01*
X67883013Y-38358168D01*
X67885708Y-38344967D01*
X67867132Y-38316953D01*
X67818643Y-38301504D01*
X67751099Y-38299790D01*
X67675356Y-38312982D01*
X67653032Y-38319892D01*
X67597165Y-38338044D01*
X67561556Y-38347531D01*
X67555384Y-38347838D01*
X67545647Y-38327489D01*
X67526013Y-38281876D01*
X67518259Y-38263303D01*
X67498513Y-38211898D01*
X67498370Y-38185358D01*
X67521200Y-38169454D01*
X67542493Y-38160961D01*
X67643139Y-38135569D01*
X67760238Y-38125738D01*
X67871650Y-38132605D01*
X69367375Y-38185821D02*
X69429824Y-38153528D01*
X69429824Y-38153528D02*
X69530722Y-38123613D01*
X69530722Y-38123613D02*
X69638317Y-38128623D01*
X69638317Y-38128623D02*
X69741885Y-38164902D01*
X69741885Y-38164902D02*
X69830703Y-38228789D01*
X69830703Y-38228789D02*
X69891250Y-38310927D01*
X69891250Y-38310927D02*
X69929359Y-38424328D01*
X69929359Y-38424328D02*
X69937094Y-38543534D01*
X69937094Y-38543534D02*
X69916298Y-38643731D01*
X69916298Y-38643731D02*
X69858772Y-38739922D01*
X69858772Y-38739922D02*
X69773171Y-38813273D01*
X69773171Y-38813273D02*
X69669695Y-38858381D01*
X69669695Y-38858381D02*
X69558543Y-38869841D01*
X69558543Y-38869841D02*
X69504958Y-38861682D01*
X69504958Y-38861682D02*
X69446358Y-38845270D01*
X69446358Y-38845270D02*
X69404417Y-38830671D01*
X69404417Y-38830671D02*
X69373374Y-38827382D01*
X69373374Y-38827382D02*
X69367375Y-38838636D01*
X69367375Y-38838636D02*
X69347546Y-38852853D01*
X69347546Y-38852853D02*
X69292869Y-38860848D01*
X69292869Y-38860848D02*
X69250958Y-38862068D01*
X69250958Y-38862068D02*
X69134542Y-38862068D01*
X69134542Y-38862068D02*
X69134542Y-38488845D01*
X69134542Y-38488845D02*
X69369673Y-38488845D01*
X69369673Y-38488845D02*
X69382357Y-38570967D01*
X69382357Y-38570967D02*
X69401390Y-38604878D01*
X69401390Y-38604878D02*
X69462620Y-38662945D01*
X69462620Y-38662945D02*
X69533719Y-38681071D01*
X69533719Y-38681071D02*
X69609527Y-38658891D01*
X69609527Y-38658891D02*
X69658417Y-38623112D01*
X69658417Y-38623112D02*
X69696085Y-38567155D01*
X69696085Y-38567155D02*
X69706042Y-38497582D01*
X69706042Y-38497582D02*
X69690102Y-38416963D01*
X69690102Y-38416963D02*
X69648400Y-38356920D01*
X69648400Y-38356920D02*
X69590116Y-38320426D01*
X69590116Y-38320426D02*
X69524425Y-38310455D01*
X69524425Y-38310455D02*
X69460507Y-38329979D01*
X69460507Y-38329979D02*
X69407538Y-38381971D01*
X69407538Y-38381971D02*
X69398342Y-38397915D01*
X69398342Y-38397915D02*
X69369673Y-38488845D01*
X69369673Y-38488845D02*
X69134542Y-38488845D01*
X69134542Y-38488845D02*
X69134542Y-37867234D01*
X69134542Y-37867234D02*
X69367375Y-37867234D01*
X69367375Y-37867234D02*
X69367375Y-38185821D01*
X69367375Y-38185821D02*
X69367375Y-38185821D01*
G36*
X69367375Y-37867234D02*
G01*
X69367375Y-38185821D01*
X69429824Y-38153528D01*
X69530722Y-38123613D01*
X69638317Y-38128623D01*
X69741885Y-38164902D01*
X69830703Y-38228789D01*
X69891250Y-38310927D01*
X69929359Y-38424328D01*
X69937094Y-38543534D01*
X69916298Y-38643731D01*
X69858772Y-38739922D01*
X69773171Y-38813273D01*
X69669695Y-38858381D01*
X69558543Y-38869841D01*
X69504958Y-38861682D01*
X69446358Y-38845270D01*
X69404417Y-38830671D01*
X69373374Y-38827382D01*
X69367375Y-38838636D01*
X69347546Y-38852853D01*
X69292869Y-38860848D01*
X69250958Y-38862068D01*
X69134542Y-38862068D01*
X69134542Y-38488845D01*
X69369673Y-38488845D01*
X69382357Y-38570967D01*
X69401390Y-38604878D01*
X69462620Y-38662945D01*
X69533719Y-38681071D01*
X69609527Y-38658891D01*
X69658417Y-38623112D01*
X69696085Y-38567155D01*
X69706042Y-38497582D01*
X69690102Y-38416963D01*
X69648400Y-38356920D01*
X69590116Y-38320426D01*
X69524425Y-38310455D01*
X69460507Y-38329979D01*
X69407538Y-38381971D01*
X69398342Y-38397915D01*
X69369673Y-38488845D01*
X69134542Y-38488845D01*
X69134542Y-37867234D01*
X69367375Y-37867234D01*
G37*
X69367375Y-37867234D02*
X69367375Y-38185821D01*
X69429824Y-38153528D01*
X69530722Y-38123613D01*
X69638317Y-38128623D01*
X69741885Y-38164902D01*
X69830703Y-38228789D01*
X69891250Y-38310927D01*
X69929359Y-38424328D01*
X69937094Y-38543534D01*
X69916298Y-38643731D01*
X69858772Y-38739922D01*
X69773171Y-38813273D01*
X69669695Y-38858381D01*
X69558543Y-38869841D01*
X69504958Y-38861682D01*
X69446358Y-38845270D01*
X69404417Y-38830671D01*
X69373374Y-38827382D01*
X69367375Y-38838636D01*
X69347546Y-38852853D01*
X69292869Y-38860848D01*
X69250958Y-38862068D01*
X69134542Y-38862068D01*
X69134542Y-38488845D01*
X69369673Y-38488845D01*
X69382357Y-38570967D01*
X69401390Y-38604878D01*
X69462620Y-38662945D01*
X69533719Y-38681071D01*
X69609527Y-38658891D01*
X69658417Y-38623112D01*
X69696085Y-38567155D01*
X69706042Y-38497582D01*
X69690102Y-38416963D01*
X69648400Y-38356920D01*
X69590116Y-38320426D01*
X69524425Y-38310455D01*
X69460507Y-38329979D01*
X69407538Y-38381971D01*
X69398342Y-38397915D01*
X69369673Y-38488845D01*
X69134542Y-38488845D01*
X69134542Y-37867234D01*
X69367375Y-37867234D01*
X60244542Y-38862068D02*
X60032875Y-38862068D01*
X60032875Y-38862068D02*
X60032875Y-38674726D01*
X60032875Y-38674726D02*
X60028726Y-38544115D01*
X60028726Y-38544115D02*
X60015215Y-38449494D01*
X60015215Y-38449494D02*
X59990740Y-38385236D01*
X59990740Y-38385236D02*
X59953703Y-38345717D01*
X59953703Y-38345717D02*
X59936655Y-38336310D01*
X59936655Y-38336310D02*
X59873956Y-38324965D01*
X59873956Y-38324965D02*
X59814196Y-38340917D01*
X59814196Y-38340917D02*
X59774227Y-38379115D01*
X59774227Y-38379115D02*
X59771178Y-38385927D01*
X59771178Y-38385927D02*
X59765537Y-38421026D01*
X59765537Y-38421026D02*
X59761057Y-38487713D01*
X59761057Y-38487713D02*
X59758304Y-38575248D01*
X59758304Y-38575248D02*
X59757708Y-38641549D01*
X59757708Y-38641549D02*
X59757708Y-38862068D01*
X59757708Y-38862068D02*
X59524875Y-38862068D01*
X59524875Y-38862068D02*
X59524875Y-38642162D01*
X59524875Y-38642162D02*
X59523549Y-38536882D01*
X59523549Y-38536882D02*
X59518748Y-38465098D01*
X59518748Y-38465098D02*
X59509234Y-38418031D01*
X59509234Y-38418031D02*
X59493769Y-38386904D01*
X59493769Y-38386904D02*
X59487833Y-38379418D01*
X59487833Y-38379418D02*
X59426639Y-38331405D01*
X59426639Y-38331405D02*
X59363509Y-38324770D01*
X59363509Y-38324770D02*
X59310867Y-38351666D01*
X59310867Y-38351666D02*
X59288551Y-38372716D01*
X59288551Y-38372716D02*
X59273555Y-38398669D01*
X59273555Y-38398669D02*
X59264050Y-38438249D01*
X59264050Y-38438249D02*
X59258210Y-38500177D01*
X59258210Y-38500177D02*
X59254208Y-38593175D01*
X59254208Y-38593175D02*
X59253127Y-38627323D01*
X59253127Y-38627323D02*
X59245963Y-38862068D01*
X59245963Y-38862068D02*
X59038042Y-38862068D01*
X59038042Y-38862068D02*
X59038121Y-38592193D01*
X59038121Y-38592193D02*
X59040771Y-38453686D01*
X59040771Y-38453686D02*
X59050253Y-38350162D01*
X59050253Y-38350162D02*
X59069003Y-38274499D01*
X59069003Y-38274499D02*
X59099455Y-38219574D01*
X59099455Y-38219574D02*
X59144046Y-38178267D01*
X59144046Y-38178267D02*
X59188777Y-38151656D01*
X59188777Y-38151656D02*
X59272143Y-38127955D01*
X59272143Y-38127955D02*
X59370549Y-38127656D01*
X59370549Y-38127656D02*
X59464839Y-38149204D01*
X59464839Y-38149204D02*
X59521124Y-38178614D01*
X59521124Y-38178614D02*
X59561727Y-38205887D01*
X59561727Y-38205887D02*
X59589688Y-38207926D01*
X59589688Y-38207926D02*
X59626262Y-38184852D01*
X59626262Y-38184852D02*
X59633764Y-38179263D01*
X59633764Y-38179263D02*
X59715900Y-38140619D01*
X59715900Y-38140619D02*
X59816151Y-38126053D01*
X59816151Y-38126053D02*
X59916734Y-38137205D01*
X59916734Y-38137205D02*
X59954138Y-38149676D01*
X59954138Y-38149676D02*
X60004722Y-38168713D01*
X60004722Y-38168713D02*
X60027561Y-38169308D01*
X60027561Y-38169308D02*
X60032875Y-38151904D01*
X60032875Y-38151904D02*
X60045392Y-38132399D01*
X60045392Y-38132399D02*
X60087675Y-38122957D01*
X60087675Y-38122957D02*
X60138708Y-38121234D01*
X60138708Y-38121234D02*
X60244542Y-38121234D01*
X60244542Y-38121234D02*
X60244542Y-38862068D01*
X60244542Y-38862068D02*
X60244542Y-38862068D01*
G36*
X60244542Y-38862068D02*
G01*
X60032875Y-38862068D01*
X60032875Y-38674726D01*
X60028726Y-38544115D01*
X60015215Y-38449494D01*
X59990740Y-38385236D01*
X59953703Y-38345717D01*
X59936655Y-38336310D01*
X59873956Y-38324965D01*
X59814196Y-38340917D01*
X59774227Y-38379115D01*
X59771178Y-38385927D01*
X59765537Y-38421026D01*
X59761057Y-38487713D01*
X59758304Y-38575248D01*
X59757708Y-38641549D01*
X59757708Y-38862068D01*
X59524875Y-38862068D01*
X59524875Y-38642162D01*
X59523549Y-38536882D01*
X59518748Y-38465098D01*
X59509234Y-38418031D01*
X59493769Y-38386904D01*
X59487833Y-38379418D01*
X59426639Y-38331405D01*
X59363509Y-38324770D01*
X59310867Y-38351666D01*
X59288551Y-38372716D01*
X59273555Y-38398669D01*
X59264050Y-38438249D01*
X59258210Y-38500177D01*
X59254208Y-38593175D01*
X59253127Y-38627323D01*
X59245963Y-38862068D01*
X59038042Y-38862068D01*
X59038121Y-38592193D01*
X59040771Y-38453686D01*
X59050253Y-38350162D01*
X59069003Y-38274499D01*
X59099455Y-38219574D01*
X59144046Y-38178267D01*
X59188777Y-38151656D01*
X59272143Y-38127955D01*
X59370549Y-38127656D01*
X59464839Y-38149204D01*
X59521124Y-38178614D01*
X59561727Y-38205887D01*
X59589688Y-38207926D01*
X59626262Y-38184852D01*
X59633764Y-38179263D01*
X59715900Y-38140619D01*
X59816151Y-38126053D01*
X59916734Y-38137205D01*
X59954138Y-38149676D01*
X60004722Y-38168713D01*
X60027561Y-38169308D01*
X60032875Y-38151904D01*
X60045392Y-38132399D01*
X60087675Y-38122957D01*
X60138708Y-38121234D01*
X60244542Y-38121234D01*
X60244542Y-38862068D01*
G37*
X60244542Y-38862068D02*
X60032875Y-38862068D01*
X60032875Y-38674726D01*
X60028726Y-38544115D01*
X60015215Y-38449494D01*
X59990740Y-38385236D01*
X59953703Y-38345717D01*
X59936655Y-38336310D01*
X59873956Y-38324965D01*
X59814196Y-38340917D01*
X59774227Y-38379115D01*
X59771178Y-38385927D01*
X59765537Y-38421026D01*
X59761057Y-38487713D01*
X59758304Y-38575248D01*
X59757708Y-38641549D01*
X59757708Y-38862068D01*
X59524875Y-38862068D01*
X59524875Y-38642162D01*
X59523549Y-38536882D01*
X59518748Y-38465098D01*
X59509234Y-38418031D01*
X59493769Y-38386904D01*
X59487833Y-38379418D01*
X59426639Y-38331405D01*
X59363509Y-38324770D01*
X59310867Y-38351666D01*
X59288551Y-38372716D01*
X59273555Y-38398669D01*
X59264050Y-38438249D01*
X59258210Y-38500177D01*
X59254208Y-38593175D01*
X59253127Y-38627323D01*
X59245963Y-38862068D01*
X59038042Y-38862068D01*
X59038121Y-38592193D01*
X59040771Y-38453686D01*
X59050253Y-38350162D01*
X59069003Y-38274499D01*
X59099455Y-38219574D01*
X59144046Y-38178267D01*
X59188777Y-38151656D01*
X59272143Y-38127955D01*
X59370549Y-38127656D01*
X59464839Y-38149204D01*
X59521124Y-38178614D01*
X59561727Y-38205887D01*
X59589688Y-38207926D01*
X59626262Y-38184852D01*
X59633764Y-38179263D01*
X59715900Y-38140619D01*
X59816151Y-38126053D01*
X59916734Y-38137205D01*
X59954138Y-38149676D01*
X60004722Y-38168713D01*
X60027561Y-38169308D01*
X60032875Y-38151904D01*
X60045392Y-38132399D01*
X60087675Y-38122957D01*
X60138708Y-38121234D01*
X60244542Y-38121234D01*
X60244542Y-38862068D01*
X65529209Y-38124503D02*
X65569706Y-38132901D01*
X65569706Y-38132901D02*
X65578542Y-38140328D01*
X65578542Y-38140328D02*
X65570718Y-38165181D01*
X65570718Y-38165181D02*
X65549008Y-38222352D01*
X65549008Y-38222352D02*
X65516054Y-38305187D01*
X65516054Y-38305187D02*
X65474498Y-38407031D01*
X65474498Y-38407031D02*
X65433597Y-38505453D01*
X65433597Y-38505453D02*
X65288652Y-38851484D01*
X65288652Y-38851484D02*
X65171602Y-38857755D01*
X65171602Y-38857755D02*
X65054553Y-38864026D01*
X65054553Y-38864026D02*
X64903797Y-38508343D01*
X64903797Y-38508343D02*
X64855749Y-38394101D01*
X64855749Y-38394101D02*
X64814029Y-38293221D01*
X64814029Y-38293221D02*
X64781260Y-38212186D01*
X64781260Y-38212186D02*
X64760066Y-38157478D01*
X64760066Y-38157478D02*
X64753042Y-38135841D01*
X64753042Y-38135841D02*
X64772033Y-38127456D01*
X64772033Y-38127456D02*
X64820683Y-38124253D01*
X64820683Y-38124253D02*
X64860592Y-38125420D01*
X64860592Y-38125420D02*
X64968142Y-38131818D01*
X64968142Y-38131818D02*
X65062828Y-38353456D01*
X65062828Y-38353456D02*
X65100862Y-38441861D01*
X65100862Y-38441861D02*
X65132639Y-38514551D01*
X65132639Y-38514551D02*
X65154629Y-38563525D01*
X65154629Y-38563525D02*
X65163150Y-38580732D01*
X65163150Y-38580732D02*
X65172689Y-38564598D01*
X65172689Y-38564598D02*
X65194498Y-38516501D01*
X65194498Y-38516501D02*
X65225339Y-38443869D01*
X65225339Y-38443869D02*
X65261974Y-38354128D01*
X65261974Y-38354128D02*
X65262105Y-38353801D01*
X65262105Y-38353801D02*
X65355423Y-38121234D01*
X65355423Y-38121234D02*
X65466982Y-38121234D01*
X65466982Y-38121234D02*
X65529209Y-38124503D01*
X65529209Y-38124503D02*
X65529209Y-38124503D01*
G36*
X65529209Y-38124503D02*
G01*
X65569706Y-38132901D01*
X65578542Y-38140328D01*
X65570718Y-38165181D01*
X65549008Y-38222352D01*
X65516054Y-38305187D01*
X65474498Y-38407031D01*
X65433597Y-38505453D01*
X65288652Y-38851484D01*
X65171602Y-38857755D01*
X65054553Y-38864026D01*
X64903797Y-38508343D01*
X64855749Y-38394101D01*
X64814029Y-38293221D01*
X64781260Y-38212186D01*
X64760066Y-38157478D01*
X64753042Y-38135841D01*
X64772033Y-38127456D01*
X64820683Y-38124253D01*
X64860592Y-38125420D01*
X64968142Y-38131818D01*
X65062828Y-38353456D01*
X65100862Y-38441861D01*
X65132639Y-38514551D01*
X65154629Y-38563525D01*
X65163150Y-38580732D01*
X65172689Y-38564598D01*
X65194498Y-38516501D01*
X65225339Y-38443869D01*
X65261974Y-38354128D01*
X65262105Y-38353801D01*
X65355423Y-38121234D01*
X65466982Y-38121234D01*
X65529209Y-38124503D01*
G37*
X65529209Y-38124503D02*
X65569706Y-38132901D01*
X65578542Y-38140328D01*
X65570718Y-38165181D01*
X65549008Y-38222352D01*
X65516054Y-38305187D01*
X65474498Y-38407031D01*
X65433597Y-38505453D01*
X65288652Y-38851484D01*
X65171602Y-38857755D01*
X65054553Y-38864026D01*
X64903797Y-38508343D01*
X64855749Y-38394101D01*
X64814029Y-38293221D01*
X64781260Y-38212186D01*
X64760066Y-38157478D01*
X64753042Y-38135841D01*
X64772033Y-38127456D01*
X64820683Y-38124253D01*
X64860592Y-38125420D01*
X64968142Y-38131818D01*
X65062828Y-38353456D01*
X65100862Y-38441861D01*
X65132639Y-38514551D01*
X65154629Y-38563525D01*
X65163150Y-38580732D01*
X65172689Y-38564598D01*
X65194498Y-38516501D01*
X65225339Y-38443869D01*
X65261974Y-38354128D01*
X65262105Y-38353801D01*
X65355423Y-38121234D01*
X65466982Y-38121234D01*
X65529209Y-38124503D01*
X65874875Y-38862068D02*
X65641042Y-38862068D01*
X65641042Y-38862068D02*
X65646833Y-38496943D01*
X65646833Y-38496943D02*
X65652625Y-38131818D01*
X65652625Y-38131818D02*
X65874875Y-38119022D01*
X65874875Y-38119022D02*
X65874875Y-38862068D01*
X65874875Y-38862068D02*
X65874875Y-38862068D01*
G36*
X65874875Y-38862068D02*
G01*
X65641042Y-38862068D01*
X65646833Y-38496943D01*
X65652625Y-38131818D01*
X65874875Y-38119022D01*
X65874875Y-38862068D01*
G37*
X65874875Y-38862068D02*
X65641042Y-38862068D01*
X65646833Y-38496943D01*
X65652625Y-38131818D01*
X65874875Y-38119022D01*
X65874875Y-38862068D01*
X66446375Y-38862068D02*
X66213542Y-38862068D01*
X66213542Y-38862068D02*
X66213542Y-38649439D01*
X66213542Y-38649439D02*
X66212784Y-38551246D01*
X66212784Y-38551246D02*
X66209230Y-38485583D01*
X66209230Y-38485583D02*
X66200956Y-38442655D01*
X66200956Y-38442655D02*
X66186038Y-38412667D01*
X66186038Y-38412667D02*
X66162554Y-38385825D01*
X66162554Y-38385825D02*
X66161587Y-38384855D01*
X66161587Y-38384855D02*
X66094674Y-38342028D01*
X66094674Y-38342028D02*
X66045170Y-38332901D01*
X66045170Y-38332901D02*
X66007013Y-38330664D01*
X66007013Y-38330664D02*
X65987986Y-38316673D01*
X65987986Y-38316673D02*
X65981436Y-38280005D01*
X65981436Y-38280005D02*
X65980708Y-38227068D01*
X65980708Y-38227068D02*
X65982607Y-38164079D01*
X65982607Y-38164079D02*
X65991573Y-38132650D01*
X65991573Y-38132650D02*
X66012512Y-38122062D01*
X66012512Y-38122062D02*
X66029149Y-38121234D01*
X66029149Y-38121234D02*
X66079090Y-38130755D01*
X66079090Y-38130755D02*
X66141781Y-38154335D01*
X66141781Y-38154335D02*
X66156149Y-38161286D01*
X66156149Y-38161286D02*
X66205676Y-38185447D01*
X66205676Y-38185447D02*
X66228240Y-38190080D01*
X66228240Y-38190080D02*
X66234436Y-38175186D01*
X66234436Y-38175186D02*
X66234708Y-38161286D01*
X66234708Y-38161286D02*
X66241026Y-38137143D01*
X66241026Y-38137143D02*
X66266771Y-38125112D01*
X66266771Y-38125112D02*
X66322125Y-38121339D01*
X66322125Y-38121339D02*
X66340542Y-38121234D01*
X66340542Y-38121234D02*
X66446375Y-38121234D01*
X66446375Y-38121234D02*
X66446375Y-38862068D01*
X66446375Y-38862068D02*
X66446375Y-38862068D01*
G36*
X66446375Y-38862068D02*
G01*
X66213542Y-38862068D01*
X66213542Y-38649439D01*
X66212784Y-38551246D01*
X66209230Y-38485583D01*
X66200956Y-38442655D01*
X66186038Y-38412667D01*
X66162554Y-38385825D01*
X66161587Y-38384855D01*
X66094674Y-38342028D01*
X66045170Y-38332901D01*
X66007013Y-38330664D01*
X65987986Y-38316673D01*
X65981436Y-38280005D01*
X65980708Y-38227068D01*
X65982607Y-38164079D01*
X65991573Y-38132650D01*
X66012512Y-38122062D01*
X66029149Y-38121234D01*
X66079090Y-38130755D01*
X66141781Y-38154335D01*
X66156149Y-38161286D01*
X66205676Y-38185447D01*
X66228240Y-38190080D01*
X66234436Y-38175186D01*
X66234708Y-38161286D01*
X66241026Y-38137143D01*
X66266771Y-38125112D01*
X66322125Y-38121339D01*
X66340542Y-38121234D01*
X66446375Y-38121234D01*
X66446375Y-38862068D01*
G37*
X66446375Y-38862068D02*
X66213542Y-38862068D01*
X66213542Y-38649439D01*
X66212784Y-38551246D01*
X66209230Y-38485583D01*
X66200956Y-38442655D01*
X66186038Y-38412667D01*
X66162554Y-38385825D01*
X66161587Y-38384855D01*
X66094674Y-38342028D01*
X66045170Y-38332901D01*
X66007013Y-38330664D01*
X65987986Y-38316673D01*
X65981436Y-38280005D01*
X65980708Y-38227068D01*
X65982607Y-38164079D01*
X65991573Y-38132650D01*
X66012512Y-38122062D01*
X66029149Y-38121234D01*
X66079090Y-38130755D01*
X66141781Y-38154335D01*
X66156149Y-38161286D01*
X66205676Y-38185447D01*
X66228240Y-38190080D01*
X66234436Y-38175186D01*
X66234708Y-38161286D01*
X66241026Y-38137143D01*
X66266771Y-38125112D01*
X66322125Y-38121339D01*
X66340542Y-38121234D01*
X66446375Y-38121234D01*
X66446375Y-38862068D01*
X68965208Y-38862068D02*
X68753542Y-38862068D01*
X68753542Y-38862068D02*
X68753542Y-38661980D01*
X68753542Y-38661980D02*
X68751038Y-38567926D01*
X68751038Y-38567926D02*
X68744338Y-38484736D01*
X68744338Y-38484736D02*
X68734654Y-38425163D01*
X68734654Y-38425163D02*
X68729457Y-38409034D01*
X68729457Y-38409034D02*
X68689088Y-38360283D01*
X68689088Y-38360283D02*
X68630133Y-38332212D01*
X68630133Y-38332212D02*
X68565574Y-38325979D01*
X68565574Y-38325979D02*
X68508396Y-38342745D01*
X68508396Y-38342745D02*
X68471583Y-38383669D01*
X68471583Y-38383669D02*
X68470678Y-38385927D01*
X68470678Y-38385927D02*
X68465037Y-38421026D01*
X68465037Y-38421026D02*
X68460557Y-38487713D01*
X68460557Y-38487713D02*
X68457804Y-38575248D01*
X68457804Y-38575248D02*
X68457208Y-38641549D01*
X68457208Y-38641549D02*
X68457208Y-38862068D01*
X68457208Y-38862068D02*
X68224375Y-38862068D01*
X68224375Y-38862068D02*
X68224840Y-38613359D01*
X68224840Y-38613359D02*
X68226644Y-38493383D01*
X68226644Y-38493383D02*
X68232309Y-38405861D01*
X68232309Y-38405861D02*
X68242993Y-38341002D01*
X68242993Y-38341002D02*
X68259856Y-38289013D01*
X68259856Y-38289013D02*
X68264488Y-38278378D01*
X68264488Y-38278378D02*
X68322696Y-38197654D01*
X68322696Y-38197654D02*
X68406663Y-38144639D01*
X68406663Y-38144639D02*
X68508128Y-38121847D01*
X68508128Y-38121847D02*
X68618832Y-38131791D01*
X68618832Y-38131791D02*
X68680138Y-38151904D01*
X68680138Y-38151904D02*
X68728316Y-38169937D01*
X68728316Y-38169937D02*
X68749201Y-38169380D01*
X68749201Y-38169380D02*
X68753542Y-38151904D01*
X68753542Y-38151904D02*
X68766059Y-38132399D01*
X68766059Y-38132399D02*
X68808342Y-38122957D01*
X68808342Y-38122957D02*
X68859375Y-38121234D01*
X68859375Y-38121234D02*
X68965208Y-38121234D01*
X68965208Y-38121234D02*
X68965208Y-38862068D01*
X68965208Y-38862068D02*
X68965208Y-38862068D01*
G36*
X68965208Y-38862068D02*
G01*
X68753542Y-38862068D01*
X68753542Y-38661980D01*
X68751038Y-38567926D01*
X68744338Y-38484736D01*
X68734654Y-38425163D01*
X68729457Y-38409034D01*
X68689088Y-38360283D01*
X68630133Y-38332212D01*
X68565574Y-38325979D01*
X68508396Y-38342745D01*
X68471583Y-38383669D01*
X68470678Y-38385927D01*
X68465037Y-38421026D01*
X68460557Y-38487713D01*
X68457804Y-38575248D01*
X68457208Y-38641549D01*
X68457208Y-38862068D01*
X68224375Y-38862068D01*
X68224840Y-38613359D01*
X68226644Y-38493383D01*
X68232309Y-38405861D01*
X68242993Y-38341002D01*
X68259856Y-38289013D01*
X68264488Y-38278378D01*
X68322696Y-38197654D01*
X68406663Y-38144639D01*
X68508128Y-38121847D01*
X68618832Y-38131791D01*
X68680138Y-38151904D01*
X68728316Y-38169937D01*
X68749201Y-38169380D01*
X68753542Y-38151904D01*
X68766059Y-38132399D01*
X68808342Y-38122957D01*
X68859375Y-38121234D01*
X68965208Y-38121234D01*
X68965208Y-38862068D01*
G37*
X68965208Y-38862068D02*
X68753542Y-38862068D01*
X68753542Y-38661980D01*
X68751038Y-38567926D01*
X68744338Y-38484736D01*
X68734654Y-38425163D01*
X68729457Y-38409034D01*
X68689088Y-38360283D01*
X68630133Y-38332212D01*
X68565574Y-38325979D01*
X68508396Y-38342745D01*
X68471583Y-38383669D01*
X68470678Y-38385927D01*
X68465037Y-38421026D01*
X68460557Y-38487713D01*
X68457804Y-38575248D01*
X68457208Y-38641549D01*
X68457208Y-38862068D01*
X68224375Y-38862068D01*
X68224840Y-38613359D01*
X68226644Y-38493383D01*
X68232309Y-38405861D01*
X68242993Y-38341002D01*
X68259856Y-38289013D01*
X68264488Y-38278378D01*
X68322696Y-38197654D01*
X68406663Y-38144639D01*
X68508128Y-38121847D01*
X68618832Y-38131791D01*
X68680138Y-38151904D01*
X68728316Y-38169937D01*
X68749201Y-38169380D01*
X68753542Y-38151904D01*
X68766059Y-38132399D01*
X68808342Y-38122957D01*
X68859375Y-38121234D01*
X68965208Y-38121234D01*
X68965208Y-38862068D01*
X65834109Y-37819897D02*
X65861011Y-37842443D01*
X65861011Y-37842443D02*
X65894062Y-37903132D01*
X65894062Y-37903132D02*
X65892035Y-37962899D01*
X65892035Y-37962899D02*
X65861504Y-38013261D01*
X65861504Y-38013261D02*
X65809043Y-38045734D01*
X65809043Y-38045734D02*
X65741228Y-38051835D01*
X65741228Y-38051835D02*
X65705542Y-38043045D01*
X65705542Y-38043045D02*
X65665655Y-38017264D01*
X65665655Y-38017264D02*
X65647333Y-37998337D01*
X65647333Y-37998337D02*
X65623804Y-37942785D01*
X65623804Y-37942785D02*
X65633701Y-37889122D01*
X65633701Y-37889122D02*
X65668353Y-37843674D01*
X65668353Y-37843674D02*
X65719087Y-37812769D01*
X65719087Y-37812769D02*
X65777230Y-37802734D01*
X65777230Y-37802734D02*
X65834109Y-37819897D01*
X65834109Y-37819897D02*
X65834109Y-37819897D01*
G36*
X65834109Y-37819897D02*
G01*
X65861011Y-37842443D01*
X65894062Y-37903132D01*
X65892035Y-37962899D01*
X65861504Y-38013261D01*
X65809043Y-38045734D01*
X65741228Y-38051835D01*
X65705542Y-38043045D01*
X65665655Y-38017264D01*
X65647333Y-37998337D01*
X65623804Y-37942785D01*
X65633701Y-37889122D01*
X65668353Y-37843674D01*
X65719087Y-37812769D01*
X65777230Y-37802734D01*
X65834109Y-37819897D01*
G37*
X65834109Y-37819897D02*
X65861011Y-37842443D01*
X65894062Y-37903132D01*
X65892035Y-37962899D01*
X65861504Y-38013261D01*
X65809043Y-38045734D01*
X65741228Y-38051835D01*
X65705542Y-38043045D01*
X65665655Y-38017264D01*
X65647333Y-37998337D01*
X65623804Y-37942785D01*
X65633701Y-37889122D01*
X65668353Y-37843674D01*
X65719087Y-37812769D01*
X65777230Y-37802734D01*
X65834109Y-37819897D01*
X64160874Y-36591943D02*
X64124967Y-36674897D01*
X64124967Y-36674897D02*
X64078972Y-36779768D01*
X64078972Y-36779768D02*
X64030218Y-36889891D01*
X64030218Y-36889891D02*
X64004961Y-36946484D01*
X64004961Y-36946484D02*
X63963698Y-37039534D01*
X63963698Y-37039534D02*
X63937977Y-37102784D01*
X63937977Y-37102784D02*
X63925927Y-37145021D01*
X63925927Y-37145021D02*
X63925677Y-37175032D01*
X63925677Y-37175032D02*
X63935354Y-37201601D01*
X63935354Y-37201601D02*
X63946346Y-37221651D01*
X63946346Y-37221651D02*
X63998332Y-37275659D01*
X63998332Y-37275659D02*
X64066651Y-37293849D01*
X64066651Y-37293849D02*
X64139896Y-37274199D01*
X64139896Y-37274199D02*
X64179623Y-37261757D01*
X64179623Y-37261757D02*
X64209371Y-37282436D01*
X64209371Y-37282436D02*
X64214353Y-37288769D01*
X64214353Y-37288769D02*
X64238112Y-37329041D01*
X64238112Y-37329041D02*
X64244368Y-37350545D01*
X64244368Y-37350545D02*
X64226212Y-37380159D01*
X64226212Y-37380159D02*
X64177494Y-37402837D01*
X64177494Y-37402837D02*
X64109682Y-37416700D01*
X64109682Y-37416700D02*
X64034245Y-37419869D01*
X64034245Y-37419869D02*
X63962650Y-37410467D01*
X63962650Y-37410467D02*
X63934067Y-37401364D01*
X63934067Y-37401364D02*
X63888114Y-37369842D01*
X63888114Y-37369842D02*
X63852591Y-37329131D01*
X63852591Y-37329131D02*
X63836143Y-37298170D01*
X63836143Y-37298170D02*
X63806629Y-37236987D01*
X63806629Y-37236987D02*
X63767130Y-37152448D01*
X63767130Y-37152448D02*
X63720733Y-37051419D01*
X63720733Y-37051419D02*
X63670522Y-36940768D01*
X63670522Y-36940768D02*
X63619580Y-36827360D01*
X63619580Y-36827360D02*
X63570993Y-36718062D01*
X63570993Y-36718062D02*
X63527844Y-36619741D01*
X63527844Y-36619741D02*
X63493219Y-36539262D01*
X63493219Y-36539262D02*
X63470201Y-36483494D01*
X63470201Y-36483494D02*
X63461875Y-36459318D01*
X63461875Y-36459318D02*
X63480452Y-36452419D01*
X63480452Y-36452419D02*
X63525870Y-36449116D01*
X63525870Y-36449116D02*
X63532783Y-36449068D01*
X63532783Y-36449068D02*
X63570390Y-36451522D01*
X63570390Y-36451522D02*
X63597062Y-36464488D01*
X63597062Y-36464488D02*
X63620512Y-36496366D01*
X63620512Y-36496366D02*
X63648454Y-36555560D01*
X63648454Y-36555560D02*
X63663957Y-36591943D01*
X63663957Y-36591943D02*
X63704548Y-36686895D01*
X63704548Y-36686895D02*
X63748648Y-36788122D01*
X63748648Y-36788122D02*
X63779920Y-36858543D01*
X63779920Y-36858543D02*
X63835617Y-36982269D01*
X63835617Y-36982269D02*
X64065125Y-36449593D01*
X64065125Y-36449593D02*
X64143557Y-36449330D01*
X64143557Y-36449330D02*
X64221989Y-36449068D01*
X64221989Y-36449068D02*
X64160874Y-36591943D01*
X64160874Y-36591943D02*
X64160874Y-36591943D01*
G36*
X64160874Y-36591943D02*
G01*
X64124967Y-36674897D01*
X64078972Y-36779768D01*
X64030218Y-36889891D01*
X64004961Y-36946484D01*
X63963698Y-37039534D01*
X63937977Y-37102784D01*
X63925927Y-37145021D01*
X63925677Y-37175032D01*
X63935354Y-37201601D01*
X63946346Y-37221651D01*
X63998332Y-37275659D01*
X64066651Y-37293849D01*
X64139896Y-37274199D01*
X64179623Y-37261757D01*
X64209371Y-37282436D01*
X64214353Y-37288769D01*
X64238112Y-37329041D01*
X64244368Y-37350545D01*
X64226212Y-37380159D01*
X64177494Y-37402837D01*
X64109682Y-37416700D01*
X64034245Y-37419869D01*
X63962650Y-37410467D01*
X63934067Y-37401364D01*
X63888114Y-37369842D01*
X63852591Y-37329131D01*
X63836143Y-37298170D01*
X63806629Y-37236987D01*
X63767130Y-37152448D01*
X63720733Y-37051419D01*
X63670522Y-36940768D01*
X63619580Y-36827360D01*
X63570993Y-36718062D01*
X63527844Y-36619741D01*
X63493219Y-36539262D01*
X63470201Y-36483494D01*
X63461875Y-36459318D01*
X63480452Y-36452419D01*
X63525870Y-36449116D01*
X63532783Y-36449068D01*
X63570390Y-36451522D01*
X63597062Y-36464488D01*
X63620512Y-36496366D01*
X63648454Y-36555560D01*
X63663957Y-36591943D01*
X63704548Y-36686895D01*
X63748648Y-36788122D01*
X63779920Y-36858543D01*
X63835617Y-36982269D01*
X64065125Y-36449593D01*
X64143557Y-36449330D01*
X64221989Y-36449068D01*
X64160874Y-36591943D01*
G37*
X64160874Y-36591943D02*
X64124967Y-36674897D01*
X64078972Y-36779768D01*
X64030218Y-36889891D01*
X64004961Y-36946484D01*
X63963698Y-37039534D01*
X63937977Y-37102784D01*
X63925927Y-37145021D01*
X63925677Y-37175032D01*
X63935354Y-37201601D01*
X63946346Y-37221651D01*
X63998332Y-37275659D01*
X64066651Y-37293849D01*
X64139896Y-37274199D01*
X64179623Y-37261757D01*
X64209371Y-37282436D01*
X64214353Y-37288769D01*
X64238112Y-37329041D01*
X64244368Y-37350545D01*
X64226212Y-37380159D01*
X64177494Y-37402837D01*
X64109682Y-37416700D01*
X64034245Y-37419869D01*
X63962650Y-37410467D01*
X63934067Y-37401364D01*
X63888114Y-37369842D01*
X63852591Y-37329131D01*
X63836143Y-37298170D01*
X63806629Y-37236987D01*
X63767130Y-37152448D01*
X63720733Y-37051419D01*
X63670522Y-36940768D01*
X63619580Y-36827360D01*
X63570993Y-36718062D01*
X63527844Y-36619741D01*
X63493219Y-36539262D01*
X63470201Y-36483494D01*
X63461875Y-36459318D01*
X63480452Y-36452419D01*
X63525870Y-36449116D01*
X63532783Y-36449068D01*
X63570390Y-36451522D01*
X63597062Y-36464488D01*
X63620512Y-36496366D01*
X63648454Y-36555560D01*
X63663957Y-36591943D01*
X63704548Y-36686895D01*
X63748648Y-36788122D01*
X63779920Y-36858543D01*
X63835617Y-36982269D01*
X64065125Y-36449593D01*
X64143557Y-36449330D01*
X64221989Y-36449068D01*
X64160874Y-36591943D01*
X58398699Y-36989697D02*
X58419975Y-37003634D01*
X58419975Y-37003634D02*
X58441181Y-37044900D01*
X58441181Y-37044900D02*
X58445375Y-37073484D01*
X58445375Y-37073484D02*
X58433912Y-37122058D01*
X58433912Y-37122058D02*
X58419975Y-37143334D01*
X58419975Y-37143334D02*
X58378709Y-37164541D01*
X58378709Y-37164541D02*
X58350125Y-37168734D01*
X58350125Y-37168734D02*
X58301551Y-37157271D01*
X58301551Y-37157271D02*
X58280275Y-37143334D01*
X58280275Y-37143334D02*
X58259068Y-37102068D01*
X58259068Y-37102068D02*
X58254875Y-37073484D01*
X58254875Y-37073484D02*
X58266338Y-37024910D01*
X58266338Y-37024910D02*
X58280275Y-37003634D01*
X58280275Y-37003634D02*
X58321541Y-36982428D01*
X58321541Y-36982428D02*
X58350125Y-36978234D01*
X58350125Y-36978234D02*
X58398699Y-36989697D01*
X58398699Y-36989697D02*
X58398699Y-36989697D01*
G36*
X58398699Y-36989697D02*
G01*
X58419975Y-37003634D01*
X58441181Y-37044900D01*
X58445375Y-37073484D01*
X58433912Y-37122058D01*
X58419975Y-37143334D01*
X58378709Y-37164541D01*
X58350125Y-37168734D01*
X58301551Y-37157271D01*
X58280275Y-37143334D01*
X58259068Y-37102068D01*
X58254875Y-37073484D01*
X58266338Y-37024910D01*
X58280275Y-37003634D01*
X58321541Y-36982428D01*
X58350125Y-36978234D01*
X58398699Y-36989697D01*
G37*
X58398699Y-36989697D02*
X58419975Y-37003634D01*
X58441181Y-37044900D01*
X58445375Y-37073484D01*
X58433912Y-37122058D01*
X58419975Y-37143334D01*
X58378709Y-37164541D01*
X58350125Y-37168734D01*
X58301551Y-37157271D01*
X58280275Y-37143334D01*
X58259068Y-37102068D01*
X58254875Y-37073484D01*
X58266338Y-37024910D01*
X58280275Y-37003634D01*
X58321541Y-36982428D01*
X58350125Y-36978234D01*
X58398699Y-36989697D01*
X58939678Y-36453723D02*
X59025185Y-36495043D01*
X59025185Y-36495043D02*
X59084015Y-36558161D01*
X59084015Y-36558161D02*
X59110319Y-36639995D01*
X59110319Y-36639995D02*
X59111163Y-36659043D01*
X59111163Y-36659043D02*
X59098208Y-36739215D01*
X59098208Y-36739215D02*
X59056189Y-36796588D01*
X59056189Y-36796588D02*
X58980372Y-36836058D01*
X58980372Y-36836058D02*
X58925167Y-36851324D01*
X58925167Y-36851324D02*
X58818611Y-36876445D01*
X58818611Y-36876445D02*
X58747341Y-36896857D01*
X58747341Y-36896857D02*
X58705006Y-36915508D01*
X58705006Y-36915508D02*
X58685255Y-36935342D01*
X58685255Y-36935342D02*
X58681739Y-36959305D01*
X58681739Y-36959305D02*
X58682295Y-36963972D01*
X58682295Y-36963972D02*
X58708049Y-37010099D01*
X58708049Y-37010099D02*
X58767074Y-37033530D01*
X58767074Y-37033530D02*
X58856793Y-37034085D01*
X58856793Y-37034085D02*
X58974628Y-37011584D01*
X58974628Y-37011584D02*
X59049876Y-36989516D01*
X59049876Y-36989516D02*
X59087676Y-36988793D01*
X59087676Y-36988793D02*
X59114684Y-37022198D01*
X59114684Y-37022198D02*
X59117481Y-37028132D01*
X59117481Y-37028132D02*
X59130865Y-37073244D01*
X59130865Y-37073244D02*
X59117033Y-37099920D01*
X59117033Y-37099920D02*
X59116230Y-37100556D01*
X59116230Y-37100556D02*
X59048078Y-37134499D01*
X59048078Y-37134499D02*
X58954092Y-37157152D01*
X58954092Y-37157152D02*
X58849637Y-37166956D01*
X58849637Y-37166956D02*
X58750077Y-37162354D01*
X58750077Y-37162354D02*
X58678219Y-37144954D01*
X58678219Y-37144954D02*
X58591725Y-37093218D01*
X58591725Y-37093218D02*
X58542251Y-37022384D01*
X58542251Y-37022384D02*
X58530042Y-36953378D01*
X58530042Y-36953378D02*
X58544952Y-36873124D01*
X58544952Y-36873124D02*
X58592005Y-36815057D01*
X58592005Y-36815057D02*
X58674686Y-36775442D01*
X58674686Y-36775442D02*
X58703550Y-36767430D01*
X58703550Y-36767430D02*
X58825008Y-36735454D01*
X58825008Y-36735454D02*
X58908456Y-36707995D01*
X58908456Y-36707995D02*
X58957633Y-36682557D01*
X58957633Y-36682557D02*
X58976278Y-36656645D01*
X58976278Y-36656645D02*
X58968129Y-36627762D01*
X58968129Y-36627762D02*
X58948171Y-36604125D01*
X58948171Y-36604125D02*
X58905428Y-36584165D01*
X58905428Y-36584165D02*
X58837479Y-36574104D01*
X58837479Y-36574104D02*
X58760356Y-36574294D01*
X58760356Y-36574294D02*
X58690095Y-36585086D01*
X58690095Y-36585086D02*
X58656115Y-36597730D01*
X58656115Y-36597730D02*
X58623015Y-36613851D01*
X58623015Y-36613851D02*
X58603698Y-36609591D01*
X58603698Y-36609591D02*
X58583719Y-36577950D01*
X58583719Y-36577950D02*
X58573057Y-36557501D01*
X58573057Y-36557501D02*
X58559843Y-36521556D01*
X58559843Y-36521556D02*
X58568576Y-36495866D01*
X58568576Y-36495866D02*
X58605191Y-36475786D01*
X58605191Y-36475786D02*
X58675626Y-36456674D01*
X58675626Y-36456674D02*
X58712025Y-36448798D01*
X58712025Y-36448798D02*
X58833342Y-36437281D01*
X58833342Y-36437281D02*
X58939678Y-36453723D01*
X58939678Y-36453723D02*
X58939678Y-36453723D01*
G36*
X58939678Y-36453723D02*
G01*
X59025185Y-36495043D01*
X59084015Y-36558161D01*
X59110319Y-36639995D01*
X59111163Y-36659043D01*
X59098208Y-36739215D01*
X59056189Y-36796588D01*
X58980372Y-36836058D01*
X58925167Y-36851324D01*
X58818611Y-36876445D01*
X58747341Y-36896857D01*
X58705006Y-36915508D01*
X58685255Y-36935342D01*
X58681739Y-36959305D01*
X58682295Y-36963972D01*
X58708049Y-37010099D01*
X58767074Y-37033530D01*
X58856793Y-37034085D01*
X58974628Y-37011584D01*
X59049876Y-36989516D01*
X59087676Y-36988793D01*
X59114684Y-37022198D01*
X59117481Y-37028132D01*
X59130865Y-37073244D01*
X59117033Y-37099920D01*
X59116230Y-37100556D01*
X59048078Y-37134499D01*
X58954092Y-37157152D01*
X58849637Y-37166956D01*
X58750077Y-37162354D01*
X58678219Y-37144954D01*
X58591725Y-37093218D01*
X58542251Y-37022384D01*
X58530042Y-36953378D01*
X58544952Y-36873124D01*
X58592005Y-36815057D01*
X58674686Y-36775442D01*
X58703550Y-36767430D01*
X58825008Y-36735454D01*
X58908456Y-36707995D01*
X58957633Y-36682557D01*
X58976278Y-36656645D01*
X58968129Y-36627762D01*
X58948171Y-36604125D01*
X58905428Y-36584165D01*
X58837479Y-36574104D01*
X58760356Y-36574294D01*
X58690095Y-36585086D01*
X58656115Y-36597730D01*
X58623015Y-36613851D01*
X58603698Y-36609591D01*
X58583719Y-36577950D01*
X58573057Y-36557501D01*
X58559843Y-36521556D01*
X58568576Y-36495866D01*
X58605191Y-36475786D01*
X58675626Y-36456674D01*
X58712025Y-36448798D01*
X58833342Y-36437281D01*
X58939678Y-36453723D01*
G37*
X58939678Y-36453723D02*
X59025185Y-36495043D01*
X59084015Y-36558161D01*
X59110319Y-36639995D01*
X59111163Y-36659043D01*
X59098208Y-36739215D01*
X59056189Y-36796588D01*
X58980372Y-36836058D01*
X58925167Y-36851324D01*
X58818611Y-36876445D01*
X58747341Y-36896857D01*
X58705006Y-36915508D01*
X58685255Y-36935342D01*
X58681739Y-36959305D01*
X58682295Y-36963972D01*
X58708049Y-37010099D01*
X58767074Y-37033530D01*
X58856793Y-37034085D01*
X58974628Y-37011584D01*
X59049876Y-36989516D01*
X59087676Y-36988793D01*
X59114684Y-37022198D01*
X59117481Y-37028132D01*
X59130865Y-37073244D01*
X59117033Y-37099920D01*
X59116230Y-37100556D01*
X59048078Y-37134499D01*
X58954092Y-37157152D01*
X58849637Y-37166956D01*
X58750077Y-37162354D01*
X58678219Y-37144954D01*
X58591725Y-37093218D01*
X58542251Y-37022384D01*
X58530042Y-36953378D01*
X58544952Y-36873124D01*
X58592005Y-36815057D01*
X58674686Y-36775442D01*
X58703550Y-36767430D01*
X58825008Y-36735454D01*
X58908456Y-36707995D01*
X58957633Y-36682557D01*
X58976278Y-36656645D01*
X58968129Y-36627762D01*
X58948171Y-36604125D01*
X58905428Y-36584165D01*
X58837479Y-36574104D01*
X58760356Y-36574294D01*
X58690095Y-36585086D01*
X58656115Y-36597730D01*
X58623015Y-36613851D01*
X58603698Y-36609591D01*
X58583719Y-36577950D01*
X58573057Y-36557501D01*
X58559843Y-36521556D01*
X58568576Y-36495866D01*
X58605191Y-36475786D01*
X58675626Y-36456674D01*
X58712025Y-36448798D01*
X58833342Y-36437281D01*
X58939678Y-36453723D01*
X59582746Y-36446449D02*
X59699184Y-36488180D01*
X59699184Y-36488180D02*
X59729142Y-36506017D01*
X59729142Y-36506017D02*
X59789549Y-36567162D01*
X59789549Y-36567162D02*
X59835718Y-36655247D01*
X59835718Y-36655247D02*
X59860873Y-36755544D01*
X59860873Y-36755544D02*
X59863542Y-36798154D01*
X59863542Y-36798154D02*
X59846188Y-36927030D01*
X59846188Y-36927030D02*
X59795591Y-37030433D01*
X59795591Y-37030433D02*
X59713950Y-37106043D01*
X59713950Y-37106043D02*
X59603462Y-37151539D01*
X59603462Y-37151539D02*
X59517042Y-37163875D01*
X59517042Y-37163875D02*
X59424492Y-37163983D01*
X59424492Y-37163983D02*
X59355760Y-37149916D01*
X59355760Y-37149916D02*
X59314627Y-37131215D01*
X59314627Y-37131215D02*
X59258621Y-37093110D01*
X59258621Y-37093110D02*
X59216328Y-37052077D01*
X59216328Y-37052077D02*
X59212432Y-37046673D01*
X59212432Y-37046673D02*
X59195978Y-37014269D01*
X59195978Y-37014269D02*
X59207049Y-36992390D01*
X59207049Y-36992390D02*
X59244596Y-36970294D01*
X59244596Y-36970294D02*
X59289779Y-36950801D01*
X59289779Y-36950801D02*
X59319556Y-36955573D01*
X59319556Y-36955573D02*
X59348977Y-36981077D01*
X59348977Y-36981077D02*
X59397650Y-37011587D01*
X59397650Y-37011587D02*
X59463931Y-37032953D01*
X59463931Y-37032953D02*
X59478844Y-37035456D01*
X59478844Y-37035456D02*
X59535217Y-37039303D01*
X59535217Y-37039303D02*
X59576269Y-37027404D01*
X59576269Y-37027404D02*
X59619950Y-36992775D01*
X59619950Y-36992775D02*
X59640700Y-36972475D01*
X59640700Y-36972475D02*
X59687749Y-36919044D01*
X59687749Y-36919044D02*
X59709669Y-36870118D01*
X59709669Y-36870118D02*
X59715355Y-36805011D01*
X59715355Y-36805011D02*
X59715375Y-36798806D01*
X59715375Y-36798806D02*
X59709601Y-36727445D01*
X59709601Y-36727445D02*
X59686810Y-36676164D01*
X59686810Y-36676164D02*
X59653503Y-36637939D01*
X59653503Y-36637939D02*
X59577271Y-36589351D01*
X59577271Y-36589351D02*
X59487340Y-36573458D01*
X59487340Y-36573458D02*
X59397855Y-36591071D01*
X59397855Y-36591071D02*
X59347190Y-36620427D01*
X59347190Y-36620427D02*
X59306407Y-36648982D01*
X59306407Y-36648982D02*
X59276775Y-36651578D01*
X59276775Y-36651578D02*
X59237157Y-36629638D01*
X59237157Y-36629638D02*
X59234643Y-36627994D01*
X59234643Y-36627994D02*
X59178490Y-36591201D01*
X59178490Y-36591201D02*
X59245020Y-36531757D01*
X59245020Y-36531757D02*
X59345587Y-36468773D01*
X59345587Y-36468773D02*
X59461521Y-36440158D01*
X59461521Y-36440158D02*
X59582746Y-36446449D01*
X59582746Y-36446449D02*
X59582746Y-36446449D01*
G36*
X59582746Y-36446449D02*
G01*
X59699184Y-36488180D01*
X59729142Y-36506017D01*
X59789549Y-36567162D01*
X59835718Y-36655247D01*
X59860873Y-36755544D01*
X59863542Y-36798154D01*
X59846188Y-36927030D01*
X59795591Y-37030433D01*
X59713950Y-37106043D01*
X59603462Y-37151539D01*
X59517042Y-37163875D01*
X59424492Y-37163983D01*
X59355760Y-37149916D01*
X59314627Y-37131215D01*
X59258621Y-37093110D01*
X59216328Y-37052077D01*
X59212432Y-37046673D01*
X59195978Y-37014269D01*
X59207049Y-36992390D01*
X59244596Y-36970294D01*
X59289779Y-36950801D01*
X59319556Y-36955573D01*
X59348977Y-36981077D01*
X59397650Y-37011587D01*
X59463931Y-37032953D01*
X59478844Y-37035456D01*
X59535217Y-37039303D01*
X59576269Y-37027404D01*
X59619950Y-36992775D01*
X59640700Y-36972475D01*
X59687749Y-36919044D01*
X59709669Y-36870118D01*
X59715355Y-36805011D01*
X59715375Y-36798806D01*
X59709601Y-36727445D01*
X59686810Y-36676164D01*
X59653503Y-36637939D01*
X59577271Y-36589351D01*
X59487340Y-36573458D01*
X59397855Y-36591071D01*
X59347190Y-36620427D01*
X59306407Y-36648982D01*
X59276775Y-36651578D01*
X59237157Y-36629638D01*
X59234643Y-36627994D01*
X59178490Y-36591201D01*
X59245020Y-36531757D01*
X59345587Y-36468773D01*
X59461521Y-36440158D01*
X59582746Y-36446449D01*
G37*
X59582746Y-36446449D02*
X59699184Y-36488180D01*
X59729142Y-36506017D01*
X59789549Y-36567162D01*
X59835718Y-36655247D01*
X59860873Y-36755544D01*
X59863542Y-36798154D01*
X59846188Y-36927030D01*
X59795591Y-37030433D01*
X59713950Y-37106043D01*
X59603462Y-37151539D01*
X59517042Y-37163875D01*
X59424492Y-37163983D01*
X59355760Y-37149916D01*
X59314627Y-37131215D01*
X59258621Y-37093110D01*
X59216328Y-37052077D01*
X59212432Y-37046673D01*
X59195978Y-37014269D01*
X59207049Y-36992390D01*
X59244596Y-36970294D01*
X59289779Y-36950801D01*
X59319556Y-36955573D01*
X59348977Y-36981077D01*
X59397650Y-37011587D01*
X59463931Y-37032953D01*
X59478844Y-37035456D01*
X59535217Y-37039303D01*
X59576269Y-37027404D01*
X59619950Y-36992775D01*
X59640700Y-36972475D01*
X59687749Y-36919044D01*
X59709669Y-36870118D01*
X59715355Y-36805011D01*
X59715375Y-36798806D01*
X59709601Y-36727445D01*
X59686810Y-36676164D01*
X59653503Y-36637939D01*
X59577271Y-36589351D01*
X59487340Y-36573458D01*
X59397855Y-36591071D01*
X59347190Y-36620427D01*
X59306407Y-36648982D01*
X59276775Y-36651578D01*
X59237157Y-36629638D01*
X59234643Y-36627994D01*
X59178490Y-36591201D01*
X59245020Y-36531757D01*
X59345587Y-36468773D01*
X59461521Y-36440158D01*
X59582746Y-36446449D01*
X60472765Y-36460765D02*
X60570623Y-36516127D01*
X60570623Y-36516127D02*
X60646420Y-36598875D01*
X60646420Y-36598875D02*
X60693371Y-36704350D01*
X60693371Y-36704350D02*
X60704486Y-36770981D01*
X60704486Y-36770981D02*
X60695462Y-36896693D01*
X60695462Y-36896693D02*
X60651396Y-37004307D01*
X60651396Y-37004307D02*
X60577048Y-37088655D01*
X60577048Y-37088655D02*
X60477176Y-37144569D01*
X60477176Y-37144569D02*
X60356539Y-37166880D01*
X60356539Y-37166880D02*
X60339792Y-37167044D01*
X60339792Y-37167044D02*
X60265698Y-37162207D01*
X60265698Y-37162207D02*
X60201046Y-37151137D01*
X60201046Y-37151137D02*
X60181052Y-37144954D01*
X60181052Y-37144954D02*
X60083184Y-37084514D01*
X60083184Y-37084514D02*
X60013561Y-36995205D01*
X60013561Y-36995205D02*
X59975575Y-36882429D01*
X59975575Y-36882429D02*
X59969375Y-36807859D01*
X59969375Y-36807859D02*
X59971389Y-36791398D01*
X59971389Y-36791398D02*
X60118292Y-36791398D01*
X60118292Y-36791398D02*
X60134306Y-36898177D01*
X60134306Y-36898177D02*
X60178547Y-36976180D01*
X60178547Y-36976180D02*
X60248266Y-37022632D01*
X60248266Y-37022632D02*
X60340714Y-37034755D01*
X60340714Y-37034755D02*
X60357747Y-37033288D01*
X60357747Y-37033288D02*
X60426141Y-37014490D01*
X60426141Y-37014490D02*
X60484843Y-36980889D01*
X60484843Y-36980889D02*
X60489715Y-36976584D01*
X60489715Y-36976584D02*
X60536405Y-36907043D01*
X60536405Y-36907043D02*
X60558671Y-36818315D01*
X60558671Y-36818315D02*
X60552932Y-36733153D01*
X60552932Y-36733153D02*
X60514255Y-36655900D01*
X60514255Y-36655900D02*
X60449647Y-36602834D01*
X60449647Y-36602834D02*
X60369645Y-36576640D01*
X60369645Y-36576640D02*
X60284786Y-36580004D01*
X60284786Y-36580004D02*
X60205604Y-36615613D01*
X60205604Y-36615613D02*
X60179413Y-36637939D01*
X60179413Y-36637939D02*
X60136599Y-36691594D01*
X60136599Y-36691594D02*
X60119810Y-36750250D01*
X60119810Y-36750250D02*
X60118292Y-36791398D01*
X60118292Y-36791398D02*
X59971389Y-36791398D01*
X59971389Y-36791398D02*
X59985097Y-36679371D01*
X59985097Y-36679371D02*
X60032893Y-36578315D01*
X60032893Y-36578315D02*
X60113710Y-36503435D01*
X60113710Y-36503435D02*
X60228494Y-36453473D01*
X60228494Y-36453473D02*
X60238008Y-36450827D01*
X60238008Y-36450827D02*
X60359631Y-36437446D01*
X60359631Y-36437446D02*
X60472765Y-36460765D01*
X60472765Y-36460765D02*
X60472765Y-36460765D01*
G36*
X60032893Y-36578315D02*
G01*
X60113710Y-36503435D01*
X60228494Y-36453473D01*
X60238008Y-36450827D01*
X60359631Y-36437446D01*
X60472765Y-36460765D01*
X60570623Y-36516127D01*
X60646420Y-36598875D01*
X60693371Y-36704350D01*
X60704486Y-36770981D01*
X60695462Y-36896693D01*
X60651396Y-37004307D01*
X60577048Y-37088655D01*
X60477176Y-37144569D01*
X60356539Y-37166880D01*
X60339792Y-37167044D01*
X60265698Y-37162207D01*
X60201046Y-37151137D01*
X60181052Y-37144954D01*
X60083184Y-37084514D01*
X60013561Y-36995205D01*
X59975575Y-36882429D01*
X59969375Y-36807859D01*
X59971389Y-36791398D01*
X60118292Y-36791398D01*
X60134306Y-36898177D01*
X60178547Y-36976180D01*
X60248266Y-37022632D01*
X60340714Y-37034755D01*
X60357747Y-37033288D01*
X60426141Y-37014490D01*
X60484843Y-36980889D01*
X60489715Y-36976584D01*
X60536405Y-36907043D01*
X60558671Y-36818315D01*
X60552932Y-36733153D01*
X60514255Y-36655900D01*
X60449647Y-36602834D01*
X60369645Y-36576640D01*
X60284786Y-36580004D01*
X60205604Y-36615613D01*
X60179413Y-36637939D01*
X60136599Y-36691594D01*
X60119810Y-36750250D01*
X60118292Y-36791398D01*
X59971389Y-36791398D01*
X59985097Y-36679371D01*
X60032893Y-36578315D01*
G37*
X60032893Y-36578315D02*
X60113710Y-36503435D01*
X60228494Y-36453473D01*
X60238008Y-36450827D01*
X60359631Y-36437446D01*
X60472765Y-36460765D01*
X60570623Y-36516127D01*
X60646420Y-36598875D01*
X60693371Y-36704350D01*
X60704486Y-36770981D01*
X60695462Y-36896693D01*
X60651396Y-37004307D01*
X60577048Y-37088655D01*
X60477176Y-37144569D01*
X60356539Y-37166880D01*
X60339792Y-37167044D01*
X60265698Y-37162207D01*
X60201046Y-37151137D01*
X60181052Y-37144954D01*
X60083184Y-37084514D01*
X60013561Y-36995205D01*
X59975575Y-36882429D01*
X59969375Y-36807859D01*
X59971389Y-36791398D01*
X60118292Y-36791398D01*
X60134306Y-36898177D01*
X60178547Y-36976180D01*
X60248266Y-37022632D01*
X60340714Y-37034755D01*
X60357747Y-37033288D01*
X60426141Y-37014490D01*
X60484843Y-36980889D01*
X60489715Y-36976584D01*
X60536405Y-36907043D01*
X60558671Y-36818315D01*
X60552932Y-36733153D01*
X60514255Y-36655900D01*
X60449647Y-36602834D01*
X60369645Y-36576640D01*
X60284786Y-36580004D01*
X60205604Y-36615613D01*
X60179413Y-36637939D01*
X60136599Y-36691594D01*
X60119810Y-36750250D01*
X60118292Y-36791398D01*
X59971389Y-36791398D01*
X59985097Y-36679371D01*
X60032893Y-36578315D01*
X61726208Y-37168734D02*
X61488083Y-37167306D01*
X61488083Y-37167306D02*
X61380053Y-37164282D01*
X61380053Y-37164282D02*
X61276821Y-37157251D01*
X61276821Y-37157251D02*
X61192218Y-37147364D01*
X61192218Y-37147364D02*
X61150910Y-37139207D01*
X61150910Y-37139207D02*
X61022676Y-37084791D01*
X61022676Y-37084791D02*
X60920997Y-36999190D01*
X60920997Y-36999190D02*
X60858205Y-36903801D01*
X60858205Y-36903801D02*
X60821744Y-36785887D01*
X60821744Y-36785887D02*
X60817308Y-36688745D01*
X60817308Y-36688745D02*
X60974792Y-36688745D01*
X60974792Y-36688745D02*
X60986708Y-36806056D01*
X60986708Y-36806056D02*
X61024342Y-36895391D01*
X61024342Y-36895391D02*
X61090519Y-36958990D01*
X61090519Y-36958990D02*
X61188065Y-36999092D01*
X61188065Y-36999092D02*
X61319805Y-37017937D01*
X61319805Y-37017937D02*
X61392833Y-37020086D01*
X61392833Y-37020086D02*
X61578042Y-37020568D01*
X61578042Y-37020568D02*
X61578042Y-36336968D01*
X61578042Y-36336968D02*
X61386436Y-36349382D01*
X61386436Y-36349382D02*
X61237867Y-36367817D01*
X61237867Y-36367817D02*
X61125896Y-36403163D01*
X61125896Y-36403163D02*
X61047245Y-36458122D01*
X61047245Y-36458122D02*
X60998632Y-36535399D01*
X60998632Y-36535399D02*
X60976779Y-36637698D01*
X60976779Y-36637698D02*
X60974792Y-36688745D01*
X60974792Y-36688745D02*
X60817308Y-36688745D01*
X60817308Y-36688745D02*
X60815854Y-36656919D01*
X60815854Y-36656919D02*
X60839532Y-36531299D01*
X60839532Y-36531299D02*
X60891705Y-36423521D01*
X60891705Y-36423521D02*
X60950439Y-36357035D01*
X60950439Y-36357035D02*
X61022722Y-36297262D01*
X61022722Y-36297262D02*
X61049815Y-36280245D01*
X61049815Y-36280245D02*
X61092257Y-36258744D01*
X61092257Y-36258744D02*
X61135089Y-36243605D01*
X61135089Y-36243605D02*
X61187397Y-36233399D01*
X61187397Y-36233399D02*
X61258268Y-36226698D01*
X61258268Y-36226698D02*
X61356789Y-36222072D01*
X61356789Y-36222072D02*
X61435167Y-36219635D01*
X61435167Y-36219635D02*
X61726208Y-36211430D01*
X61726208Y-36211430D02*
X61726208Y-37168734D01*
X61726208Y-37168734D02*
X61726208Y-37168734D01*
G36*
X60839532Y-36531299D02*
G01*
X60891705Y-36423521D01*
X60950439Y-36357035D01*
X61022722Y-36297262D01*
X61049815Y-36280245D01*
X61092257Y-36258744D01*
X61135089Y-36243605D01*
X61187397Y-36233399D01*
X61258268Y-36226698D01*
X61356789Y-36222072D01*
X61435167Y-36219635D01*
X61726208Y-36211430D01*
X61726208Y-37168734D01*
X61488083Y-37167306D01*
X61380053Y-37164282D01*
X61276821Y-37157251D01*
X61192218Y-37147364D01*
X61150910Y-37139207D01*
X61022676Y-37084791D01*
X60920997Y-36999190D01*
X60858205Y-36903801D01*
X60821744Y-36785887D01*
X60817308Y-36688745D01*
X60974792Y-36688745D01*
X60986708Y-36806056D01*
X61024342Y-36895391D01*
X61090519Y-36958990D01*
X61188065Y-36999092D01*
X61319805Y-37017937D01*
X61392833Y-37020086D01*
X61578042Y-37020568D01*
X61578042Y-36336968D01*
X61386436Y-36349382D01*
X61237867Y-36367817D01*
X61125896Y-36403163D01*
X61047245Y-36458122D01*
X60998632Y-36535399D01*
X60976779Y-36637698D01*
X60974792Y-36688745D01*
X60817308Y-36688745D01*
X60815854Y-36656919D01*
X60839532Y-36531299D01*
G37*
X60839532Y-36531299D02*
X60891705Y-36423521D01*
X60950439Y-36357035D01*
X61022722Y-36297262D01*
X61049815Y-36280245D01*
X61092257Y-36258744D01*
X61135089Y-36243605D01*
X61187397Y-36233399D01*
X61258268Y-36226698D01*
X61356789Y-36222072D01*
X61435167Y-36219635D01*
X61726208Y-36211430D01*
X61726208Y-37168734D01*
X61488083Y-37167306D01*
X61380053Y-37164282D01*
X61276821Y-37157251D01*
X61192218Y-37147364D01*
X61150910Y-37139207D01*
X61022676Y-37084791D01*
X60920997Y-36999190D01*
X60858205Y-36903801D01*
X60821744Y-36785887D01*
X60817308Y-36688745D01*
X60974792Y-36688745D01*
X60986708Y-36806056D01*
X61024342Y-36895391D01*
X61090519Y-36958990D01*
X61188065Y-36999092D01*
X61319805Y-37017937D01*
X61392833Y-37020086D01*
X61578042Y-37020568D01*
X61578042Y-36336968D01*
X61386436Y-36349382D01*
X61237867Y-36367817D01*
X61125896Y-36403163D01*
X61047245Y-36458122D01*
X60998632Y-36535399D01*
X60976779Y-36637698D01*
X60974792Y-36688745D01*
X60817308Y-36688745D01*
X60815854Y-36656919D01*
X60839532Y-36531299D01*
X62792307Y-36230022D02*
X62877158Y-36269432D01*
X62877158Y-36269432D02*
X62929928Y-36331536D01*
X62929928Y-36331536D02*
X62947863Y-36413405D01*
X62947863Y-36413405D02*
X62935633Y-36489986D01*
X62935633Y-36489986D02*
X62912580Y-36548679D01*
X62912580Y-36548679D02*
X62886401Y-36590940D01*
X62886401Y-36590940D02*
X62881177Y-36596085D01*
X62881177Y-36596085D02*
X62869731Y-36614129D01*
X62869731Y-36614129D02*
X62878843Y-36639493D01*
X62878843Y-36639493D02*
X62912845Y-36679514D01*
X62912845Y-36679514D02*
X62955357Y-36721704D01*
X62955357Y-36721704D02*
X63012446Y-36779951D01*
X63012446Y-36779951D02*
X63044073Y-36824018D01*
X63044073Y-36824018D02*
X63057402Y-36866699D01*
X63057402Y-36866699D02*
X63059708Y-36907988D01*
X63059708Y-36907988D02*
X63041191Y-37006261D01*
X63041191Y-37006261D02*
X62987792Y-37083583D01*
X62987792Y-37083583D02*
X62902737Y-37137441D01*
X62902737Y-37137441D02*
X62789251Y-37165319D01*
X62789251Y-37165319D02*
X62725245Y-37168734D01*
X62725245Y-37168734D02*
X62617665Y-37159543D01*
X62617665Y-37159543D02*
X62525428Y-37128324D01*
X62525428Y-37128324D02*
X62504032Y-37117523D01*
X62504032Y-37117523D02*
X62407716Y-37066312D01*
X62407716Y-37066312D02*
X62359606Y-37117523D01*
X62359606Y-37117523D02*
X62318532Y-37156809D01*
X62318532Y-37156809D02*
X62289819Y-37164472D01*
X62289819Y-37164472D02*
X62258941Y-37141586D01*
X62258941Y-37141586D02*
X62244461Y-37126036D01*
X62244461Y-37126036D02*
X62221575Y-37096877D01*
X62221575Y-37096877D02*
X62221585Y-37073205D01*
X62221585Y-37073205D02*
X62247402Y-37040131D01*
X62247402Y-37040131D02*
X62264854Y-37021720D01*
X62264854Y-37021720D02*
X62310430Y-36974149D01*
X62310430Y-36974149D02*
X62504159Y-36974149D01*
X62504159Y-36974149D02*
X62564975Y-37007094D01*
X62564975Y-37007094D02*
X62638131Y-37031644D01*
X62638131Y-37031644D02*
X62724885Y-37039803D01*
X62724885Y-37039803D02*
X62807328Y-37031470D01*
X62807328Y-37031470D02*
X62864498Y-37008784D01*
X62864498Y-37008784D02*
X62905190Y-36958167D01*
X62905190Y-36958167D02*
X62910472Y-36894358D01*
X62910472Y-36894358D02*
X62881086Y-36826194D01*
X62881086Y-36826194D02*
X62845803Y-36785643D01*
X62845803Y-36785643D02*
X62802124Y-36747712D01*
X62802124Y-36747712D02*
X62771308Y-36726126D01*
X62771308Y-36726126D02*
X62765765Y-36724234D01*
X62765765Y-36724234D02*
X62745294Y-36738285D01*
X62745294Y-36738285D02*
X62703305Y-36775687D01*
X62703305Y-36775687D02*
X62647662Y-36829317D01*
X62647662Y-36829317D02*
X62627813Y-36849192D01*
X62627813Y-36849192D02*
X62504159Y-36974149D01*
X62504159Y-36974149D02*
X62310430Y-36974149D01*
X62310430Y-36974149D02*
X62323888Y-36960102D01*
X62323888Y-36960102D02*
X62289514Y-36859219D01*
X62289514Y-36859219D02*
X62269914Y-36791874D01*
X62269914Y-36791874D02*
X62271115Y-36752014D01*
X62271115Y-36752014D02*
X62296452Y-36728560D01*
X62296452Y-36728560D02*
X62332885Y-36715195D01*
X62332885Y-36715195D02*
X62366731Y-36712333D01*
X62366731Y-36712333D02*
X62385222Y-36737304D01*
X62385222Y-36737304D02*
X62392722Y-36765490D01*
X62392722Y-36765490D02*
X62407365Y-36813646D01*
X62407365Y-36813646D02*
X62422818Y-36839482D01*
X62422818Y-36839482D02*
X62422830Y-36839490D01*
X62422830Y-36839490D02*
X62444681Y-36830732D01*
X62444681Y-36830732D02*
X62485849Y-36798094D01*
X62485849Y-36798094D02*
X62532327Y-36753711D01*
X62532327Y-36753711D02*
X62625792Y-36658023D01*
X62625792Y-36658023D02*
X62566991Y-36614848D01*
X62566991Y-36614848D02*
X62493401Y-36541545D01*
X62493401Y-36541545D02*
X62454993Y-36459742D01*
X62454993Y-36459742D02*
X62453298Y-36387603D01*
X62453298Y-36387603D02*
X62582812Y-36387603D01*
X62582812Y-36387603D02*
X62583884Y-36431710D01*
X62583884Y-36431710D02*
X62617857Y-36482783D01*
X62617857Y-36482783D02*
X62627695Y-36493387D01*
X62627695Y-36493387D02*
X62676368Y-36538518D01*
X62676368Y-36538518D02*
X62712282Y-36551939D01*
X62712282Y-36551939D02*
X62747818Y-36536005D01*
X62747818Y-36536005D02*
X62767000Y-36519870D01*
X62767000Y-36519870D02*
X62800338Y-36467660D01*
X62800338Y-36467660D02*
X62804401Y-36408811D01*
X62804401Y-36408811D02*
X62780276Y-36358759D01*
X62780276Y-36358759D02*
X62754352Y-36340094D01*
X62754352Y-36340094D02*
X62689076Y-36326251D01*
X62689076Y-36326251D02*
X62628788Y-36339239D01*
X62628788Y-36339239D02*
X62588309Y-36374955D01*
X62588309Y-36374955D02*
X62582812Y-36387603D01*
X62582812Y-36387603D02*
X62453298Y-36387603D01*
X62453298Y-36387603D02*
X62453041Y-36376685D01*
X62453041Y-36376685D02*
X62488821Y-36299619D01*
X62488821Y-36299619D02*
X62507747Y-36278106D01*
X62507747Y-36278106D02*
X62553907Y-36239360D01*
X62553907Y-36239360D02*
X62602576Y-36221055D01*
X62602576Y-36221055D02*
X62672876Y-36216245D01*
X62672876Y-36216245D02*
X62678131Y-36216234D01*
X62678131Y-36216234D02*
X62792307Y-36230022D01*
X62792307Y-36230022D02*
X62792307Y-36230022D01*
G36*
X62289514Y-36859219D02*
G01*
X62269914Y-36791874D01*
X62271115Y-36752014D01*
X62296452Y-36728560D01*
X62332885Y-36715195D01*
X62366731Y-36712333D01*
X62385222Y-36737304D01*
X62392722Y-36765490D01*
X62407365Y-36813646D01*
X62422818Y-36839482D01*
X62422830Y-36839490D01*
X62444681Y-36830732D01*
X62485849Y-36798094D01*
X62532327Y-36753711D01*
X62625792Y-36658023D01*
X62566991Y-36614848D01*
X62493401Y-36541545D01*
X62454993Y-36459742D01*
X62453298Y-36387603D01*
X62582812Y-36387603D01*
X62583884Y-36431710D01*
X62617857Y-36482783D01*
X62627695Y-36493387D01*
X62676368Y-36538518D01*
X62712282Y-36551939D01*
X62747818Y-36536005D01*
X62767000Y-36519870D01*
X62800338Y-36467660D01*
X62804401Y-36408811D01*
X62780276Y-36358759D01*
X62754352Y-36340094D01*
X62689076Y-36326251D01*
X62628788Y-36339239D01*
X62588309Y-36374955D01*
X62582812Y-36387603D01*
X62453298Y-36387603D01*
X62453041Y-36376685D01*
X62488821Y-36299619D01*
X62507747Y-36278106D01*
X62553907Y-36239360D01*
X62602576Y-36221055D01*
X62672876Y-36216245D01*
X62678131Y-36216234D01*
X62792307Y-36230022D01*
X62877158Y-36269432D01*
X62929928Y-36331536D01*
X62947863Y-36413405D01*
X62935633Y-36489986D01*
X62912580Y-36548679D01*
X62886401Y-36590940D01*
X62881177Y-36596085D01*
X62869731Y-36614129D01*
X62878843Y-36639493D01*
X62912845Y-36679514D01*
X62955357Y-36721704D01*
X63012446Y-36779951D01*
X63044073Y-36824018D01*
X63057402Y-36866699D01*
X63059708Y-36907988D01*
X63041191Y-37006261D01*
X62987792Y-37083583D01*
X62902737Y-37137441D01*
X62789251Y-37165319D01*
X62725245Y-37168734D01*
X62617665Y-37159543D01*
X62525428Y-37128324D01*
X62504032Y-37117523D01*
X62407716Y-37066312D01*
X62359606Y-37117523D01*
X62318532Y-37156809D01*
X62289819Y-37164472D01*
X62258941Y-37141586D01*
X62244461Y-37126036D01*
X62221575Y-37096877D01*
X62221585Y-37073205D01*
X62247402Y-37040131D01*
X62264854Y-37021720D01*
X62310430Y-36974149D01*
X62504159Y-36974149D01*
X62564975Y-37007094D01*
X62638131Y-37031644D01*
X62724885Y-37039803D01*
X62807328Y-37031470D01*
X62864498Y-37008784D01*
X62905190Y-36958167D01*
X62910472Y-36894358D01*
X62881086Y-36826194D01*
X62845803Y-36785643D01*
X62802124Y-36747712D01*
X62771308Y-36726126D01*
X62765765Y-36724234D01*
X62745294Y-36738285D01*
X62703305Y-36775687D01*
X62647662Y-36829317D01*
X62627813Y-36849192D01*
X62504159Y-36974149D01*
X62310430Y-36974149D01*
X62323888Y-36960102D01*
X62289514Y-36859219D01*
G37*
X62289514Y-36859219D02*
X62269914Y-36791874D01*
X62271115Y-36752014D01*
X62296452Y-36728560D01*
X62332885Y-36715195D01*
X62366731Y-36712333D01*
X62385222Y-36737304D01*
X62392722Y-36765490D01*
X62407365Y-36813646D01*
X62422818Y-36839482D01*
X62422830Y-36839490D01*
X62444681Y-36830732D01*
X62485849Y-36798094D01*
X62532327Y-36753711D01*
X62625792Y-36658023D01*
X62566991Y-36614848D01*
X62493401Y-36541545D01*
X62454993Y-36459742D01*
X62453298Y-36387603D01*
X62582812Y-36387603D01*
X62583884Y-36431710D01*
X62617857Y-36482783D01*
X62627695Y-36493387D01*
X62676368Y-36538518D01*
X62712282Y-36551939D01*
X62747818Y-36536005D01*
X62767000Y-36519870D01*
X62800338Y-36467660D01*
X62804401Y-36408811D01*
X62780276Y-36358759D01*
X62754352Y-36340094D01*
X62689076Y-36326251D01*
X62628788Y-36339239D01*
X62588309Y-36374955D01*
X62582812Y-36387603D01*
X62453298Y-36387603D01*
X62453041Y-36376685D01*
X62488821Y-36299619D01*
X62507747Y-36278106D01*
X62553907Y-36239360D01*
X62602576Y-36221055D01*
X62672876Y-36216245D01*
X62678131Y-36216234D01*
X62792307Y-36230022D01*
X62877158Y-36269432D01*
X62929928Y-36331536D01*
X62947863Y-36413405D01*
X62935633Y-36489986D01*
X62912580Y-36548679D01*
X62886401Y-36590940D01*
X62881177Y-36596085D01*
X62869731Y-36614129D01*
X62878843Y-36639493D01*
X62912845Y-36679514D01*
X62955357Y-36721704D01*
X63012446Y-36779951D01*
X63044073Y-36824018D01*
X63057402Y-36866699D01*
X63059708Y-36907988D01*
X63041191Y-37006261D01*
X62987792Y-37083583D01*
X62902737Y-37137441D01*
X62789251Y-37165319D01*
X62725245Y-37168734D01*
X62617665Y-37159543D01*
X62525428Y-37128324D01*
X62504032Y-37117523D01*
X62407716Y-37066312D01*
X62359606Y-37117523D01*
X62318532Y-37156809D01*
X62289819Y-37164472D01*
X62258941Y-37141586D01*
X62244461Y-37126036D01*
X62221575Y-37096877D01*
X62221585Y-37073205D01*
X62247402Y-37040131D01*
X62264854Y-37021720D01*
X62310430Y-36974149D01*
X62504159Y-36974149D01*
X62564975Y-37007094D01*
X62638131Y-37031644D01*
X62724885Y-37039803D01*
X62807328Y-37031470D01*
X62864498Y-37008784D01*
X62905190Y-36958167D01*
X62910472Y-36894358D01*
X62881086Y-36826194D01*
X62845803Y-36785643D01*
X62802124Y-36747712D01*
X62771308Y-36726126D01*
X62765765Y-36724234D01*
X62745294Y-36738285D01*
X62703305Y-36775687D01*
X62647662Y-36829317D01*
X62627813Y-36849192D01*
X62504159Y-36974149D01*
X62310430Y-36974149D01*
X62323888Y-36960102D01*
X62289514Y-36859219D01*
X64456708Y-37168734D02*
X64329708Y-37168734D01*
X64329708Y-37168734D02*
X64329708Y-36152734D01*
X64329708Y-36152734D02*
X64456708Y-36152734D01*
X64456708Y-36152734D02*
X64456708Y-37168734D01*
X64456708Y-37168734D02*
X64456708Y-37168734D01*
G36*
X64456708Y-37168734D02*
G01*
X64329708Y-37168734D01*
X64329708Y-36152734D01*
X64456708Y-36152734D01*
X64456708Y-37168734D01*
G37*
X64456708Y-37168734D02*
X64329708Y-37168734D01*
X64329708Y-36152734D01*
X64456708Y-36152734D01*
X64456708Y-37168734D01*
X65366875Y-37168734D02*
X65292792Y-37168734D01*
X65292792Y-37168734D02*
X65242155Y-37164308D01*
X65242155Y-37164308D02*
X65221566Y-37146189D01*
X65221566Y-37146189D02*
X65218708Y-37123120D01*
X65218708Y-37123120D02*
X65216545Y-37092209D01*
X65216545Y-37092209D02*
X65202911Y-37093120D01*
X65202911Y-37093120D02*
X65175582Y-37116535D01*
X65175582Y-37116535D02*
X65121658Y-37143846D01*
X65121658Y-37143846D02*
X65042369Y-37159913D01*
X65042369Y-37159913D02*
X64953440Y-37163677D01*
X64953440Y-37163677D02*
X64870596Y-37154078D01*
X64870596Y-37154078D02*
X64827125Y-37140018D01*
X64827125Y-37140018D02*
X64734209Y-37075288D01*
X64734209Y-37075288D02*
X64667974Y-36984492D01*
X64667974Y-36984492D02*
X64631122Y-36876449D01*
X64631122Y-36876449D02*
X64627133Y-36778980D01*
X64627133Y-36778980D02*
X64775788Y-36778980D01*
X64775788Y-36778980D02*
X64782734Y-36870996D01*
X64782734Y-36870996D02*
X64822605Y-36949921D01*
X64822605Y-36949921D02*
X64890986Y-37008152D01*
X64890986Y-37008152D02*
X64983466Y-37038085D01*
X64983466Y-37038085D02*
X65014450Y-37040392D01*
X65014450Y-37040392D02*
X65077035Y-37024293D01*
X65077035Y-37024293D02*
X65145472Y-36971033D01*
X65145472Y-36971033D02*
X65146742Y-36969768D01*
X65146742Y-36969768D02*
X65192987Y-36916438D01*
X65192987Y-36916438D02*
X65213915Y-36865838D01*
X65213915Y-36865838D02*
X65218708Y-36798806D01*
X65218708Y-36798806D02*
X65201607Y-36701208D01*
X65201607Y-36701208D02*
X65153171Y-36628750D01*
X65153171Y-36628750D02*
X65077701Y-36585963D01*
X65077701Y-36585963D02*
X65007278Y-36576068D01*
X65007278Y-36576068D02*
X64916172Y-36585682D01*
X64916172Y-36585682D02*
X64853056Y-36618234D01*
X64853056Y-36618234D02*
X64807320Y-36679286D01*
X64807320Y-36679286D02*
X64806177Y-36681477D01*
X64806177Y-36681477D02*
X64775788Y-36778980D01*
X64775788Y-36778980D02*
X64627133Y-36778980D01*
X64627133Y-36778980D02*
X64626355Y-36759980D01*
X64626355Y-36759980D02*
X64656376Y-36643905D01*
X64656376Y-36643905D02*
X64667717Y-36619691D01*
X64667717Y-36619691D02*
X64733195Y-36534900D01*
X64733195Y-36534900D02*
X64824446Y-36475114D01*
X64824446Y-36475114D02*
X64931029Y-36443415D01*
X64931029Y-36443415D02*
X65042503Y-36442882D01*
X65042503Y-36442882D02*
X65148426Y-36476599D01*
X65148426Y-36476599D02*
X65149917Y-36477380D01*
X65149917Y-36477380D02*
X65218708Y-36513655D01*
X65218708Y-36513655D02*
X65218708Y-36152734D01*
X65218708Y-36152734D02*
X65366875Y-36152734D01*
X65366875Y-36152734D02*
X65366875Y-37168734D01*
X65366875Y-37168734D02*
X65366875Y-37168734D01*
G36*
X64656376Y-36643905D02*
G01*
X64667717Y-36619691D01*
X64733195Y-36534900D01*
X64824446Y-36475114D01*
X64931029Y-36443415D01*
X65042503Y-36442882D01*
X65148426Y-36476599D01*
X65149917Y-36477380D01*
X65218708Y-36513655D01*
X65218708Y-36152734D01*
X65366875Y-36152734D01*
X65366875Y-37168734D01*
X65292792Y-37168734D01*
X65242155Y-37164308D01*
X65221566Y-37146189D01*
X65218708Y-37123120D01*
X65216545Y-37092209D01*
X65202911Y-37093120D01*
X65175582Y-37116535D01*
X65121658Y-37143846D01*
X65042369Y-37159913D01*
X64953440Y-37163677D01*
X64870596Y-37154078D01*
X64827125Y-37140018D01*
X64734209Y-37075288D01*
X64667974Y-36984492D01*
X64631122Y-36876449D01*
X64627133Y-36778980D01*
X64775788Y-36778980D01*
X64782734Y-36870996D01*
X64822605Y-36949921D01*
X64890986Y-37008152D01*
X64983466Y-37038085D01*
X65014450Y-37040392D01*
X65077035Y-37024293D01*
X65145472Y-36971033D01*
X65146742Y-36969768D01*
X65192987Y-36916438D01*
X65213915Y-36865838D01*
X65218708Y-36798806D01*
X65201607Y-36701208D01*
X65153171Y-36628750D01*
X65077701Y-36585963D01*
X65007278Y-36576068D01*
X64916172Y-36585682D01*
X64853056Y-36618234D01*
X64807320Y-36679286D01*
X64806177Y-36681477D01*
X64775788Y-36778980D01*
X64627133Y-36778980D01*
X64626355Y-36759980D01*
X64656376Y-36643905D01*
G37*
X64656376Y-36643905D02*
X64667717Y-36619691D01*
X64733195Y-36534900D01*
X64824446Y-36475114D01*
X64931029Y-36443415D01*
X65042503Y-36442882D01*
X65148426Y-36476599D01*
X65149917Y-36477380D01*
X65218708Y-36513655D01*
X65218708Y-36152734D01*
X65366875Y-36152734D01*
X65366875Y-37168734D01*
X65292792Y-37168734D01*
X65242155Y-37164308D01*
X65221566Y-37146189D01*
X65218708Y-37123120D01*
X65216545Y-37092209D01*
X65202911Y-37093120D01*
X65175582Y-37116535D01*
X65121658Y-37143846D01*
X65042369Y-37159913D01*
X64953440Y-37163677D01*
X64870596Y-37154078D01*
X64827125Y-37140018D01*
X64734209Y-37075288D01*
X64667974Y-36984492D01*
X64631122Y-36876449D01*
X64627133Y-36778980D01*
X64775788Y-36778980D01*
X64782734Y-36870996D01*
X64822605Y-36949921D01*
X64890986Y-37008152D01*
X64983466Y-37038085D01*
X65014450Y-37040392D01*
X65077035Y-37024293D01*
X65145472Y-36971033D01*
X65146742Y-36969768D01*
X65192987Y-36916438D01*
X65213915Y-36865838D01*
X65218708Y-36798806D01*
X65201607Y-36701208D01*
X65153171Y-36628750D01*
X65077701Y-36585963D01*
X65007278Y-36576068D01*
X64916172Y-36585682D01*
X64853056Y-36618234D01*
X64807320Y-36679286D01*
X64806177Y-36681477D01*
X64775788Y-36778980D01*
X64627133Y-36778980D01*
X64626355Y-36759980D01*
X64656376Y-36643905D01*
X66474487Y-36446210D02*
X66552706Y-36472536D01*
X66552706Y-36472536D02*
X66559542Y-36476742D01*
X66559542Y-36476742D02*
X66598343Y-36499328D01*
X66598343Y-36499328D02*
X66613619Y-36496973D01*
X66613619Y-36496973D02*
X66615708Y-36481305D01*
X66615708Y-36481305D02*
X66631118Y-36457609D01*
X66631118Y-36457609D02*
X66680916Y-36449166D01*
X66680916Y-36449166D02*
X66689792Y-36449068D01*
X66689792Y-36449068D02*
X66763875Y-36449068D01*
X66763875Y-36449068D02*
X66763875Y-37168734D01*
X66763875Y-37168734D02*
X66615708Y-37168734D01*
X66615708Y-37168734D02*
X66615708Y-36945093D01*
X66615708Y-36945093D02*
X66611573Y-36808490D01*
X66611573Y-36808490D02*
X66597449Y-36708618D01*
X66597449Y-36708618D02*
X66570753Y-36640531D01*
X66570753Y-36640531D02*
X66528907Y-36599279D01*
X66528907Y-36599279D02*
X66469329Y-36579915D01*
X66469329Y-36579915D02*
X66423606Y-36576741D01*
X66423606Y-36576741D02*
X66346274Y-36591864D01*
X66346274Y-36591864D02*
X66301898Y-36625057D01*
X66301898Y-36625057D02*
X66282002Y-36649854D01*
X66282002Y-36649854D02*
X66268807Y-36679599D01*
X66268807Y-36679599D02*
X66260963Y-36722991D01*
X66260963Y-36722991D02*
X66257118Y-36788731D01*
X66257118Y-36788731D02*
X66255920Y-36885521D01*
X66255920Y-36885521D02*
X66255875Y-36921390D01*
X66255875Y-36921390D02*
X66255875Y-37168734D01*
X66255875Y-37168734D02*
X66112277Y-37168734D01*
X66112277Y-37168734D02*
X66104486Y-36923300D01*
X66104486Y-36923300D02*
X66100694Y-36817716D01*
X66100694Y-36817716D02*
X66095959Y-36745718D01*
X66095959Y-36745718D02*
X66088305Y-36698570D01*
X66088305Y-36698570D02*
X66075758Y-36667539D01*
X66075758Y-36667539D02*
X66056346Y-36643888D01*
X66056346Y-36643888D02*
X66037521Y-36626967D01*
X66037521Y-36626967D02*
X65961300Y-36585551D01*
X65961300Y-36585551D02*
X65877723Y-36578648D01*
X65877723Y-36578648D02*
X65800455Y-36606831D01*
X65800455Y-36606831D02*
X65787261Y-36616485D01*
X65787261Y-36616485D02*
X65766034Y-36636389D01*
X65766034Y-36636389D02*
X65751501Y-36660974D01*
X65751501Y-36660974D02*
X65742080Y-36698459D01*
X65742080Y-36698459D02*
X65736189Y-36757063D01*
X65736189Y-36757063D02*
X65732247Y-36845002D01*
X65732247Y-36845002D02*
X65730227Y-36912818D01*
X65730227Y-36912818D02*
X65723163Y-37168734D01*
X65723163Y-37168734D02*
X65574290Y-37168734D01*
X65574290Y-37168734D02*
X65581708Y-36897890D01*
X65581708Y-36897890D02*
X65587173Y-36766425D01*
X65587173Y-36766425D02*
X65596993Y-36669417D01*
X65596993Y-36669417D02*
X65613736Y-36599025D01*
X65613736Y-36599025D02*
X65639966Y-36547410D01*
X65639966Y-36547410D02*
X65678253Y-36506734D01*
X65678253Y-36506734D02*
X65719669Y-36476549D01*
X65719669Y-36476549D02*
X65795184Y-36448052D01*
X65795184Y-36448052D02*
X65890213Y-36441089D01*
X65890213Y-36441089D02*
X65988195Y-36455045D01*
X65988195Y-36455045D02*
X66072566Y-36489306D01*
X66072566Y-36489306D02*
X66073163Y-36489673D01*
X66073163Y-36489673D02*
X66148432Y-36536192D01*
X66148432Y-36536192D02*
X66211284Y-36489723D01*
X66211284Y-36489723D02*
X66285961Y-36455467D01*
X66285961Y-36455467D02*
X66379634Y-36440741D01*
X66379634Y-36440741D02*
X66474487Y-36446210D01*
X66474487Y-36446210D02*
X66474487Y-36446210D01*
G36*
X66474487Y-36446210D02*
G01*
X66552706Y-36472536D01*
X66559542Y-36476742D01*
X66598343Y-36499328D01*
X66613619Y-36496973D01*
X66615708Y-36481305D01*
X66631118Y-36457609D01*
X66680916Y-36449166D01*
X66689792Y-36449068D01*
X66763875Y-36449068D01*
X66763875Y-37168734D01*
X66615708Y-37168734D01*
X66615708Y-36945093D01*
X66611573Y-36808490D01*
X66597449Y-36708618D01*
X66570753Y-36640531D01*
X66528907Y-36599279D01*
X66469329Y-36579915D01*
X66423606Y-36576741D01*
X66346274Y-36591864D01*
X66301898Y-36625057D01*
X66282002Y-36649854D01*
X66268807Y-36679599D01*
X66260963Y-36722991D01*
X66257118Y-36788731D01*
X66255920Y-36885521D01*
X66255875Y-36921390D01*
X66255875Y-37168734D01*
X66112277Y-37168734D01*
X66104486Y-36923300D01*
X66100694Y-36817716D01*
X66095959Y-36745718D01*
X66088305Y-36698570D01*
X66075758Y-36667539D01*
X66056346Y-36643888D01*
X66037521Y-36626967D01*
X65961300Y-36585551D01*
X65877723Y-36578648D01*
X65800455Y-36606831D01*
X65787261Y-36616485D01*
X65766034Y-36636389D01*
X65751501Y-36660974D01*
X65742080Y-36698459D01*
X65736189Y-36757063D01*
X65732247Y-36845002D01*
X65730227Y-36912818D01*
X65723163Y-37168734D01*
X65574290Y-37168734D01*
X65581708Y-36897890D01*
X65587173Y-36766425D01*
X65596993Y-36669417D01*
X65613736Y-36599025D01*
X65639966Y-36547410D01*
X65678253Y-36506734D01*
X65719669Y-36476549D01*
X65795184Y-36448052D01*
X65890213Y-36441089D01*
X65988195Y-36455045D01*
X66072566Y-36489306D01*
X66073163Y-36489673D01*
X66148432Y-36536192D01*
X66211284Y-36489723D01*
X66285961Y-36455467D01*
X66379634Y-36440741D01*
X66474487Y-36446210D01*
G37*
X66474487Y-36446210D02*
X66552706Y-36472536D01*
X66559542Y-36476742D01*
X66598343Y-36499328D01*
X66613619Y-36496973D01*
X66615708Y-36481305D01*
X66631118Y-36457609D01*
X66680916Y-36449166D01*
X66689792Y-36449068D01*
X66763875Y-36449068D01*
X66763875Y-37168734D01*
X66615708Y-37168734D01*
X66615708Y-36945093D01*
X66611573Y-36808490D01*
X66597449Y-36708618D01*
X66570753Y-36640531D01*
X66528907Y-36599279D01*
X66469329Y-36579915D01*
X66423606Y-36576741D01*
X66346274Y-36591864D01*
X66301898Y-36625057D01*
X66282002Y-36649854D01*
X66268807Y-36679599D01*
X66260963Y-36722991D01*
X66257118Y-36788731D01*
X66255920Y-36885521D01*
X66255875Y-36921390D01*
X66255875Y-37168734D01*
X66112277Y-37168734D01*
X66104486Y-36923300D01*
X66100694Y-36817716D01*
X66095959Y-36745718D01*
X66088305Y-36698570D01*
X66075758Y-36667539D01*
X66056346Y-36643888D01*
X66037521Y-36626967D01*
X65961300Y-36585551D01*
X65877723Y-36578648D01*
X65800455Y-36606831D01*
X65787261Y-36616485D01*
X65766034Y-36636389D01*
X65751501Y-36660974D01*
X65742080Y-36698459D01*
X65736189Y-36757063D01*
X65732247Y-36845002D01*
X65730227Y-36912818D01*
X65723163Y-37168734D01*
X65574290Y-37168734D01*
X65581708Y-36897890D01*
X65587173Y-36766425D01*
X65596993Y-36669417D01*
X65613736Y-36599025D01*
X65639966Y-36547410D01*
X65678253Y-36506734D01*
X65719669Y-36476549D01*
X65795184Y-36448052D01*
X65890213Y-36441089D01*
X65988195Y-36455045D01*
X66072566Y-36489306D01*
X66073163Y-36489673D01*
X66148432Y-36536192D01*
X66211284Y-36489723D01*
X66285961Y-36455467D01*
X66379634Y-36440741D01*
X66474487Y-36446210D01*
X67366865Y-36449050D02*
X67464115Y-36485594D01*
X67464115Y-36485594D02*
X67549121Y-36552195D01*
X67549121Y-36552195D02*
X67584011Y-36596217D01*
X67584011Y-36596217D02*
X67614076Y-36654071D01*
X67614076Y-36654071D02*
X67628596Y-36722682D01*
X67628596Y-36722682D02*
X67631708Y-36798318D01*
X67631708Y-36798318D02*
X67617825Y-36920274D01*
X67617825Y-36920274D02*
X67573204Y-37018163D01*
X67573204Y-37018163D02*
X67493391Y-37101103D01*
X67493391Y-37101103D02*
X67478022Y-37112883D01*
X67478022Y-37112883D02*
X67412752Y-37142503D01*
X67412752Y-37142503D02*
X67323032Y-37160119D01*
X67323032Y-37160119D02*
X67225341Y-37164552D01*
X67225341Y-37164552D02*
X67136154Y-37154619D01*
X67136154Y-37154619D02*
X67091950Y-37140546D01*
X67091950Y-37140546D02*
X67037645Y-37109221D01*
X67037645Y-37109221D02*
X66999070Y-37076330D01*
X66999070Y-37076330D02*
X66981432Y-37044955D01*
X66981432Y-37044955D02*
X66994124Y-37014757D01*
X66994124Y-37014757D02*
X67006604Y-37000160D01*
X67006604Y-37000160D02*
X67032030Y-36975379D01*
X67032030Y-36975379D02*
X67055746Y-36970762D01*
X67055746Y-36970762D02*
X67093509Y-36986362D01*
X67093509Y-36986362D02*
X67120337Y-37000557D01*
X67120337Y-37000557D02*
X67206794Y-37035026D01*
X67206794Y-37035026D02*
X67287206Y-37036488D01*
X67287206Y-37036488D02*
X67366101Y-37011776D01*
X67366101Y-37011776D02*
X67432627Y-36969430D01*
X67432627Y-36969430D02*
X67474434Y-36913458D01*
X67474434Y-36913458D02*
X67483542Y-36873792D01*
X67483542Y-36873792D02*
X67462604Y-36863261D01*
X67462604Y-36863261D02*
X67400473Y-36855968D01*
X67400473Y-36855968D02*
X67298169Y-36851996D01*
X67298169Y-36851996D02*
X67208375Y-36851234D01*
X67208375Y-36851234D02*
X66933208Y-36851234D01*
X66933208Y-36851234D02*
X66933208Y-36759114D01*
X66933208Y-36759114D02*
X66935558Y-36745401D01*
X66935558Y-36745401D02*
X67059121Y-36745401D01*
X67059121Y-36745401D02*
X67271331Y-36745401D01*
X67271331Y-36745401D02*
X67374501Y-36743888D01*
X67374501Y-36743888D02*
X67440701Y-36738903D01*
X67440701Y-36738903D02*
X67475202Y-36729772D01*
X67475202Y-36729772D02*
X67483542Y-36718361D01*
X67483542Y-36718361D02*
X67464920Y-36664999D01*
X67464920Y-36664999D02*
X67416910Y-36614070D01*
X67416910Y-36614070D02*
X67351293Y-36577866D01*
X67351293Y-36577866D02*
X67347708Y-36576645D01*
X67347708Y-36576645D02*
X67259419Y-36567982D01*
X67259419Y-36567982D02*
X67175666Y-36595375D01*
X67175666Y-36595375D02*
X67109463Y-36653535D01*
X67109463Y-36653535D02*
X67092820Y-36680233D01*
X67092820Y-36680233D02*
X67059121Y-36745401D01*
X67059121Y-36745401D02*
X66935558Y-36745401D01*
X66935558Y-36745401D02*
X66951310Y-36653517D01*
X66951310Y-36653517D02*
X67000771Y-36567062D01*
X67000771Y-36567062D02*
X67074325Y-36501569D01*
X67074325Y-36501569D02*
X67164703Y-36458856D01*
X67164703Y-36458856D02*
X67264639Y-36440744D01*
X67264639Y-36440744D02*
X67366865Y-36449050D01*
X67366865Y-36449050D02*
X67366865Y-36449050D01*
G36*
X67000771Y-36567062D02*
G01*
X67074325Y-36501569D01*
X67164703Y-36458856D01*
X67264639Y-36440744D01*
X67366865Y-36449050D01*
X67464115Y-36485594D01*
X67549121Y-36552195D01*
X67584011Y-36596217D01*
X67614076Y-36654071D01*
X67628596Y-36722682D01*
X67631708Y-36798318D01*
X67617825Y-36920274D01*
X67573204Y-37018163D01*
X67493391Y-37101103D01*
X67478022Y-37112883D01*
X67412752Y-37142503D01*
X67323032Y-37160119D01*
X67225341Y-37164552D01*
X67136154Y-37154619D01*
X67091950Y-37140546D01*
X67037645Y-37109221D01*
X66999070Y-37076330D01*
X66981432Y-37044955D01*
X66994124Y-37014757D01*
X67006604Y-37000160D01*
X67032030Y-36975379D01*
X67055746Y-36970762D01*
X67093509Y-36986362D01*
X67120337Y-37000557D01*
X67206794Y-37035026D01*
X67287206Y-37036488D01*
X67366101Y-37011776D01*
X67432627Y-36969430D01*
X67474434Y-36913458D01*
X67483542Y-36873792D01*
X67462604Y-36863261D01*
X67400473Y-36855968D01*
X67298169Y-36851996D01*
X67208375Y-36851234D01*
X66933208Y-36851234D01*
X66933208Y-36759114D01*
X66935558Y-36745401D01*
X67059121Y-36745401D01*
X67271331Y-36745401D01*
X67374501Y-36743888D01*
X67440701Y-36738903D01*
X67475202Y-36729772D01*
X67483542Y-36718361D01*
X67464920Y-36664999D01*
X67416910Y-36614070D01*
X67351293Y-36577866D01*
X67347708Y-36576645D01*
X67259419Y-36567982D01*
X67175666Y-36595375D01*
X67109463Y-36653535D01*
X67092820Y-36680233D01*
X67059121Y-36745401D01*
X66935558Y-36745401D01*
X66951310Y-36653517D01*
X67000771Y-36567062D01*
G37*
X67000771Y-36567062D02*
X67074325Y-36501569D01*
X67164703Y-36458856D01*
X67264639Y-36440744D01*
X67366865Y-36449050D01*
X67464115Y-36485594D01*
X67549121Y-36552195D01*
X67584011Y-36596217D01*
X67614076Y-36654071D01*
X67628596Y-36722682D01*
X67631708Y-36798318D01*
X67617825Y-36920274D01*
X67573204Y-37018163D01*
X67493391Y-37101103D01*
X67478022Y-37112883D01*
X67412752Y-37142503D01*
X67323032Y-37160119D01*
X67225341Y-37164552D01*
X67136154Y-37154619D01*
X67091950Y-37140546D01*
X67037645Y-37109221D01*
X66999070Y-37076330D01*
X66981432Y-37044955D01*
X66994124Y-37014757D01*
X67006604Y-37000160D01*
X67032030Y-36975379D01*
X67055746Y-36970762D01*
X67093509Y-36986362D01*
X67120337Y-37000557D01*
X67206794Y-37035026D01*
X67287206Y-37036488D01*
X67366101Y-37011776D01*
X67432627Y-36969430D01*
X67474434Y-36913458D01*
X67483542Y-36873792D01*
X67462604Y-36863261D01*
X67400473Y-36855968D01*
X67298169Y-36851996D01*
X67208375Y-36851234D01*
X66933208Y-36851234D01*
X66933208Y-36759114D01*
X66935558Y-36745401D01*
X67059121Y-36745401D01*
X67271331Y-36745401D01*
X67374501Y-36743888D01*
X67440701Y-36738903D01*
X67475202Y-36729772D01*
X67483542Y-36718361D01*
X67464920Y-36664999D01*
X67416910Y-36614070D01*
X67351293Y-36577866D01*
X67347708Y-36576645D01*
X67259419Y-36567982D01*
X67175666Y-36595375D01*
X67109463Y-36653535D01*
X67092820Y-36680233D01*
X67059121Y-36745401D01*
X66935558Y-36745401D01*
X66951310Y-36653517D01*
X67000771Y-36567062D01*
X68147209Y-36463537D02*
X68229437Y-36504186D01*
X68229437Y-36504186D02*
X68282471Y-36562668D01*
X68282471Y-36562668D02*
X68286071Y-36569978D01*
X68286071Y-36569978D02*
X68308483Y-36659082D01*
X68308483Y-36659082D02*
X68291477Y-36736305D01*
X68291477Y-36736305D02*
X68237097Y-36798325D01*
X68237097Y-36798325D02*
X68147385Y-36841819D01*
X68147385Y-36841819D02*
X68113403Y-36850868D01*
X68113403Y-36850868D02*
X68006426Y-36876083D01*
X68006426Y-36876083D02*
X67934735Y-36896516D01*
X67934735Y-36896516D02*
X67891992Y-36915098D01*
X67891992Y-36915098D02*
X67871858Y-36934756D01*
X67871858Y-36934756D02*
X67867994Y-36958419D01*
X67867994Y-36958419D02*
X67868628Y-36963972D01*
X67868628Y-36963972D02*
X67894382Y-37010099D01*
X67894382Y-37010099D02*
X67953407Y-37033530D01*
X67953407Y-37033530D02*
X68043126Y-37034085D01*
X68043126Y-37034085D02*
X68160961Y-37011584D01*
X68160961Y-37011584D02*
X68236209Y-36989516D01*
X68236209Y-36989516D02*
X68274009Y-36988793D01*
X68274009Y-36988793D02*
X68301017Y-37022198D01*
X68301017Y-37022198D02*
X68303814Y-37028132D01*
X68303814Y-37028132D02*
X68317198Y-37073244D01*
X68317198Y-37073244D02*
X68303366Y-37099920D01*
X68303366Y-37099920D02*
X68302564Y-37100556D01*
X68302564Y-37100556D02*
X68230517Y-37136574D01*
X68230517Y-37136574D02*
X68133102Y-37159104D01*
X68133102Y-37159104D02*
X68025480Y-37166875D01*
X68025480Y-37166875D02*
X67922814Y-37158619D01*
X67922814Y-37158619D02*
X67851382Y-37138319D01*
X67851382Y-37138319D02*
X67772454Y-37084125D01*
X67772454Y-37084125D02*
X67726458Y-37007741D01*
X67726458Y-37007741D02*
X67716375Y-36943656D01*
X67716375Y-36943656D02*
X67736321Y-36870543D01*
X67736321Y-36870543D02*
X67795567Y-36811408D01*
X67795567Y-36811408D02*
X67893230Y-36766918D01*
X67893230Y-36766918D02*
X67978665Y-36745833D01*
X67978665Y-36745833D02*
X68078584Y-36720912D01*
X68078584Y-36720912D02*
X68137791Y-36691008D01*
X68137791Y-36691008D02*
X68157728Y-36655061D01*
X68157728Y-36655061D02*
X68146800Y-36621918D01*
X68146800Y-36621918D02*
X68099450Y-36585017D01*
X68099450Y-36585017D02*
X68022118Y-36571454D01*
X68022118Y-36571454D02*
X67920336Y-36581527D01*
X67920336Y-36581527D02*
X67831036Y-36604854D01*
X67831036Y-36604854D02*
X67793424Y-36605905D01*
X67793424Y-36605905D02*
X67766481Y-36573653D01*
X67766481Y-36573653D02*
X67762244Y-36564792D01*
X67762244Y-36564792D02*
X67743660Y-36521781D01*
X67743660Y-36521781D02*
X67744860Y-36498793D01*
X67744860Y-36498793D02*
X67773028Y-36483167D01*
X67773028Y-36483167D02*
X67816917Y-36468414D01*
X67816917Y-36468414D02*
X67931794Y-36443669D01*
X67931794Y-36443669D02*
X68044943Y-36442704D01*
X68044943Y-36442704D02*
X68147209Y-36463537D01*
X68147209Y-36463537D02*
X68147209Y-36463537D01*
G36*
X68147209Y-36463537D02*
G01*
X68229437Y-36504186D01*
X68282471Y-36562668D01*
X68286071Y-36569978D01*
X68308483Y-36659082D01*
X68291477Y-36736305D01*
X68237097Y-36798325D01*
X68147385Y-36841819D01*
X68113403Y-36850868D01*
X68006426Y-36876083D01*
X67934735Y-36896516D01*
X67891992Y-36915098D01*
X67871858Y-36934756D01*
X67867994Y-36958419D01*
X67868628Y-36963972D01*
X67894382Y-37010099D01*
X67953407Y-37033530D01*
X68043126Y-37034085D01*
X68160961Y-37011584D01*
X68236209Y-36989516D01*
X68274009Y-36988793D01*
X68301017Y-37022198D01*
X68303814Y-37028132D01*
X68317198Y-37073244D01*
X68303366Y-37099920D01*
X68302564Y-37100556D01*
X68230517Y-37136574D01*
X68133102Y-37159104D01*
X68025480Y-37166875D01*
X67922814Y-37158619D01*
X67851382Y-37138319D01*
X67772454Y-37084125D01*
X67726458Y-37007741D01*
X67716375Y-36943656D01*
X67736321Y-36870543D01*
X67795567Y-36811408D01*
X67893230Y-36766918D01*
X67978665Y-36745833D01*
X68078584Y-36720912D01*
X68137791Y-36691008D01*
X68157728Y-36655061D01*
X68146800Y-36621918D01*
X68099450Y-36585017D01*
X68022118Y-36571454D01*
X67920336Y-36581527D01*
X67831036Y-36604854D01*
X67793424Y-36605905D01*
X67766481Y-36573653D01*
X67762244Y-36564792D01*
X67743660Y-36521781D01*
X67744860Y-36498793D01*
X67773028Y-36483167D01*
X67816917Y-36468414D01*
X67931794Y-36443669D01*
X68044943Y-36442704D01*
X68147209Y-36463537D01*
G37*
X68147209Y-36463537D02*
X68229437Y-36504186D01*
X68282471Y-36562668D01*
X68286071Y-36569978D01*
X68308483Y-36659082D01*
X68291477Y-36736305D01*
X68237097Y-36798325D01*
X68147385Y-36841819D01*
X68113403Y-36850868D01*
X68006426Y-36876083D01*
X67934735Y-36896516D01*
X67891992Y-36915098D01*
X67871858Y-36934756D01*
X67867994Y-36958419D01*
X67868628Y-36963972D01*
X67894382Y-37010099D01*
X67953407Y-37033530D01*
X68043126Y-37034085D01*
X68160961Y-37011584D01*
X68236209Y-36989516D01*
X68274009Y-36988793D01*
X68301017Y-37022198D01*
X68303814Y-37028132D01*
X68317198Y-37073244D01*
X68303366Y-37099920D01*
X68302564Y-37100556D01*
X68230517Y-37136574D01*
X68133102Y-37159104D01*
X68025480Y-37166875D01*
X67922814Y-37158619D01*
X67851382Y-37138319D01*
X67772454Y-37084125D01*
X67726458Y-37007741D01*
X67716375Y-36943656D01*
X67736321Y-36870543D01*
X67795567Y-36811408D01*
X67893230Y-36766918D01*
X67978665Y-36745833D01*
X68078584Y-36720912D01*
X68137791Y-36691008D01*
X68157728Y-36655061D01*
X68146800Y-36621918D01*
X68099450Y-36585017D01*
X68022118Y-36571454D01*
X67920336Y-36581527D01*
X67831036Y-36604854D01*
X67793424Y-36605905D01*
X67766481Y-36573653D01*
X67762244Y-36564792D01*
X67743660Y-36521781D01*
X67744860Y-36498793D01*
X67773028Y-36483167D01*
X67816917Y-36468414D01*
X67931794Y-36443669D01*
X68044943Y-36442704D01*
X68147209Y-36463537D01*
X68776795Y-36453394D02*
X68853456Y-36477618D01*
X68853456Y-36477618D02*
X68922239Y-36527747D01*
X68922239Y-36527747D02*
X68957244Y-36594209D01*
X68957244Y-36594209D02*
X68965208Y-36668044D01*
X68965208Y-36668044D02*
X68945729Y-36745395D01*
X68945729Y-36745395D02*
X68887436Y-36806185D01*
X68887436Y-36806185D02*
X68790548Y-36850242D01*
X68790548Y-36850242D02*
X68708332Y-36869588D01*
X68708332Y-36869588D02*
X68633545Y-36886691D01*
X68633545Y-36886691D02*
X68573106Y-36907549D01*
X68573106Y-36907549D02*
X68544360Y-36924345D01*
X68544360Y-36924345D02*
X68525128Y-36951450D01*
X68525128Y-36951450D02*
X68534938Y-36978714D01*
X68534938Y-36978714D02*
X68551862Y-36998742D01*
X68551862Y-36998742D02*
X68609218Y-37032395D01*
X68609218Y-37032395D02*
X68691649Y-37040878D01*
X68691649Y-37040878D02*
X68790011Y-37023945D01*
X68790011Y-37023945D02*
X68840793Y-37006480D01*
X68840793Y-37006480D02*
X68896133Y-36985976D01*
X68896133Y-36985976D02*
X68926890Y-36982726D01*
X68926890Y-36982726D02*
X68947356Y-36997227D01*
X68947356Y-36997227D02*
X68957638Y-37010526D01*
X68957638Y-37010526D02*
X68980653Y-37051795D01*
X68980653Y-37051795D02*
X68986375Y-37074132D01*
X68986375Y-37074132D02*
X68966929Y-37105047D01*
X68966929Y-37105047D02*
X68915069Y-37130645D01*
X68915069Y-37130645D02*
X68840510Y-37149752D01*
X68840510Y-37149752D02*
X68752968Y-37161192D01*
X68752968Y-37161192D02*
X68662160Y-37163790D01*
X68662160Y-37163790D02*
X68577801Y-37156371D01*
X68577801Y-37156371D02*
X68509607Y-37137760D01*
X68509607Y-37137760D02*
X68499566Y-37133011D01*
X68499566Y-37133011D02*
X68426789Y-37076131D01*
X68426789Y-37076131D02*
X68385921Y-37001942D01*
X68385921Y-37001942D02*
X68382039Y-36919870D01*
X68382039Y-36919870D02*
X68382808Y-36916175D01*
X68382808Y-36916175D02*
X68416200Y-36843044D01*
X68416200Y-36843044D02*
X68481453Y-36792207D01*
X68481453Y-36792207D02*
X68566818Y-36763702D01*
X68566818Y-36763702D02*
X68673861Y-36739087D01*
X68673861Y-36739087D02*
X68745838Y-36719495D01*
X68745838Y-36719495D02*
X68789313Y-36702271D01*
X68789313Y-36702271D02*
X68810850Y-36684760D01*
X68810850Y-36684760D02*
X68817016Y-36664307D01*
X68817016Y-36664307D02*
X68817042Y-36662510D01*
X68817042Y-36662510D02*
X68798997Y-36611989D01*
X68798997Y-36611989D02*
X68749708Y-36580300D01*
X68749708Y-36580300D02*
X68676441Y-36568696D01*
X68676441Y-36568696D02*
X68586462Y-36578429D01*
X68586462Y-36578429D02*
X68495681Y-36607094D01*
X68495681Y-36607094D02*
X68463524Y-36605992D01*
X68463524Y-36605992D02*
X68433318Y-36569578D01*
X68433318Y-36569578D02*
X68427150Y-36558172D01*
X68427150Y-36558172D02*
X68394230Y-36494512D01*
X68394230Y-36494512D02*
X68473344Y-36468328D01*
X68473344Y-36468328D02*
X68569270Y-36448096D01*
X68569270Y-36448096D02*
X68676093Y-36443256D01*
X68676093Y-36443256D02*
X68776795Y-36453394D01*
X68776795Y-36453394D02*
X68776795Y-36453394D01*
G36*
X68776795Y-36453394D02*
G01*
X68853456Y-36477618D01*
X68922239Y-36527747D01*
X68957244Y-36594209D01*
X68965208Y-36668044D01*
X68945729Y-36745395D01*
X68887436Y-36806185D01*
X68790548Y-36850242D01*
X68708332Y-36869588D01*
X68633545Y-36886691D01*
X68573106Y-36907549D01*
X68544360Y-36924345D01*
X68525128Y-36951450D01*
X68534938Y-36978714D01*
X68551862Y-36998742D01*
X68609218Y-37032395D01*
X68691649Y-37040878D01*
X68790011Y-37023945D01*
X68840793Y-37006480D01*
X68896133Y-36985976D01*
X68926890Y-36982726D01*
X68947356Y-36997227D01*
X68957638Y-37010526D01*
X68980653Y-37051795D01*
X68986375Y-37074132D01*
X68966929Y-37105047D01*
X68915069Y-37130645D01*
X68840510Y-37149752D01*
X68752968Y-37161192D01*
X68662160Y-37163790D01*
X68577801Y-37156371D01*
X68509607Y-37137760D01*
X68499566Y-37133011D01*
X68426789Y-37076131D01*
X68385921Y-37001942D01*
X68382039Y-36919870D01*
X68382808Y-36916175D01*
X68416200Y-36843044D01*
X68481453Y-36792207D01*
X68566818Y-36763702D01*
X68673861Y-36739087D01*
X68745838Y-36719495D01*
X68789313Y-36702271D01*
X68810850Y-36684760D01*
X68817016Y-36664307D01*
X68817042Y-36662510D01*
X68798997Y-36611989D01*
X68749708Y-36580300D01*
X68676441Y-36568696D01*
X68586462Y-36578429D01*
X68495681Y-36607094D01*
X68463524Y-36605992D01*
X68433318Y-36569578D01*
X68427150Y-36558172D01*
X68394230Y-36494512D01*
X68473344Y-36468328D01*
X68569270Y-36448096D01*
X68676093Y-36443256D01*
X68776795Y-36453394D01*
G37*
X68776795Y-36453394D02*
X68853456Y-36477618D01*
X68922239Y-36527747D01*
X68957244Y-36594209D01*
X68965208Y-36668044D01*
X68945729Y-36745395D01*
X68887436Y-36806185D01*
X68790548Y-36850242D01*
X68708332Y-36869588D01*
X68633545Y-36886691D01*
X68573106Y-36907549D01*
X68544360Y-36924345D01*
X68525128Y-36951450D01*
X68534938Y-36978714D01*
X68551862Y-36998742D01*
X68609218Y-37032395D01*
X68691649Y-37040878D01*
X68790011Y-37023945D01*
X68840793Y-37006480D01*
X68896133Y-36985976D01*
X68926890Y-36982726D01*
X68947356Y-36997227D01*
X68957638Y-37010526D01*
X68980653Y-37051795D01*
X68986375Y-37074132D01*
X68966929Y-37105047D01*
X68915069Y-37130645D01*
X68840510Y-37149752D01*
X68752968Y-37161192D01*
X68662160Y-37163790D01*
X68577801Y-37156371D01*
X68509607Y-37137760D01*
X68499566Y-37133011D01*
X68426789Y-37076131D01*
X68385921Y-37001942D01*
X68382039Y-36919870D01*
X68382808Y-36916175D01*
X68416200Y-36843044D01*
X68481453Y-36792207D01*
X68566818Y-36763702D01*
X68673861Y-36739087D01*
X68745838Y-36719495D01*
X68789313Y-36702271D01*
X68810850Y-36684760D01*
X68817016Y-36664307D01*
X68817042Y-36662510D01*
X68798997Y-36611989D01*
X68749708Y-36580300D01*
X68676441Y-36568696D01*
X68586462Y-36578429D01*
X68495681Y-36607094D01*
X68463524Y-36605992D01*
X68433318Y-36569578D01*
X68427150Y-36558172D01*
X68394230Y-36494512D01*
X68473344Y-36468328D01*
X68569270Y-36448096D01*
X68676093Y-36443256D01*
X68776795Y-36453394D01*
X69568458Y-36217260D02*
X69774912Y-36677122D01*
X69774912Y-36677122D02*
X69832840Y-36806800D01*
X69832840Y-36806800D02*
X69884484Y-36923650D01*
X69884484Y-36923650D02*
X69927443Y-37022137D01*
X69927443Y-37022137D02*
X69959316Y-37096730D01*
X69959316Y-37096730D02*
X69977704Y-37141895D01*
X69977704Y-37141895D02*
X69981287Y-37152859D01*
X69981287Y-37152859D02*
X69962636Y-37163446D01*
X69962636Y-37163446D02*
X69917004Y-37168629D01*
X69917004Y-37168629D02*
X69908676Y-37168734D01*
X69908676Y-37168734D02*
X69866771Y-37165564D01*
X69866771Y-37165564D02*
X69837858Y-37149918D01*
X69837858Y-37149918D02*
X69811992Y-37112592D01*
X69811992Y-37112592D02*
X69782848Y-37052318D01*
X69782848Y-37052318D02*
X69729550Y-36935901D01*
X69729550Y-36935901D02*
X69248165Y-36935901D01*
X69248165Y-36935901D02*
X69199913Y-37052318D01*
X69199913Y-37052318D02*
X69171006Y-37117511D01*
X69171006Y-37117511D02*
X69147018Y-37152377D01*
X69147018Y-37152377D02*
X69118238Y-37166316D01*
X69118238Y-37166316D02*
X69079601Y-37168734D01*
X69079601Y-37168734D02*
X69031455Y-37162581D01*
X69031455Y-37162581D02*
X69007988Y-37147501D01*
X69007988Y-37147501D02*
X69007542Y-37144843D01*
X69007542Y-37144843D02*
X69015956Y-37119513D01*
X69015956Y-37119513D02*
X69039566Y-37061396D01*
X69039566Y-37061396D02*
X69075921Y-36976185D01*
X69075921Y-36976185D02*
X69122570Y-36869571D01*
X69122570Y-36869571D02*
X69149597Y-36808901D01*
X69149597Y-36808901D02*
X69307867Y-36808901D01*
X69307867Y-36808901D02*
X69487214Y-36808901D01*
X69487214Y-36808901D02*
X69573980Y-36808433D01*
X69573980Y-36808433D02*
X69626086Y-36805546D01*
X69626086Y-36805546D02*
X69651204Y-36798016D01*
X69651204Y-36798016D02*
X69657004Y-36783620D01*
X69657004Y-36783620D02*
X69651522Y-36761276D01*
X69651522Y-36761276D02*
X69633907Y-36713800D01*
X69633907Y-36713800D02*
X69606603Y-36649081D01*
X69606603Y-36649081D02*
X69574223Y-36576975D01*
X69574223Y-36576975D02*
X69541382Y-36507337D01*
X69541382Y-36507337D02*
X69512692Y-36450023D01*
X69512692Y-36450023D02*
X69492769Y-36414891D01*
X69492769Y-36414891D02*
X69486508Y-36408775D01*
X69486508Y-36408775D02*
X69475462Y-36430590D01*
X69475462Y-36430590D02*
X69451526Y-36482575D01*
X69451526Y-36482575D02*
X69418647Y-36556057D01*
X69418647Y-36556057D02*
X69393531Y-36613109D01*
X69393531Y-36613109D02*
X69307867Y-36808901D01*
X69307867Y-36808901D02*
X69149597Y-36808901D01*
X69149597Y-36808901D02*
X69177062Y-36747249D01*
X69177062Y-36747249D02*
X69212545Y-36668593D01*
X69212545Y-36668593D02*
X69417548Y-36216234D01*
X69417548Y-36216234D02*
X69568458Y-36217260D01*
X69568458Y-36217260D02*
X69568458Y-36217260D01*
G36*
X69212545Y-36668593D02*
G01*
X69417548Y-36216234D01*
X69568458Y-36217260D01*
X69774912Y-36677122D01*
X69832840Y-36806800D01*
X69884484Y-36923650D01*
X69927443Y-37022137D01*
X69959316Y-37096730D01*
X69977704Y-37141895D01*
X69981287Y-37152859D01*
X69962636Y-37163446D01*
X69917004Y-37168629D01*
X69908676Y-37168734D01*
X69866771Y-37165564D01*
X69837858Y-37149918D01*
X69811992Y-37112592D01*
X69782848Y-37052318D01*
X69729550Y-36935901D01*
X69248165Y-36935901D01*
X69199913Y-37052318D01*
X69171006Y-37117511D01*
X69147018Y-37152377D01*
X69118238Y-37166316D01*
X69079601Y-37168734D01*
X69031455Y-37162581D01*
X69007988Y-37147501D01*
X69007542Y-37144843D01*
X69015956Y-37119513D01*
X69039566Y-37061396D01*
X69075921Y-36976185D01*
X69122570Y-36869571D01*
X69149597Y-36808901D01*
X69307867Y-36808901D01*
X69487214Y-36808901D01*
X69573980Y-36808433D01*
X69626086Y-36805546D01*
X69651204Y-36798016D01*
X69657004Y-36783620D01*
X69651522Y-36761276D01*
X69633907Y-36713800D01*
X69606603Y-36649081D01*
X69574223Y-36576975D01*
X69541382Y-36507337D01*
X69512692Y-36450023D01*
X69492769Y-36414891D01*
X69486508Y-36408775D01*
X69475462Y-36430590D01*
X69451526Y-36482575D01*
X69418647Y-36556057D01*
X69393531Y-36613109D01*
X69307867Y-36808901D01*
X69149597Y-36808901D01*
X69177062Y-36747249D01*
X69212545Y-36668593D01*
G37*
X69212545Y-36668593D02*
X69417548Y-36216234D01*
X69568458Y-36217260D01*
X69774912Y-36677122D01*
X69832840Y-36806800D01*
X69884484Y-36923650D01*
X69927443Y-37022137D01*
X69959316Y-37096730D01*
X69977704Y-37141895D01*
X69981287Y-37152859D01*
X69962636Y-37163446D01*
X69917004Y-37168629D01*
X69908676Y-37168734D01*
X69866771Y-37165564D01*
X69837858Y-37149918D01*
X69811992Y-37112592D01*
X69782848Y-37052318D01*
X69729550Y-36935901D01*
X69248165Y-36935901D01*
X69199913Y-37052318D01*
X69171006Y-37117511D01*
X69147018Y-37152377D01*
X69118238Y-37166316D01*
X69079601Y-37168734D01*
X69031455Y-37162581D01*
X69007988Y-37147501D01*
X69007542Y-37144843D01*
X69015956Y-37119513D01*
X69039566Y-37061396D01*
X69075921Y-36976185D01*
X69122570Y-36869571D01*
X69149597Y-36808901D01*
X69307867Y-36808901D01*
X69487214Y-36808901D01*
X69573980Y-36808433D01*
X69626086Y-36805546D01*
X69651204Y-36798016D01*
X69657004Y-36783620D01*
X69651522Y-36761276D01*
X69633907Y-36713800D01*
X69606603Y-36649081D01*
X69574223Y-36576975D01*
X69541382Y-36507337D01*
X69512692Y-36450023D01*
X69492769Y-36414891D01*
X69486508Y-36408775D01*
X69475462Y-36430590D01*
X69451526Y-36482575D01*
X69418647Y-36556057D01*
X69393531Y-36613109D01*
X69307867Y-36808901D01*
X69149597Y-36808901D01*
X69177062Y-36747249D01*
X69212545Y-36668593D01*
X58396645Y-36446030D02*
X58429933Y-36489373D01*
X58429933Y-36489373D02*
X58445291Y-36541366D01*
X58445291Y-36541366D02*
X58445375Y-36545085D01*
X58445375Y-36545085D02*
X58427614Y-36595851D01*
X58427614Y-36595851D02*
X58384397Y-36628775D01*
X58384397Y-36628775D02*
X58330821Y-36637539D01*
X58330821Y-36637539D02*
X58281984Y-36615827D01*
X58281984Y-36615827D02*
X58280275Y-36614168D01*
X58280275Y-36614168D02*
X58257425Y-36567264D01*
X58257425Y-36567264D02*
X58257978Y-36510102D01*
X58257978Y-36510102D02*
X58280061Y-36462482D01*
X58280061Y-36462482D02*
X58295817Y-36449812D01*
X58295817Y-36449812D02*
X58337996Y-36431978D01*
X58337996Y-36431978D02*
X58357805Y-36427901D01*
X58357805Y-36427901D02*
X58396645Y-36446030D01*
X58396645Y-36446030D02*
X58396645Y-36446030D01*
G36*
X58396645Y-36446030D02*
G01*
X58429933Y-36489373D01*
X58445291Y-36541366D01*
X58445375Y-36545085D01*
X58427614Y-36595851D01*
X58384397Y-36628775D01*
X58330821Y-36637539D01*
X58281984Y-36615827D01*
X58280275Y-36614168D01*
X58257425Y-36567264D01*
X58257978Y-36510102D01*
X58280061Y-36462482D01*
X58295817Y-36449812D01*
X58337996Y-36431978D01*
X58357805Y-36427901D01*
X58396645Y-36446030D01*
G37*
X58396645Y-36446030D02*
X58429933Y-36489373D01*
X58445291Y-36541366D01*
X58445375Y-36545085D01*
X58427614Y-36595851D01*
X58384397Y-36628775D01*
X58330821Y-36637539D01*
X58281984Y-36615827D01*
X58280275Y-36614168D01*
X58257425Y-36567264D01*
X58257978Y-36510102D01*
X58280061Y-36462482D01*
X58295817Y-36449812D01*
X58337996Y-36431978D01*
X58357805Y-36427901D01*
X58396645Y-36446030D01*
D12*
X49507500Y-31200000D02*
X49507500Y-35300000D01*
X51507500Y-31200000D02*
X49507500Y-31200000D01*
X51507500Y-35300000D02*
X51507500Y-31200000D01*
X49507500Y-35300000D02*
X51507500Y-35300000D01*
X67955200Y-20713200D02*
X67955200Y-17913200D01*
X67955200Y-17913200D02*
X65955200Y-17913200D01*
X65955200Y-17913200D02*
X65955200Y-20713200D01*
X65955200Y-20713200D02*
X67955200Y-20713200D01*
X43114200Y-40344400D02*
X42657000Y-40344400D01*
X42080200Y-37363200D02*
X42080200Y-39363200D01*
X42080200Y-39363200D02*
X46180200Y-39363200D01*
X43317400Y-39836400D02*
X42352200Y-39836400D01*
X46180200Y-39363200D02*
X46180200Y-37363200D01*
X42809400Y-39379200D02*
X42809400Y-39836400D01*
X42809400Y-39836400D02*
X43317400Y-39836400D01*
X43215800Y-40090400D02*
X42504600Y-40090400D01*
X46180200Y-37363200D02*
X42080200Y-37363200D01*
X52657500Y-31200000D02*
X52657500Y-35300000D01*
X52657500Y-35300000D02*
X54657500Y-35300000D01*
X54657500Y-31200000D02*
X52657500Y-31200000D01*
X54657500Y-35300000D02*
X54657500Y-31200000D01*
M02*
