M48
INCH,TZ
T1C0.0118
T2C0.0300
T3C0.0315
T4C0.0354
T5C0.0394
T6C0.1063
%
G90
G05
T1
X19921Y-14291
X20492Y-12835
X21791Y-13051
T2
X1193Y-6854
X2193Y-6854
X19000Y-15079
X20000Y-15079
X21000Y-15079
X22000Y-15079
T3
X1677Y-3184
X1677Y-4184
X1677Y-5184
X3263Y-3176
X3263Y-4176
X3263Y-5176
X3500Y-6900
X3500Y-9900
X3500Y-10800
X3500Y-13800
X26358Y-6132
X26358Y-9132
X27708Y-6132
X27708Y-9132
T4
X26902Y-3389
X26902Y-4688
X27886Y-3389
X27886Y-4688
X28871Y-3389
X28871Y-4688
T5
X5150Y-5580
X5150Y-6580
X5150Y-7580
X5150Y-8580
X5150Y-9580
X5150Y-10580
X5150Y-11580
X5150Y-12580
X11220Y-1476
X12220Y-1476
X13220Y-1476
X14150Y-5580
X14150Y-6580
X14150Y-7580
X14150Y-8580
X14150Y-9580
X14150Y-10580
X14150Y-11580
X14150Y-12580
X14220Y-1476
X29322Y-6652
X29322Y-7652
X29322Y-8652
T6
X1378Y-1378
X1378Y-14961
X29134Y-1378
X29134Y-14961
T0
M30
