M48
INCH,TZ
T1C0.0300
T2C0.0315
T3C0.0354
T4C0.0394
T5C0.1063
%
G90
G05
T1
X1200Y-7410
X2200Y-7410
X19000Y-15079
X20000Y-15079
X21000Y-15079
X22000Y-15079
T2
X1677Y-3184
X1677Y-4184
X1677Y-5184
X3263Y-3176
X3263Y-4176
X3263Y-5176
X3500Y-6900
X3500Y-9900
X3500Y-10800
X3500Y-13800
X26400Y-6880
X26400Y-8230
X29400Y-6880
X29400Y-8230
T3
X26902Y-3630
X26902Y-4930
X27886Y-3630
X27886Y-4930
X28871Y-3630
X28871Y-4930
T4
X5150Y-5580
X5150Y-6580
X5150Y-7580
X5150Y-8580
X5150Y-9580
X5150Y-10580
X5150Y-11580
X5150Y-12580
X14150Y-5580
X14150Y-6580
X14150Y-7580
X14150Y-8580
X14150Y-9580
X14150Y-10580
X14150Y-11580
X14150Y-12580
T5
X1378Y-1378
X1378Y-14961
X29134Y-1378
X29134Y-14961
T0
M30
